<svg width="59" height="124" viewBox="0 0 59 124" fill="none" xmlns="http://www.w3.org/2000/svg">
<mask id="mask0_9_517" style="mask-type:alpha" maskUnits="userSpaceOnUse" x="-40" y="-27" width="100" height="151">
<path fill-rule="evenodd" clip-rule="evenodd" d="M14.6753 123.124C8.14618 124.606 2.58517 115.378 -3.91438 113.561C-14.7919 110.519 -28.9689 122.835 -36.3056 108.869C-43.0001 96.1255 -37.2754 74.0491 -32.6239 58.9106C-28.6365 45.9337 -19.7312 40.5692 -12.7092 32.0755C-8.34268 26.7938 -2.65118 25.2138 0.886883 18.3759C6.9087 6.73865 6.66581 -13.4248 14.6753 -20.8462C22.5641 -28.1558 33.9713 -28.1032 41.1549 -18.9354C48.4611 -9.61109 46.7628 9.77589 50.026 24.269C52.7097 36.1884 60.6926 46.6154 58.6819 58.9106C56.5401 72.0061 45.9726 74.4587 40.2602 83.9823C36.3783 90.4538 34.6415 99.5429 30.5997 105.726C25.8296 113.025 21.0407 121.679 14.6753 123.124Z" fill="#C4C4C4"/>
</mask>
<g mask="url(#mask0_9_517)">
<path fill-rule="evenodd" clip-rule="evenodd" d="M8.63574 112.885C2.10587 114.366 -3.45604 105.141 -9.95644 103.323C-20.8354 100.282 -35.0143 112.595 -42.3521 98.6327C-49.0474 85.8927 -43.3221 63.8215 -38.6698 48.6869C-34.6819 35.7131 -25.7754 30.3499 -18.7524 21.8581C-14.3853 16.5777 -8.69308 14.9981 -5.15432 8.16189C0.868375 -3.47251 0.625105 -23.6311 8.63574 -31.0506C16.5253 -38.3584 27.9344 -38.3059 35.1192 -29.1403C42.4261 -19.8183 40.7275 -0.435997 43.9911 14.0535C46.6751 25.9701 54.6592 36.3944 52.6481 48.6869C50.5063 61.7792 39.9373 64.2312 34.2241 73.7521C30.3418 80.2216 28.6047 89.3094 24.5625 95.4906C19.7916 102.787 15.0023 111.44 8.63574 112.885Z" stroke="#F9F9F9" stroke-width="3.1725"/>
<path fill-rule="evenodd" clip-rule="evenodd" d="M1.63856 89.8643C-4.04594 91.1538 -8.88763 83.1227 -14.5464 81.5416C-24.0169 78.8945 -36.36 89.6118 -42.7477 77.4582C-48.5763 66.3678 -43.5921 47.1556 -39.5423 33.9813C-36.0706 22.6882 -28.3173 18.0196 -22.2036 10.6278C-18.4019 6.03126 -13.4466 4.65621 -10.3661 -1.29451C-5.12328 -11.422 -5.33489 -28.9696 1.63856 -35.4281C8.50702 -41.7894 18.4388 -41.7436 24.6932 -33.7652C31.0543 -25.6506 29.5755 -8.77879 32.4163 3.83399C34.753 14.2071 41.7033 23.2812 39.9527 33.9813C38.088 45.3781 28.8876 47.5124 23.9138 55.8006C20.5341 61.4318 19.0218 69.3423 15.5035 74.7231C11.3498 81.0745 7.18075 88.6066 1.63856 89.8643Z" stroke="#F9F9F9" stroke-width="3.1725"/>
<path fill-rule="evenodd" clip-rule="evenodd" d="M-7.6313 70.252C-12.6817 71.4007 -16.9833 64.2489 -22.0109 62.8399C-30.425 60.4825 -41.3913 70.0276 -47.0665 59.2033C-52.2449 49.3269 -47.8167 32.2164 -44.2185 20.4835C-41.1342 10.4259 -34.2457 6.26817 -28.8139 -0.315025C-25.4363 -4.40859 -21.0338 -5.63315 -18.2969 -10.9328C-13.6389 -19.9523 -13.8269 -35.5799 -7.6313 -41.3319C-1.52913 -46.9971 7.29491 -46.9564 12.8517 -39.8509C18.503 -32.6242 17.1895 -17.5983 19.7136 -6.36542C21.7893 2.87276 27.9645 10.9541 26.4091 20.4835C24.7524 30.6332 16.5784 32.5341 12.1592 39.9155C9.15691 44.931 7.81296 51.9759 4.68696 56.7677C0.996774 62.4244 -2.70736 69.132 -7.6313 70.252Z" stroke="#F9F9F9" stroke-width="3.1725"/>
</g>
</svg>
