<svg width="46" height="51" viewBox="0 0 46 51" fill="none" xmlns="http://www.w3.org/2000/svg">
<g clip-path="url(#clip0_9_341)">
<path d="M30.8172 6.9967C30.9745 7.07532 31.2103 6.91809 31.2889 6.76086C31.2889 6.68224 31.2889 6.52502 31.2889 6.4464C31.2103 6.4464 31.1317 6.36779 31.0531 6.28917C30.8172 6.21056 30.5814 6.13194 30.2669 6.05333C30.1097 5.97471 29.9525 5.97471 29.7166 5.97471C29.638 5.97471 29.4808 5.97471 29.4021 5.97471C29.0877 6.05333 28.8519 6.13194 28.6161 6.28917C28.5374 6.36779 28.3801 6.4464 28.3016 6.52502C28.223 6.60363 28.223 6.60363 28.223 6.68224C28.1443 6.76086 28.1443 6.76086 28.1443 6.83948C28.0657 6.9967 28.223 7.23255 28.3801 7.23255C28.5374 7.31116 28.6946 7.23255 28.7732 7.07532L28.8519 6.9967C29.0091 6.91809 29.1663 6.83948 29.3236 6.76086C29.4808 6.68224 29.638 6.68224 29.7166 6.68224C29.8739 6.68224 29.9525 6.68224 30.1097 6.68224C30.2669 6.83948 30.5028 6.91809 30.8172 6.9967ZM39.622 8.72623C39.7007 8.72623 39.7007 8.64765 39.7793 8.64765C39.8579 8.56898 40.0151 8.56898 40.0938 8.4904C40.1724 8.4904 40.1724 8.4904 40.2509 8.41173C40.4082 8.33315 40.5654 8.33315 40.7227 8.33315C40.8013 8.33315 40.8013 8.33315 40.8799 8.33315C40.9585 8.33315 41.0371 8.41173 41.1158 8.41173L41.1944 8.4904C41.2729 8.56898 41.2729 8.56898 41.2729 8.64765C41.3516 8.72623 41.3516 8.80482 41.4302 8.96206C41.5089 9.1979 41.5089 9.43373 41.5874 9.66956C41.5874 9.82681 41.5874 10.0626 41.5874 10.2199C41.5874 10.3771 41.7447 10.613 41.9019 10.613C42.0591 10.613 42.2949 10.4557 42.2949 10.2986C42.2949 9.90548 42.2949 9.51239 42.2164 9.11931C42.1378 8.96206 42.1378 8.80482 42.0591 8.64765C41.9805 8.4904 41.9019 8.41173 41.8233 8.25456C41.8233 8.1759 41.7447 8.1759 41.666 8.09731C41.5874 8.01873 41.5874 8.01873 41.5089 7.94008C41.4302 7.86147 41.3516 7.86147 41.1944 7.78285C41.0371 7.70423 40.8799 7.70423 40.7227 7.70423C40.7227 7.70423 40.7227 7.70423 40.644 7.70423C40.5654 7.70423 40.4082 7.70423 40.3296 7.70423C40.1724 7.70423 40.0938 7.78285 39.9365 7.78285C39.7793 7.86147 39.622 7.94008 39.4649 8.01873C39.3076 8.09731 39.229 8.1759 39.1504 8.33315C39.0718 8.4904 39.0718 8.72623 39.229 8.80481C39.4649 8.72623 39.5434 8.72623 39.622 8.72623ZM33.5687 1.33645C33.6474 1.33645 33.6474 1.25783 33.726 1.25783C33.8832 1.17922 34.0405 1.17922 34.119 1.10061C34.119 1.10061 34.119 1.10061 34.0405 1.10061C34.2763 1.02199 34.5121 0.943373 34.748 0.864765C35.141 0.786147 35.3769 0.786147 35.6914 0.786147C35.8485 0.786147 36.0058 0.786147 36.163 0.786147C36.3203 0.786147 36.5561 0.786147 36.7133 0.864765C36.8705 0.864765 37.0278 0.943373 37.1064 0.943373C37.2636 1.02199 37.4209 1.10061 37.6567 1.10061C37.7353 1.17922 37.8925 1.17922 37.9712 1.25783C38.1284 1.33645 38.207 1.41506 38.3642 1.5723C38.5215 1.72952 38.6787 1.88675 38.8359 2.04398C38.9145 2.1226 38.9931 2.20121 38.9931 2.27983C39.0718 2.43705 39.3076 2.51567 39.4649 2.43705C39.7007 2.35844 39.7793 2.1226 39.7007 1.88675C39.5434 1.6509 39.3862 1.41506 39.229 1.17922C38.9931 1.10061 38.8359 0.943373 38.6001 0.786147C38.3642 0.628917 38.207 0.550303 37.9712 0.393073C37.7353 0.235844 37.4209 0.15723 37.185 0.0786147C36.8705 1.78506e-08 36.5561 0 36.163 0C35.9272 0 35.77 0 35.5341 0C35.2196 0 34.9838 0.0786147 34.6694 0.15723C34.4335 0.235844 34.119 0.314458 33.8832 0.393073C33.726 0.471688 33.5687 0.550303 33.4115 0.628917C33.3329 0.628917 33.3329 0.707532 33.2543 0.707532C33.2543 0.786147 33.2543 0.786147 33.1756 0.786147C33.0185 0.943373 33.0185 1.10061 33.1756 1.25783C33.2543 1.41506 33.4901 1.41506 33.5687 1.33645ZM33.8832 0.393073C33.9618 0.393073 33.9618 0.393073 33.8832 0.393073V0.393073Z" fill="black"/>
<path d="M44.889 14.3861C44.6531 14.3861 44.4959 14.4647 44.4959 14.622C44.4173 14.9364 44.2601 15.2509 44.1028 15.4867C44.0242 15.644 43.9456 15.8012 43.7883 15.9584C43.6312 16.1156 43.5525 16.3515 43.3953 16.5087C43.3167 16.666 43.1595 16.7446 43.0808 16.8231C42.9236 16.9804 42.845 17.059 42.6877 17.1376C42.2161 17.5307 41.6657 17.7665 41.0368 18.0024C40.8797 18.081 40.7224 18.081 40.5652 18.1596C40.4079 18.2382 40.2507 18.2382 40.0148 18.3169C39.7004 18.3955 39.3073 18.3955 38.9928 18.474C38.9142 18.474 38.9142 18.474 38.8357 18.474H38.9142C38.8357 18.474 38.757 18.474 38.6784 18.474C38.5998 18.474 38.5212 18.5527 38.5212 18.6313C38.5212 18.71 38.5212 18.7885 38.5212 18.8671C38.5212 18.9458 38.5998 19.0244 38.6784 19.0244C38.8357 19.0244 38.9142 19.0244 39.0715 19.0244C39.2287 19.0244 39.4646 19.0244 39.6217 19.0244C39.9362 19.0244 40.2507 18.9458 40.5652 18.8671C40.8797 18.7885 41.1941 18.71 41.5086 18.5527C41.823 18.3955 42.1375 18.2382 42.4519 18.081C42.7664 17.9238 43.0022 17.7665 43.2381 17.5307C43.3953 17.3735 43.4739 17.2949 43.6312 17.1376C43.7884 16.9804 43.867 16.8231 44.0242 16.666C44.4959 16.0371 44.8103 15.3295 45.0462 14.622C45.2034 14.7006 45.0462 14.4647 44.889 14.3861ZM18.7889 22.8765C18.7889 22.2476 18.7889 21.6187 18.7103 20.9897C18.7103 20.8325 18.6317 20.6753 18.6317 20.4395C18.6317 20.3608 18.553 20.2036 18.553 20.125C18.4745 20.0464 18.3958 19.8891 18.3172 19.8105C18.2386 19.7319 18.0814 19.6533 18.0028 19.5747C17.9241 19.5747 17.9241 19.496 17.8455 19.496C17.7669 19.4175 17.6097 19.4175 17.531 19.3389C17.3739 19.2602 17.138 19.2602 16.9808 19.1816C16.6663 19.103 16.3519 19.103 16.116 19.0244C15.723 18.9458 15.3299 18.9458 15.0154 18.8671C13.6003 18.71 12.1853 18.6313 10.7702 18.6313C10.3771 18.6313 10.0626 18.6313 9.66964 18.6313C9.27656 18.6313 8.80481 18.6313 8.41173 18.6313C7.62562 18.6313 6.83948 18.6313 6.05333 18.71C5.26718 18.71 4.48103 18.7885 3.7735 18.8671C2.98736 18.9458 2.20121 19.0244 1.41506 19.103C1.33645 19.103 1.33645 19.103 1.25783 19.103C1.17922 19.103 1.10061 19.1816 1.02199 19.2602C0.943373 19.3389 0.864765 19.496 0.864765 19.6533C0.864765 19.8105 0.943373 19.9678 1.02199 20.0464C1.10061 20.125 1.17922 20.2036 1.25783 20.2036C1.33645 20.2036 1.49368 20.2036 1.5723 20.2036C1.96536 20.125 2.35844 20.0464 2.83013 20.0464C4.7955 19.8105 6.83948 19.6533 8.80481 19.6533C9.82681 19.6533 10.9275 19.6533 12.0281 19.6533C13.0501 19.6533 14.1506 19.7319 15.1726 19.8891C15.5657 19.9678 15.9588 19.9678 16.2732 20.0464C16.5877 20.125 16.9021 20.2036 17.2166 20.3608C17.2952 20.3608 17.3739 20.4395 17.4525 20.518C17.531 20.6753 17.531 20.9111 17.6097 21.147C17.7669 22.4048 17.8455 23.6626 17.8455 24.9205C17.9241 26.2569 17.9241 27.5934 17.9241 28.9299C17.9241 31.6814 17.7669 34.4328 17.6097 37.1058C17.531 38.8353 17.4525 40.5648 17.3739 42.3729C17.3739 43.2377 17.3739 44.1025 17.3739 44.9672C17.3739 45.832 17.3739 46.6967 17.2166 47.4829C17.2166 47.5615 17.2166 47.6401 17.138 47.7187C17.138 47.876 17.0594 48.0332 16.9808 48.1904C16.9808 48.2691 16.9021 48.2691 16.9021 48.3476C16.6663 48.4262 16.4305 48.5049 16.116 48.5049C15.8015 48.5835 15.4871 48.5835 15.1726 48.6621C15.094 48.6621 15.0154 48.6621 14.9368 48.6621C15.1726 48.4262 15.4085 48.1904 15.6443 47.9546C15.8015 47.7973 15.8015 47.6401 15.6443 47.4829C15.5657 47.4043 15.4871 47.4042 15.4085 47.4042C15.3299 47.4042 15.2512 47.4043 15.1726 47.4829C14.8581 47.7187 14.6223 48.0332 14.3079 48.2691C14.1506 48.4262 13.9934 48.5835 13.8362 48.7407C13.2859 48.8193 12.7356 48.898 12.2639 48.898C12.4211 48.7407 12.657 48.6621 12.8142 48.5049C12.9714 48.4262 12.9714 48.1904 12.8928 48.1118C12.8142 48.0332 12.8142 47.9546 12.7356 47.9546H12.657C12.5783 47.9546 12.5783 47.9546 12.4997 47.9546C12.1853 48.1904 11.8708 48.4262 11.5564 48.6621L11.4777 48.7407C11.3991 48.8193 11.3205 48.898 11.3205 48.9766C10.6916 49.0551 10.1413 49.0551 9.51239 49.0551C9.74823 48.898 10.0626 48.6621 10.2986 48.5049C10.3771 48.4262 10.4557 48.4262 10.4557 48.2691C10.4557 48.1904 10.4557 48.1118 10.4557 48.0332C10.3771 47.9546 10.2986 47.876 10.2199 47.876H10.1413C10.0626 47.876 10.0626 47.876 9.98406 47.9546C9.51239 48.2691 9.11931 48.5835 8.64765 48.898C8.56898 48.898 8.56898 48.9766 8.4904 48.9766C8.33315 49.1338 8.33315 49.2124 8.33315 49.2911C7.70423 49.2911 7.07532 49.3696 6.36779 49.3696C6.4464 49.2911 6.60363 49.2124 6.68224 49.1338C6.91809 48.9766 7.15393 48.8193 7.38978 48.6621C7.46839 48.5835 7.54701 48.5835 7.54701 48.5049C7.62562 48.4262 7.70423 48.4262 7.70423 48.2691C7.70423 48.1904 7.70423 48.1118 7.70423 48.0332C7.62562 47.9546 7.62562 47.876 7.46839 47.876H7.38978C7.31116 47.876 7.31117 47.876 7.23255 47.9546C6.91809 48.1904 6.60363 48.4262 6.28917 48.5835C6.13194 48.6621 6.05333 48.7407 5.97471 48.898C5.8961 48.9766 5.81749 49.0551 5.66025 49.1338C5.58164 49.2124 5.58164 49.3696 5.58164 49.4482C4.95272 49.4482 4.32381 49.4482 3.69489 49.3696C3.7735 49.2911 3.7735 49.2911 3.85212 49.2124C3.93073 49.1338 4.08797 49.0551 4.16657 48.9766C4.40242 48.8193 4.63826 48.5835 4.87411 48.4262C5.03134 48.2691 5.03134 48.0332 4.87411 47.9546C4.7955 47.876 4.71688 47.876 4.63826 47.876C4.55965 47.876 4.48103 47.876 4.40242 47.9546C4.16657 48.1118 3.93073 48.3476 3.69489 48.5049C3.61628 48.5835 3.45904 48.6621 3.38043 48.8193C3.30182 48.898 3.2232 48.898 3.14458 48.9766C3.06597 49.0551 3.06597 49.1338 3.06597 49.2124C3.06597 49.2911 3.06597 49.3696 3.14458 49.3696C2.98736 49.3696 2.83013 49.3696 2.6729 49.3696C2.27983 49.2911 1.96536 49.2124 1.5723 49.1338C1.88675 48.8193 2.04398 48.7407 2.20121 48.5835C2.51567 48.3476 2.75151 48.0332 3.06597 47.7187C3.2232 47.5615 3.2232 47.3256 3.06597 47.2471C2.98736 47.1684 2.83013 47.0898 2.75151 47.0898C2.6729 47.0898 2.59429 47.0898 2.51567 47.1684C2.20121 47.4829 1.88675 47.7973 1.5723 48.1118C1.41506 48.2691 1.33645 48.3476 1.25783 48.5049C1.25783 48.0332 1.25783 47.6401 1.25783 47.1684C1.33645 47.0898 1.41506 47.0112 1.49368 47.0112C1.6509 46.854 1.72952 46.7753 1.88675 46.6181C2.20121 46.3036 2.51567 45.9892 2.75151 45.6747C2.90874 45.5175 2.90874 45.3603 2.75151 45.2031C2.6729 45.1245 2.59429 45.1245 2.51567 45.1245C2.43705 45.1245 2.35844 45.1245 2.27983 45.2031C1.96537 45.5175 1.6509 45.832 1.41506 46.1464C1.33645 46.1464 1.25783 46.1464 1.25783 46.2251C1.25783 45.6747 1.25783 45.1245 1.25783 44.4956C1.25783 44.4169 1.25783 44.3383 1.25783 44.2597C1.33645 44.2597 1.41506 44.2597 1.49368 44.1811C1.6509 44.0238 1.80814 43.8666 1.88675 43.788C2.1226 43.5522 2.35844 43.3163 2.59429 43.0805C2.75151 42.9232 2.75151 42.6874 2.59429 42.6087C2.51567 42.5302 2.43705 42.4516 2.35844 42.4516C2.27983 42.4516 2.20121 42.4516 2.1226 42.5302C1.88675 42.766 1.6509 43.0018 1.49368 43.1591C1.41506 43.2377 1.41506 43.3163 1.33645 43.3163C1.33645 42.2943 1.41506 41.3509 1.41506 40.3289C1.49368 37.4988 1.41506 34.6687 1.33645 31.9172C1.25783 30.0304 1.10061 28.1437 1.02199 26.2569C0.943373 25.3135 0.943373 24.2915 0.864765 23.3482C0.864765 22.8765 0.786147 22.4048 0.786147 21.9331C0.707532 21.4615 0.707532 20.9897 0.628917 20.518C0.628917 20.4395 0.628917 20.3608 0.628917 20.2036C0.628917 20.0464 0.471688 19.8891 0.314458 19.8891C0.15723 19.8891 0 20.0464 0 20.2036C0 20.2822 0 20.4395 0 20.518C0 20.5967 0 20.6753 0 20.7539C0 20.8325 0 20.9111 0 20.9111C0 21.3042 0 21.6973 0 22.0117C0.0786147 22.7193 0.0786145 23.4268 0.157229 24.0557C0.235844 25.3922 0.393073 26.7286 0.393073 28.1437C0.393073 29.8732 0.393073 31.3669 0.471688 32.7819C0.550303 34.1184 0.550302 35.4548 0.550302 36.7913C0.550302 38.2063 0.550303 39.6214 0.471688 40.9578C0.393073 42.2943 0.314458 43.7094 0.314458 45.0458C0.314458 45.7534 0.235844 46.3823 0.235844 47.0898C0.235844 47.4043 0.235844 47.7187 0.157229 48.1118C0.157229 48.2691 0.157229 48.5049 0.157229 48.6621C0.157229 49.0551 0.393073 49.4482 0.707532 49.6841C0.786147 49.7627 0.786147 49.7627 0.864765 49.8413C0.943373 49.92 1.02199 49.92 1.10061 49.92C1.25783 49.9986 1.33645 49.9986 1.49368 50.0771C1.72952 50.1558 1.96536 50.1558 2.20121 50.2344C2.59429 50.3131 2.90874 50.313 3.30182 50.313C3.93073 50.313 4.63826 50.313 5.26718 50.313C6.60363 50.313 8.01873 50.2344 9.35515 50.1558C10.6916 50.0771 12.0281 50.0771 13.3645 49.9986C13.9934 49.9986 14.6223 49.92 15.2512 49.8413C15.8801 49.7627 16.509 49.7627 17.138 49.6055C17.3739 49.5269 17.6097 49.4482 17.7669 49.2911C17.8455 49.2124 17.9241 49.0551 18.0028 48.898C18.0814 48.7407 18.16 48.5049 18.16 48.3476C18.16 48.1904 18.2386 48.0332 18.2386 47.876C18.2386 47.6401 18.2386 47.4829 18.3172 47.2471C18.3958 46.5395 18.3172 45.9106 18.3172 45.2031C18.3172 43.8666 18.3172 42.5302 18.3958 41.1151C18.4745 39.7 18.553 38.285 18.6317 36.8699C18.7103 35.5334 18.7889 34.2756 18.8675 32.9392C18.9461 31.6028 19.0247 30.1877 19.0247 28.8512C19.0247 27.5148 19.0247 26.1783 19.0247 24.8419C18.7889 24.2129 18.7889 23.5055 18.7889 22.8765Z" fill="black"/>
<path d="M3.53639 26.3358C3.53639 25.7069 3.61501 25.1566 3.69363 24.6063C3.69363 24.4491 3.77224 24.2919 3.77224 24.1346C3.77224 23.9774 3.77224 23.8202 3.69363 23.6629C3.61501 23.5057 3.53639 23.4271 3.37916 23.4271C3.22194 23.4271 3.0647 23.4271 2.90748 23.5057C2.75025 23.5844 2.67163 23.7415 2.67163 23.8202C2.59302 24.1346 2.59302 24.5277 2.59302 24.8422C2.59302 25.1566 2.5144 25.4711 2.5144 25.7855C2.5144 26.4144 2.5144 27.0433 2.5144 27.6723C2.5144 28.9301 2.59302 30.2666 2.67163 31.5244C2.75025 32.8608 2.82886 34.1187 2.90748 35.4552C2.98609 36.0841 2.98609 36.713 3.0647 37.3419C3.14332 37.9708 3.14332 38.5997 3.22194 39.2287C3.22194 39.5431 3.30055 39.8576 3.37916 40.172C3.45778 40.4078 3.53639 40.6437 3.61501 40.8009C3.61501 40.8796 3.69362 40.9581 3.77224 41.0367C3.92947 41.1154 4.00808 41.194 4.16531 41.2726C4.71562 41.5085 5.34453 41.4298 5.89483 41.3512C7.23129 41.194 8.48911 41.194 9.8256 40.9581C10.4545 40.8796 11.0048 40.8009 11.6337 40.6437C11.9482 40.5651 12.184 40.4865 12.4984 40.4865C12.8129 40.4078 13.1273 40.3292 13.4418 40.3292C13.5991 40.3292 13.7563 40.2507 13.9135 40.172C13.9922 40.172 14.0708 40.0934 14.1493 40.0934C14.228 40.0148 14.3066 40.0148 14.4638 39.9362C14.6211 39.8576 14.6997 39.7789 14.7783 39.7003C14.8569 39.6217 14.9355 39.4645 15.0141 39.3072C15.0928 39.15 15.0928 39.0714 15.0928 38.9142C15.0928 38.757 15.0928 38.5997 15.0928 38.4425C15.0928 37.8136 15.1713 37.1847 15.1713 36.5557C15.1713 35.9268 15.1713 35.2979 15.1713 34.669C15.1713 34.0401 15.1713 33.3325 15.1713 32.7036C15.25 31.3672 15.3286 30.0308 15.4072 28.6943C15.4858 28.0653 15.4858 27.3578 15.5644 26.7289C15.6431 26.1 15.643 25.4711 15.643 24.7635C15.643 24.4491 15.643 24.1346 15.643 23.8202C15.643 23.6629 15.643 23.5057 15.643 23.3484C15.643 23.1913 15.643 23.1126 15.643 23.034C15.643 22.7982 15.5644 22.6409 15.4858 22.4837C15.4858 22.4837 15.4858 22.4051 15.4072 22.4051C15.3286 22.3265 15.3286 22.2479 15.25 22.2479C15.1713 22.1693 15.0141 22.0906 14.9355 22.0906C14.7783 22.012 14.5424 22.012 14.3852 22.0906C14.0708 22.0906 13.8349 22.1693 13.5204 22.1693C11.7909 22.2479 10.14 22.2479 8.41052 22.2479C7.54574 22.2479 6.68098 22.2479 5.89483 22.1693C5.50176 22.1693 5.03007 22.1693 4.637 22.0906C4.40116 22.0906 4.24393 22.0906 4.00808 22.0906C3.92947 22.0906 3.85085 22.0906 3.69363 22.0906C3.61501 22.0906 3.53639 22.0906 3.45778 22.0906C3.61501 22.012 3.61501 22.012 3.61501 22.012C3.45778 22.012 3.30055 22.0906 3.22194 22.2479C3.14332 22.4051 3.30055 22.6409 3.45778 22.6409C3.53639 22.6409 3.61501 22.6409 3.69363 22.6409C3.92947 22.6409 4.08669 22.7195 4.32254 22.7195C4.55838 22.7195 4.79422 22.7195 5.03007 22.7195C5.50176 22.7195 5.97345 22.7195 6.44514 22.7982C7.38851 22.8768 8.41052 22.8768 9.35386 22.9554C10.2973 23.034 11.2406 23.1126 12.184 23.1126C12.6557 23.1126 13.1273 23.1126 13.5204 23.1126C13.7563 23.1126 13.9135 23.1126 14.1493 23.1126C14.3066 23.1126 14.4638 23.1126 14.6211 23.1126C14.6997 23.2699 14.6997 23.4271 14.7783 23.5844C14.9355 24.7635 14.8569 26.0213 14.7783 27.2006C14.6997 27.8295 14.6997 28.4584 14.6211 29.0873C14.5424 29.7163 14.5424 30.3452 14.4638 30.8955C14.3852 32.1533 14.3066 33.4112 14.228 34.669C14.228 35.2979 14.228 35.8482 14.1493 36.4772C14.1493 37.0274 14.0708 37.6563 13.9922 38.2067C13.9922 38.4425 13.9135 38.6783 13.8349 38.8356C13.8349 38.8356 13.7563 38.8356 13.7563 38.9142C13.6777 38.9928 13.5991 38.9928 13.5204 39.0714C13.4418 39.0714 13.4418 39.15 13.3633 39.15C12.3413 39.5431 11.3193 39.7003 10.2186 39.8576C10.3759 39.7789 10.4545 39.7003 10.6117 39.5431C11.0834 39.2287 11.4764 38.8356 11.9482 38.5211C12.0268 38.4425 12.0268 38.3639 12.0268 38.2852C12.0268 38.2067 12.0268 38.1281 11.9482 38.0494C11.8695 37.9708 11.7909 37.9708 11.7123 37.9708C11.6337 37.9708 11.5551 37.9708 11.4764 38.0494C10.9262 38.4425 10.3759 38.9142 9.8256 39.3072C9.66835 39.4645 9.51111 39.5431 9.35386 39.7003C9.27527 39.7003 9.19669 39.7789 9.19669 39.7789C9.11802 40.0148 9.11802 40.0148 9.03944 40.0934C8.48911 40.172 7.93882 40.172 7.38851 40.2507C7.54574 40.0934 7.78158 39.9361 7.93882 39.7789C8.41052 39.3859 8.80361 39.0714 9.27527 38.757C9.43252 38.6783 9.43252 38.4425 9.27527 38.2852C9.19669 38.2067 9.11802 38.2067 9.03944 38.2067C8.96077 38.2067 8.88219 38.2067 8.80361 38.2852C8.33186 38.5997 7.93882 38.9928 7.46713 39.3072C7.30989 39.4645 7.07405 39.6217 6.91682 39.7789C6.83821 39.8576 6.75959 39.9362 6.68098 40.0148C6.60236 40.0934 6.60236 40.0934 6.52375 40.172C6.44514 40.2507 6.44514 40.3292 6.44514 40.4078C6.2879 40.4078 6.13068 40.4078 5.97345 40.4078C5.58037 40.4078 5.26592 40.4078 4.87284 40.4078C4.87284 40.4078 4.95146 40.4078 4.95146 40.3292C5.10868 40.172 5.34453 40.0148 5.50176 39.7789C5.97345 39.3859 6.44514 38.9142 6.83821 38.5211C6.99544 38.3639 6.99544 38.2067 6.83821 38.0494C6.75959 37.9708 6.68098 37.9708 6.60236 37.9708C6.52375 37.9708 6.44514 37.9708 6.36652 38.0494C5.89483 38.4425 5.42315 38.9142 4.95146 39.3072C4.79422 39.4645 4.55838 39.7003 4.32254 39.8576C4.24393 39.9362 4.24393 39.9362 4.16531 40.0148C4.00808 39.6217 3.92947 39.2287 3.85085 38.8356C3.85085 38.8356 3.85085 38.8356 3.85085 38.757C3.92947 38.757 4.00808 38.757 4.08669 38.6783C4.16531 38.5211 4.32254 38.4425 4.47977 38.3639C4.637 38.2067 4.87284 38.0494 5.03007 37.8136C5.42315 37.4991 5.73761 37.1061 6.13068 36.7916C6.2879 36.6343 6.2879 36.3985 6.13068 36.3199C6.05206 36.2412 5.97345 36.2412 5.89483 36.2412C5.81621 36.2412 5.73761 36.2412 5.65899 36.3199C5.26591 36.6343 4.95146 36.9488 4.55838 37.3419C4.40115 37.4991 4.24393 37.6563 4.00808 37.8136C3.92947 37.8922 3.85085 37.9708 3.77224 38.0494C3.69362 37.3419 3.61501 36.713 3.61501 36.0054C3.61501 36.0054 3.61501 36.0841 3.69363 36.0841C3.77224 36.1627 3.85085 36.1627 3.92947 36.1627C4.00808 36.1627 4.08669 36.0841 4.08669 36.0841C4.32254 35.8482 4.55838 35.6123 4.79422 35.4552C5.10869 35.1407 5.42315 34.8262 5.81622 34.5903C5.97345 34.4332 5.97345 34.1973 5.81622 34.1187C5.73761 34.0401 5.65899 34.0401 5.58037 34.0401C5.50176 34.0401 5.42315 34.0401 5.34453 34.1187C5.03007 34.4332 4.637 34.669 4.32254 34.9834C4.16531 35.1407 4.08669 35.2192 3.92947 35.3765C3.85085 35.4552 3.69362 35.6123 3.61501 35.691C3.61501 35.5337 3.61501 35.4552 3.61501 35.3765C3.61501 35.0621 3.61501 34.669 3.53639 34.3545C3.61501 34.3545 3.61501 34.3545 3.69363 34.2759C3.92947 34.0401 4.16531 33.8042 4.40115 33.5684C4.71562 33.2539 5.10869 32.9395 5.42315 32.625C5.58037 32.4678 5.58037 32.2319 5.42315 32.1533C5.34453 32.0747 5.26591 32.0747 5.1873 32.0747C5.10869 32.0747 5.03007 32.0747 4.95146 32.1533C4.637 32.4678 4.32254 32.7036 4.00808 33.0181C3.85085 33.1753 3.69362 33.3325 3.61501 33.4112L3.53639 33.4897C3.61501 32.8608 3.61501 32.3106 3.61501 31.8388H3.69363C3.85085 31.6816 4.00808 31.5244 4.16531 31.3672C4.40115 31.1313 4.71562 30.8955 4.95146 30.6597C5.10868 30.5024 5.10868 30.2666 4.95146 30.1879C4.87284 30.1093 4.79422 30.1093 4.71562 30.1093C4.637 30.1093 4.55838 30.1093 4.47977 30.1879C4.24393 30.4238 3.92947 30.6597 3.69363 30.8955C3.61501 30.9741 3.61501 30.9741 3.53639 31.0527C3.53639 30.3452 3.45778 29.6377 3.45778 28.9301C3.53639 29.0873 3.77224 29.0873 3.92947 28.9301C4.00808 28.8515 4.08669 28.7728 4.16531 28.7728C4.24393 28.6943 4.40116 28.6157 4.47977 28.537C4.55838 28.4584 4.637 28.4584 4.637 28.3798C4.637 28.3012 4.637 28.2226 4.637 28.1439C4.55838 28.0653 4.55838 27.9868 4.47977 27.9868H4.40115C4.32254 27.9868 4.24393 27.9868 4.16531 28.0653C4.00808 28.1439 3.85085 28.3012 3.77224 28.3798C3.69362 28.3012 3.61501 28.3012 3.53639 28.3798C3.53639 28.3798 3.53639 28.3798 3.53639 28.4584C3.53639 28.3012 3.53639 28.1439 3.53639 27.9868C3.53639 27.4364 3.45778 26.8861 3.53639 26.3358ZM4.32254 35.9268C4.24393 35.9268 4.24393 35.9268 4.32254 35.9268V35.9268ZM10.9262 43.6311L10.8475 43.5525C10.7689 43.4738 10.6904 43.4738 10.6117 43.3952C10.4545 43.3166 10.3759 43.3166 10.2186 43.238C10.14 43.238 9.98277 43.238 9.90419 43.238C9.8256 43.238 9.74694 43.238 9.66835 43.238C9.51111 43.238 9.35386 43.3166 9.19669 43.3166C9.03944 43.3952 8.96077 43.3952 8.80361 43.4738L8.72494 43.5525C8.64636 43.6311 8.64636 43.7096 8.56769 43.7096C8.56769 43.7883 8.48911 43.7883 8.48911 43.8669C8.33186 43.7883 8.17469 43.8669 8.01744 43.9455C7.8602 44.0241 7.78158 44.1814 7.70297 44.26C7.62435 44.3386 7.54574 44.4958 7.46713 44.5744C7.38851 44.7316 7.30989 44.8889 7.23129 45.0461C7.15267 45.2034 7.07405 45.4392 7.07405 45.5964C7.07405 45.7536 7.07405 45.9895 7.07405 46.1467C7.07405 46.2253 7.07405 46.304 7.07405 46.304C7.07405 46.3826 7.15267 46.4612 7.23129 46.6184C7.30989 46.7756 7.38851 46.8542 7.54574 47.0115C7.62436 47.0901 7.70297 47.1687 7.78158 47.1687C7.8602 47.2473 8.01744 47.326 8.09603 47.326C8.41052 47.4831 8.72494 47.4831 9.03944 47.4831C9.19661 47.4831 9.35386 47.4831 9.51111 47.4046C9.66835 47.4046 9.8256 47.2473 9.98277 47.2473C10.0614 47.2473 10.0614 47.1687 10.14 47.1687C10.2186 47.0901 10.2973 47.0115 10.3759 46.9329C10.4545 46.8542 10.5331 46.7756 10.6117 46.6184C10.6904 46.4612 10.7689 46.304 10.8475 46.2253C11.0048 45.9895 11.0834 45.6751 11.162 45.4392C11.2406 45.282 11.2406 45.0461 11.3193 44.8889C11.3193 44.7316 11.3979 44.5744 11.3979 44.4172C11.3979 44.3386 11.3979 44.26 11.3193 44.1027C11.3193 44.0241 11.2406 43.9455 11.2406 43.8669C11.0834 43.8669 11.0048 43.7883 10.9262 43.6311ZM9.03944 44.3386C8.96077 44.3386 8.96077 44.3386 9.03944 44.3386V44.3386ZM8.01744 46.1467C8.01744 46.0681 8.01744 46.0681 8.01744 46.1467V46.1467ZM10.2186 44.9675C10.2186 45.1247 10.14 45.282 10.0614 45.5178C9.98277 45.7536 9.8256 45.9895 9.66835 46.1467C9.58969 46.2253 9.51111 46.304 9.43252 46.4612C9.35386 46.5398 9.35386 46.5398 9.27527 46.6184C9.19669 46.6184 9.11802 46.6971 9.11802 46.6971H9.03944C8.96077 46.6971 8.88219 46.6971 8.80361 46.6971C8.72494 46.6971 8.64636 46.6971 8.56769 46.6184C8.48911 46.6184 8.41052 46.5398 8.33186 46.4612C8.25328 46.3826 8.25327 46.3826 8.17469 46.304L8.09603 46.2253C8.09603 46.1467 8.09603 46.1467 8.01744 46.0681C8.01744 45.9895 8.01744 45.9109 8.01744 45.8323C8.01744 45.7536 8.09603 45.5964 8.09603 45.5178C8.09603 45.4392 8.17469 45.3606 8.25327 45.282C8.33186 45.2033 8.33186 45.1247 8.41052 45.0461C8.48911 44.9675 8.56769 44.8889 8.64636 44.8103L8.72494 44.7316C8.80361 44.7316 8.88219 44.6531 8.96077 44.5744C9.03944 44.5744 9.11802 44.5744 9.11802 44.4958C9.27527 44.4172 9.43252 44.4172 9.58969 44.3386C9.66835 44.3386 9.74694 44.3386 9.8256 44.3386C9.90419 44.3386 9.98277 44.3386 10.0614 44.4172C10.0614 44.4172 10.14 44.4172 10.14 44.4958C10.14 44.4958 10.14 44.4958 10.2186 44.5744C10.2186 44.5744 10.2186 44.6531 10.2973 44.6531V44.7316V44.8103C10.2973 44.8103 10.2186 44.8889 10.2186 44.9675Z" fill="black"/>
<path d="M25.9425 18.003C26.1784 18.1603 26.4142 18.2389 26.65 18.3175C26.8073 18.3961 26.8859 18.3961 27.0431 18.4748C27.2004 18.5534 27.3575 18.6319 27.5148 18.6319C27.672 18.7106 27.9079 18.7106 28.0651 18.7892C28.2223 18.8678 28.4582 18.8678 28.6154 18.9464C28.7726 18.9464 28.9299 19.025 29.0871 19.025C29.2443 19.025 29.4015 19.1037 29.4802 19.1037C29.6374 19.1037 29.8732 19.1037 30.0304 19.1823C30.2663 19.1823 30.4235 19.1823 30.6594 19.1823C30.9739 19.1823 31.2883 19.1823 31.6028 19.1823C31.7599 19.1823 31.9172 19.1823 32.0744 19.1823C32.3103 19.1823 32.5461 19.1823 32.7033 19.1037C32.8606 19.1037 33.0964 19.025 33.2537 19.025C33.4109 19.025 33.4895 18.9464 33.6468 18.9464C33.8039 18.9464 33.9612 18.8678 34.197 18.8678C34.4328 18.8678 34.5901 18.7892 34.8259 18.7106C35.4548 18.5534 36.0838 18.3961 36.7127 18.1603C37.3416 17.9244 37.9705 17.6886 38.5994 17.4528C38.7567 17.3741 38.9139 17.2955 39.0712 17.2169C39.2283 17.1383 39.4643 17.0597 39.6214 16.9024C39.7787 16.8239 39.9359 16.7452 40.0145 16.6666C40.1717 16.588 40.329 16.5094 40.4862 16.3521C41.0365 15.9591 41.5868 15.566 42.0585 15.0157C42.6874 14.3868 43.1591 13.6793 43.5522 12.9717C44.1811 11.7925 44.3383 10.456 44.2597 9.11962C44.2597 8.56929 44.1025 8.09762 43.9452 7.5473C43.788 7.07561 43.5522 6.68254 43.3163 6.28947C43.2377 6.13224 43.0805 6.05362 43.0019 5.89639C42.8447 5.73916 42.6088 5.58194 42.4516 5.4247C42.373 5.50332 42.1371 5.4247 41.9012 5.34609C41.6654 5.26747 41.4296 5.26747 41.1937 5.18886C41.1151 5.18886 40.9579 5.18886 40.8792 5.18886C40.5648 5.18886 40.1717 5.26747 39.8573 5.34609C39.7787 5.34609 39.6214 5.4247 39.3856 5.50332C39.1497 5.58194 38.9139 5.73916 38.6781 5.89639C38.5208 5.34609 38.3636 4.79579 38.1278 4.3241C37.8919 3.85241 37.4203 3.38073 36.9485 3.06627C36.4768 2.83042 35.9266 2.59458 35.3763 2.51596C35.219 2.51596 35.1404 2.51596 34.9832 2.51596C34.9046 2.51596 34.9046 2.51596 34.8259 2.51596C34.6687 2.51596 34.5901 2.51596 34.4328 2.59458C34.2757 2.59458 34.0398 2.67319 33.8826 2.7518C33.5681 2.83042 33.2537 2.98765 32.9392 3.14488C32.7033 3.30211 32.3889 3.45933 32.153 3.61657C31.9958 3.69518 31.8386 3.85241 31.6814 4.00964C31.5241 4.08826 31.4455 4.24548 31.3669 4.40271C31.3669 4.40271 31.3669 4.40271 31.2883 4.40271C30.9739 4.24548 30.6594 4.16687 30.2663 4.08826C30.1091 4.08826 29.9519 4.00964 29.7946 4.00964C29.6374 4.00964 29.4802 4.00964 29.2443 4.00964C29.0871 4.00964 28.8513 4.00964 28.694 4.00964C28.3795 4.08826 28.1437 4.16687 27.8293 4.24548C27.5148 4.40271 27.2004 4.55994 26.9644 4.79579C26.4928 5.18886 26.0211 5.73916 25.7853 6.36808C25.5494 6.997 25.4708 7.62592 25.4708 8.25487C25.4708 8.41204 25.4708 8.4907 25.5494 8.64787C25.5494 8.80512 25.628 8.96237 25.7066 9.11962C25.5494 9.1982 25.3922 9.1982 25.2349 9.27679C24.8419 9.43404 24.5275 9.66987 24.2916 9.98437C23.8985 10.2988 23.6627 10.6919 23.4268 11.085C23.191 11.3994 23.0338 11.8711 22.9551 12.1855C22.8765 12.3428 22.8765 12.5786 22.8765 12.7359C22.8765 12.9717 22.7979 13.2075 22.7979 13.4434C22.7979 13.9151 22.8765 14.3868 23.0338 14.7799C23.1124 15.1729 23.2696 15.4874 23.5055 15.8804C23.6627 16.1949 23.8985 16.4308 24.0557 16.6666C24.2916 16.981 24.5274 17.2169 24.8419 17.3741C25.3136 17.6886 25.628 17.8458 25.9425 18.003ZM24.8419 15.9591C24.8419 15.8804 24.7633 15.8019 24.6846 15.7232C24.8419 15.4874 25.0777 15.3302 25.3135 15.1729C25.7066 14.8584 26.0997 14.4654 26.4928 14.1509C26.65 13.9937 26.65 13.7579 26.4928 13.6793C26.4142 13.6006 26.3355 13.6006 26.2569 13.6006C26.1784 13.6006 26.0997 13.6006 26.0211 13.6793C25.628 13.9937 25.3135 14.3082 24.9205 14.6226C24.7633 14.7799 24.606 14.9371 24.4488 15.0157L24.3702 15.0943C24.3702 15.0943 24.3702 15.0157 24.2916 15.0157C24.213 14.8584 24.2129 14.7013 24.1344 14.6226C24.1344 14.3868 24.0557 14.1509 24.0557 13.9937C24.0557 13.9937 24.1344 13.9937 24.1344 13.9151C24.2129 13.8364 24.2916 13.7579 24.3702 13.6793C24.4488 13.6006 24.606 13.522 24.6846 13.3648C24.9205 13.1289 25.2349 12.8931 25.4708 12.6573C25.628 12.5 25.628 12.3428 25.4708 12.1855C25.3922 12.1069 25.3136 12.1069 25.2349 12.1069C25.1564 12.1069 25.0777 12.1069 24.9991 12.1855C24.7633 12.4214 24.4488 12.6573 24.2129 12.8931C24.1344 12.9717 24.0557 13.0504 24.0557 13.0504C24.0557 12.9717 24.0557 12.8931 24.0557 12.8144C24.0557 12.6573 24.1344 12.5 24.1344 12.4214C24.2129 12.2642 24.213 12.0284 24.2916 11.8711C24.3702 11.7139 24.3702 11.6353 24.4488 11.5566C24.5275 11.3994 24.6846 11.1635 24.7633 11.0064C24.8419 10.9277 24.9205 10.8491 24.9991 10.7705C25.0777 10.6919 25.1564 10.6133 25.3135 10.5346C25.3922 10.456 25.4708 10.3775 25.628 10.2988C25.7066 10.2202 25.8639 10.1416 26.0211 10.1416C26.0997 10.1416 26.1784 10.063 26.2569 10.063C26.4142 9.98437 26.5714 9.98437 26.7286 9.98437C26.9644 9.98437 27.1217 9.98437 27.3575 9.98437C27.5148 10.063 27.7506 10.063 27.9079 10.1416C28.0651 10.2202 28.2224 10.2988 28.3009 10.3775C28.5368 10.5346 28.694 10.7705 28.9299 11.0064C29.0084 11.1635 29.1657 11.2422 29.2443 11.3208C29.2443 11.3994 29.3229 11.478 29.3229 11.478C29.4015 11.6353 29.6374 11.7139 29.7946 11.6353C29.9519 11.5566 29.9519 11.3994 29.9519 11.2422C29.9519 11.1635 29.9519 11.1635 29.8732 11.085C29.8732 11.0064 29.8732 10.9277 29.8732 10.9277C29.8732 10.8491 29.8732 10.7705 29.8732 10.7705C29.8732 10.6919 29.7946 10.6133 29.7946 10.5346C29.716 10.3775 29.716 10.2988 29.6374 10.2202C29.5588 10.1416 29.4802 9.98437 29.4015 9.9057C29.2443 9.66987 29.0084 9.5127 28.694 9.35545C28.5368 9.27679 28.4582 9.1982 28.3009 9.1982C28.0651 9.11962 27.8293 9.04096 27.672 9.04096C27.4362 9.04096 27.2004 8.96237 26.9644 9.04096C26.9644 8.96237 26.8859 8.96237 26.8859 8.88379C26.8073 8.72654 26.7286 8.49071 26.7286 8.33346C26.7286 8.09762 26.7286 7.86176 26.7286 7.62592C26.8073 7.31146 26.8859 7.07561 26.9644 6.83977C27.0431 6.60393 27.2004 6.36808 27.3575 6.13224C27.5148 5.975 27.672 5.81778 27.8293 5.66055C28.0651 5.50332 28.3009 5.34609 28.5368 5.26747C28.7726 5.18886 28.9299 5.11025 29.1657 5.11025C29.4802 5.11025 29.716 5.11025 30.0304 5.11025C30.1091 5.11025 30.1877 5.11025 30.2663 5.11025C30.3449 5.11025 30.5021 5.18886 30.5808 5.18886C30.738 5.26747 30.8952 5.26747 31.0524 5.34609C31.2097 5.4247 31.4455 5.50332 31.6028 5.58194C31.7599 5.66055 31.9172 5.73916 31.9958 5.89639C32.2317 6.05362 32.3889 6.21085 32.6248 6.44669C32.8606 6.60393 33.175 6.60393 33.3323 6.44669C33.4895 6.28947 33.5681 5.89639 33.3323 5.73916C33.0964 5.50332 32.7819 5.26747 32.4675 5.03163C32.4675 5.03163 32.3889 5.03163 32.3889 4.95301C32.3103 4.71717 32.3889 4.71717 32.3889 4.63856C32.4675 4.55994 32.6248 4.48133 32.7033 4.40271C32.8606 4.3241 33.0178 4.16687 33.175 4.08826C33.3323 3.93102 33.5681 3.93102 33.7253 3.85241C33.8826 3.7738 34.0398 3.7738 34.197 3.69518C34.3543 3.61657 34.5115 3.61657 34.6687 3.61657C34.6687 3.61657 34.6687 3.61657 34.7473 3.61657C34.8259 3.61657 34.9046 3.61657 34.9832 3.61657C35.1404 3.61657 35.2977 3.61657 35.4548 3.61657C35.5335 3.61657 35.6121 3.61657 35.6121 3.61657C35.7693 3.61657 35.9266 3.69518 36.0838 3.7738C36.1624 3.85241 36.241 3.85241 36.3196 3.93102C36.3983 3.93102 36.4768 4.00964 36.6341 4.08826C36.7913 4.24548 36.9485 4.3241 37.0272 4.48133C37.1058 4.55994 37.1844 4.71717 37.263 4.79579C37.3416 4.8744 37.4203 5.03163 37.4203 5.11025C37.4988 5.26747 37.5774 5.50332 37.6561 5.66055C37.7347 5.975 37.8133 6.28946 37.8919 6.60393C37.8919 6.60393 37.8919 6.60393 37.8919 6.68254C37.8919 6.68254 37.8919 6.68254 37.8919 6.76115C37.7347 6.997 37.5774 7.15423 37.4988 7.39007C37.4203 7.62592 37.3416 7.78314 37.263 8.01896C37.1844 8.17621 37.263 8.33346 37.3416 8.41204C37.4203 8.49071 37.4988 8.64787 37.6561 8.64787C37.8133 8.64787 37.9705 8.64787 38.0492 8.56929C38.2064 8.4907 38.2063 8.41204 38.285 8.25487C38.285 8.17621 38.3636 8.09762 38.3636 8.01896C38.5208 7.70453 38.6781 7.46868 38.8353 7.23284C38.9139 7.15423 38.9139 7.07561 38.9925 6.997C39.1498 6.83977 39.2283 6.76115 39.3856 6.60393C39.4642 6.52531 39.5428 6.44669 39.7001 6.44669C39.7787 6.36808 39.8573 6.36808 40.0145 6.28947C39.9359 6.36808 40.0932 6.28947 40.1717 6.28947C40.2503 6.28947 40.4076 6.21085 40.4862 6.21085C40.5648 6.21085 40.7221 6.21085 40.8007 6.21085C40.9579 6.21085 41.0365 6.21085 41.1937 6.21085C41.2723 6.21085 41.351 6.21085 41.4296 6.28947C41.5082 6.28947 41.5868 6.36808 41.7441 6.36808C41.9012 6.44669 42.0585 6.52531 42.1371 6.60393C42.2157 6.68254 42.2943 6.68254 42.373 6.76115C42.4516 6.83977 42.5302 6.91838 42.6088 6.997C42.6874 7.07561 42.766 7.15423 42.766 7.23284C42.8447 7.39007 42.9232 7.5473 43.0805 7.78314C43.1591 7.94037 43.2377 8.17621 43.3163 8.33346C43.3949 8.56929 43.3949 8.80512 43.4736 8.96237C43.5522 9.5127 43.5522 10.1416 43.4736 10.6919C43.4736 10.9277 43.3949 11.1635 43.3163 11.3994C43.2377 11.7139 43.1591 11.9497 43.0019 12.2642C42.9232 12.5 42.8447 12.6573 42.6874 12.8144C42.6088 12.9717 42.5302 13.0504 42.4516 13.2075C42.2943 13.4434 42.2157 13.6006 42.0585 13.7579L42.1371 13.6793C41.9799 13.8364 41.9012 13.9937 41.7441 14.1509C41.6654 14.2295 41.5868 14.3082 41.5082 14.3868C41.4296 14.4654 41.351 14.544 41.2723 14.6226C41.1937 14.7013 41.1151 14.7799 41.0365 14.8584C40.9579 14.9371 40.8792 15.0157 40.8007 15.0943C40.8007 15.0943 40.7221 15.1729 40.6434 15.1729C40.8792 14.7799 41.1151 14.3868 41.351 13.9937C41.4296 13.8364 41.4296 13.6006 41.2723 13.522C41.1937 13.522 41.1151 13.4434 41.1151 13.4434C41.0365 13.4434 40.8792 13.522 40.8007 13.6006C40.5648 13.9937 40.329 14.3868 40.0932 14.7799C39.9359 15.0157 39.8573 15.1729 39.7001 15.4088C39.6214 15.566 39.5428 15.6446 39.4643 15.8019C39.4643 15.8804 39.3856 15.9591 39.4643 16.0377C39.3856 16.1163 39.307 16.1163 39.2283 16.1949C39.0712 16.3521 38.8353 16.4308 38.5994 16.5094C38.4423 16.588 38.2064 16.6666 38.0492 16.7452C38.3636 16.3521 38.6781 15.9591 38.9925 15.566C39.0712 15.4874 39.0712 15.4088 39.0712 15.3302C39.0712 15.2515 38.9925 15.1729 38.9139 15.0943C38.8353 15.0943 38.7567 15.0157 38.7567 15.0157H38.6781C38.5994 15.0157 38.5208 15.0943 38.4423 15.1729C37.9705 15.7232 37.5774 16.2735 37.1058 16.8239C37.0272 16.9024 37.0272 16.9024 36.9485 16.981C36.8699 17.0597 36.8699 17.1383 36.9485 17.2169C36.5555 17.3741 36.0838 17.5314 35.6907 17.6099C35.8479 17.3741 36.0838 17.1383 36.241 16.9024C36.3196 16.8239 36.3196 16.7452 36.3196 16.6666C36.3196 16.588 36.3196 16.5094 36.241 16.4308C36.1624 16.3521 36.0838 16.3521 36.0052 16.3521C35.9266 16.3521 35.8479 16.3521 35.7693 16.4308C35.5335 16.7452 35.2977 16.981 35.0618 17.2955C34.9046 17.4528 34.8259 17.5314 34.7473 17.6886C34.6687 17.7672 34.6688 17.8458 34.5901 17.9244C34.5115 17.9244 34.5115 17.9244 34.4328 17.9244C34.0398 18.003 33.7253 18.0817 33.3323 18.1603C33.0964 18.1603 32.9392 18.2389 32.7033 18.2389C32.9392 18.003 33.175 17.8458 33.4109 17.6099C33.5681 17.4528 33.5681 17.2169 33.4109 17.1383C33.3323 17.0597 33.2537 17.0597 33.175 17.0597C33.0964 17.0597 33.0178 17.0597 32.9392 17.1383C32.6248 17.3741 32.3889 17.6099 32.153 17.8458C31.9958 17.9244 31.9172 18.0817 31.7599 18.1603C31.6814 18.2389 31.6814 18.2389 31.6028 18.3175C31.5241 18.3175 31.4455 18.3175 31.2883 18.3175C31.131 18.3175 30.8952 18.3175 30.738 18.3175C30.5808 18.3175 30.4235 18.3175 30.2663 18.3175C30.1091 18.3175 29.9519 18.3175 29.8732 18.3175C30.3449 18.003 30.738 17.6099 31.2097 17.2955C31.2883 17.2169 31.2883 17.1383 31.2883 17.0597C31.2883 16.981 31.2883 16.9024 31.2097 16.8239C31.131 16.7452 31.0524 16.7452 30.9739 16.7452C30.8952 16.7452 30.8166 16.7452 30.738 16.8239C30.4235 17.0597 30.1091 17.2955 29.716 17.6099C29.4802 17.7672 29.3229 17.9244 29.0871 18.0817C29.0084 18.0817 29.0084 18.1603 29.0084 18.2389C28.9299 18.2389 28.8513 18.2389 28.7726 18.2389C28.5368 18.2389 28.3795 18.1603 28.1437 18.0817C27.9079 18.003 27.5934 17.9244 27.3575 17.8458C27.4362 17.7672 27.5934 17.6886 27.672 17.6099C28.1437 17.2955 28.5368 16.981 29.0084 16.6666C29.0871 16.588 29.0871 16.5094 29.0871 16.4308C29.0871 16.3521 29.0871 16.2735 29.0084 16.1949C28.9299 16.1163 28.8513 16.1163 28.7726 16.1163C28.694 16.1163 28.6154 16.1949 28.5368 16.1949C28.2223 16.4308 27.9079 16.6666 27.5148 16.981C27.3575 17.0597 27.2789 17.2169 27.1217 17.2955C27.0431 17.3741 26.9644 17.4528 26.8859 17.4528L26.8073 17.5314C26.8073 17.5314 26.8073 17.6099 26.7286 17.6886C26.65 17.6886 26.65 17.6099 26.5714 17.6099C26.4142 17.5314 26.2569 17.4528 26.0997 17.3741C25.9425 17.2955 25.7853 17.2169 25.7066 17.0597C25.8639 16.9024 26.0997 16.7452 26.2569 16.588C26.65 16.2735 26.9644 15.9591 27.3575 15.6446C27.5148 15.566 27.5148 15.3302 27.3575 15.1729C27.2789 15.0943 27.2004 15.0943 27.1217 15.0943C27.0431 15.0943 26.9644 15.0943 26.8859 15.1729C26.4928 15.4874 26.0997 15.8019 25.7853 16.1163C25.628 16.2735 25.3922 16.4308 25.2349 16.6666C25.1564 16.2735 24.9991 16.1163 24.8419 15.9591C24.9205 16.0377 24.9205 16.0377 24.9205 16.0377C24.8419 15.9591 24.8419 15.9591 24.8419 15.9591ZM26.65 18.3961C26.5714 18.3961 26.5714 18.3175 26.5714 18.3175C26.65 18.3961 26.65 18.3961 26.65 18.3961ZM9.59065 14.6226C9.59065 14.544 9.59065 14.544 9.59065 14.6226V14.6226ZM36.3983 25.7859C36.3983 25.6287 36.3196 25.3928 36.3196 25.2356C36.3196 24.9998 36.241 24.8425 36.241 24.6067C36.1624 24.3708 36.1624 24.2136 36.0838 23.9778C36.0838 23.8205 36.0838 23.7419 36.0052 23.5847C35.9266 23.4274 35.8479 23.3488 35.6907 23.3488H35.6121C35.4548 23.4274 35.2977 23.5847 35.3763 23.7419C35.3763 23.8205 35.3763 23.8992 35.4548 23.9778C35.4548 24.2923 35.4548 24.6067 35.4548 24.9212C35.4548 25.2356 35.4548 25.5501 35.5335 25.8645C35.6121 26.5721 35.6121 27.201 35.6907 27.9085C35.7693 28.616 35.7693 29.2449 35.8479 29.9525C35.8479 30.66 35.9266 31.2889 35.8479 31.9965C35.8479 32.2323 35.7693 32.4682 35.6907 32.704C35.6121 32.8612 35.5335 32.9398 35.4548 33.0971C35.3763 33.2543 35.219 33.3329 35.0618 33.4901C34.9046 33.6474 34.7473 33.726 34.5901 33.8046C34.4328 33.8832 34.2757 33.9618 34.1184 34.0404C33.6468 34.1976 33.2537 34.3549 32.7819 34.4335C32.3103 34.5121 31.76 34.6694 31.2883 34.748C30.8952 34.8266 30.5021 34.8266 30.1091 34.9052C29.6374 34.9052 29.2443 34.9838 28.7726 34.9838C28.3795 34.9838 27.9079 34.9838 27.5148 35.0624C27.2789 35.0624 27.1217 35.0624 26.8859 35.1411C26.65 35.1411 26.4142 35.2196 26.1784 35.2196C26.5714 34.748 26.9644 34.3549 27.3575 33.9618C27.5934 33.726 27.8293 33.5687 27.9864 33.3329C28.0651 33.2543 28.2224 33.0971 28.3009 33.0185C28.3795 32.9398 28.4582 32.7826 28.5368 32.704C28.694 32.6254 28.694 32.3896 28.6154 32.2323C28.5368 32.1537 28.4582 32.0751 28.3009 32.0751C28.2224 32.0751 28.2223 32.0751 28.1437 32.1537C28.0651 32.1537 28.0651 32.2323 27.9864 32.2323C27.9079 32.3109 27.7506 32.3109 27.672 32.3896C27.5148 32.4682 27.4362 32.6254 27.2789 32.704C27.0431 32.8612 26.8073 33.0971 26.5714 33.3329C26.0997 33.8046 25.5494 34.1976 25.0777 34.6693C24.9991 34.748 24.9205 34.9052 24.7633 34.9838C24.606 35.2196 24.3702 35.4555 24.3702 35.77C24.3702 35.9272 24.3702 36.0058 24.4488 36.1631C24.4488 36.2416 24.4488 36.2416 24.5274 36.3202C24.606 36.3989 24.606 36.4775 24.6846 36.5561C24.8419 36.6347 24.9205 36.7133 25.0777 36.8706C25.2349 36.9492 25.3136 37.0278 25.4708 37.1064C26.1784 37.4209 26.8073 37.7353 27.5148 38.0498C27.5934 38.1284 27.7506 38.0498 27.8293 37.9711C27.9079 37.8926 27.9864 37.814 28.0651 37.7353C28.0651 37.6567 28.0651 37.4995 27.9864 37.4209C27.9079 37.3422 27.8293 37.2636 27.7506 37.2636C27.672 37.1851 27.5148 37.1851 27.4362 37.1064H27.5148C27.2004 36.9491 26.8859 36.8706 26.65 36.7133C26.4142 36.5561 26.1784 36.4775 25.9425 36.3202C26.65 36.2416 27.3575 36.2416 28.0651 36.1631C28.7726 36.1631 29.4015 36.0844 30.1091 36.0058C30.8166 35.9272 31.5241 35.8486 32.2317 35.6913C32.5461 35.6127 32.8606 35.5341 33.175 35.4555C33.3323 35.3769 33.4895 35.3769 33.7253 35.2983C33.8826 35.2196 34.0398 35.1411 34.197 35.1411C34.5901 34.9838 34.9046 34.8266 35.219 34.6693C35.6121 34.5121 35.9266 34.1976 36.1624 33.9618C36.3196 33.8046 36.3983 33.726 36.4768 33.5687C36.5555 33.4115 36.6341 33.2543 36.7127 33.0971C36.7913 32.7826 36.8699 32.3896 36.8699 31.9965C36.8699 31.2889 36.7913 30.5814 36.7913 29.9525C36.7127 28.4588 36.5555 27.1223 36.3983 25.7859ZM19.9678 6.13224C19.8105 5.89639 19.5747 5.66055 19.3389 5.4247C19.1816 5.18886 18.9458 5.03163 18.71 4.79579C18.6313 4.71717 18.5527 4.63856 18.4741 4.55994C18.3955 4.48133 18.3955 4.48133 18.3169 4.48133C18.2382 4.48133 18.2382 4.40271 18.1596 4.40271C18.1596 4.40271 18.1596 4.40271 18.081 4.40271C18.0024 4.40271 18.0024 4.3241 17.9238 4.3241C17.8452 4.3241 17.688 4.40271 17.6093 4.48133C17.5307 4.63856 17.5307 4.79579 17.688 4.95301C17.7665 5.18886 18.0024 5.26747 18.1596 5.4247C18.3169 5.58194 18.4741 5.81778 18.6313 5.975C18.71 6.13224 18.7885 6.28947 18.9458 6.36808C17.688 6.21085 16.3515 6.13224 15.0151 6.05362C14.7792 6.05362 14.5434 6.05362 14.3076 6.05362C13.9145 6.05362 13.5214 6.05362 13.1283 6.05362C12.4994 6.05362 11.7918 6.13224 11.1629 6.13224C10.8485 6.13224 10.534 6.21085 10.2196 6.21085C9.98373 6.21085 9.7479 6.28947 9.51206 6.28947C9.35482 6.28947 9.19757 6.36808 9.04032 6.36808C8.96173 6.36808 8.88315 6.44669 8.80449 6.44669C8.7259 6.44669 8.56865 6.52531 8.49007 6.60393C8.4114 6.60393 8.4114 6.68254 8.33282 6.68254C8.33282 6.91838 8.25415 6.997 8.25415 7.07561C8.17557 7.23284 8.09698 7.39007 8.09698 7.5473C8.09698 7.78314 8.09698 8.01896 8.09698 8.25487C8.09698 8.56929 8.09698 8.96237 8.09698 9.27679C8.09698 9.9057 8.09698 10.5346 8.17557 11.1635C8.17557 11.8711 8.33282 12.5786 8.4114 13.2862C8.4114 13.522 8.49007 13.6793 8.56865 13.9151C8.64724 14.1509 8.80449 14.3868 8.88307 14.6226C8.88307 14.7013 8.96173 14.7799 8.96173 14.8584C9.04032 15.0157 9.27615 15.0943 9.4334 15.0157C9.59065 14.9371 9.66923 14.7013 9.59065 14.544C9.59065 14.544 9.59065 14.4654 9.51206 14.4654C9.51206 14.2295 9.51207 13.9151 9.4334 13.6793C9.4334 13.4434 9.35482 13.2075 9.35482 12.9717C9.27615 12.1069 9.19757 11.2422 9.19757 10.3775C9.19757 9.5127 9.11898 8.64787 9.27615 7.78314C9.27615 7.70453 9.27615 7.70453 9.27615 7.62592C9.27615 7.62592 9.27615 7.62592 9.27615 7.5473C9.27615 7.5473 9.27615 7.5473 9.35482 7.46868C9.4334 7.39007 9.51206 7.39007 9.59065 7.31146C9.98373 7.15423 10.4554 7.07561 10.8485 6.997H10.7699C13.6 6.68253 16.5087 6.91838 19.2602 7.23284C19.3389 7.23284 19.4175 7.23284 19.4961 7.15423C19.4961 7.15423 19.4961 7.23284 19.4175 7.23284C19.103 7.5473 18.7885 7.86176 18.3955 8.17621C18.0024 8.41204 17.688 8.72654 17.2949 8.96237C17.2163 9.04096 17.1376 9.11962 17.1376 9.1982C17.1376 9.27679 17.1376 9.35545 17.1376 9.5127C17.2163 9.66987 17.4521 9.74854 17.6093 9.66987C17.9238 9.43404 18.1596 9.27679 18.4741 9.04096C18.71 8.88379 19.0244 8.64787 19.2602 8.4907C19.4961 8.33346 19.8105 8.09762 20.0464 7.94037C20.2036 7.78314 20.4395 7.62592 20.518 7.39007C20.5967 7.15423 20.518 6.91838 20.3609 6.68254C20.3609 6.52531 20.125 6.36808 19.9678 6.13224Z" fill="black"/>
</g>
<defs>
<clipPath id="clip0_9_341">
<rect width="45.5215" height="50.3132" fill="white"/>
</clipPath>
</defs>
</svg>
