<svg width="52" height="51" viewBox="0 0 52 51" fill="none" xmlns="http://www.w3.org/2000/svg">
<g clip-path="url(#clip0_9_354)">
<path d="M37.9147 2.72005C37.9946 2.72005 38.0747 2.72005 38.1546 2.72005C38.3146 2.80004 38.4746 2.80004 38.5545 2.80004C38.7945 2.88003 39.0345 2.96002 39.2745 3.04C39.4345 3.11999 39.5944 3.19998 39.6744 3.27997C39.8344 3.35996 39.9144 3.43995 40.0743 3.59992C40.1543 3.67991 40.2344 3.75991 40.3143 3.8399C40.3943 3.99987 40.5543 4.07986 40.6342 4.23984C40.7943 4.39982 40.8742 4.55979 41.0342 4.79976C41.1142 4.95973 41.1942 5.1997 41.2742 5.35968C41.4341 5.67963 41.5142 5.99959 41.5941 6.31955C41.6741 6.71949 41.7542 7.11943 41.8341 7.59936C41.8341 7.83933 42.1541 7.99928 42.394 7.91932C42.474 7.91932 42.634 7.83933 42.634 7.75934C42.714 7.67935 42.714 7.51937 42.714 7.43938C42.634 6.79948 42.474 6.15957 42.234 5.51965C41.9941 4.95973 41.8341 4.39982 41.4341 3.91989C41.3542 3.8399 41.2742 3.67991 41.1942 3.59992C41.1142 3.43995 40.9543 3.35996 40.8742 3.19998C40.7943 2.96002 40.5543 2.80004 40.3943 2.64006C40.0743 2.4001 39.6744 2.24012 39.2745 2.08014C39.1145 2.00016 38.7945 2.00016 38.5545 1.92017C38.3946 1.92017 38.3146 1.92017 38.1546 1.92017C38.0747 1.92017 37.9946 1.92017 37.9946 1.92017C37.7546 1.92017 37.5947 2.08014 37.5947 2.32011C37.5147 2.56007 37.7547 2.72005 37.9147 2.72005ZM50.6328 27.5166C50.4729 27.1966 50.3929 26.7966 50.2329 26.4767C50.0729 26.1568 49.913 25.9168 49.753 25.6768C49.753 25.5969 49.673 25.5969 49.673 25.5168C49.593 25.3569 49.4331 25.2768 49.353 25.1969C49.1931 25.0369 48.8732 24.8769 48.6332 24.7169C48.3932 24.637 48.2332 24.557 47.9932 24.477C47.7532 24.397 47.5933 24.397 47.3533 24.397C47.2734 24.397 47.1134 24.397 47.0334 24.397C46.7934 24.397 46.5535 24.397 46.2335 24.477C45.9936 24.477 45.7536 24.557 45.5136 24.7169C45.4336 24.7169 45.3536 24.7169 45.3536 24.797C45.1937 24.8769 45.1136 25.1169 45.1937 25.3569C45.2736 25.5168 45.5136 25.5969 45.7536 25.5168C45.8335 25.5168 45.9135 25.5168 46.0735 25.4369C46.3135 25.4369 46.4734 25.3569 46.7134 25.3569C46.8734 25.3569 46.9534 25.3569 47.1134 25.3569C47.2734 25.3569 47.4333 25.3569 47.5933 25.4369C47.7532 25.4369 47.8333 25.5168 47.9932 25.5168C48.1532 25.5168 48.3132 25.5969 48.4732 25.6768C48.6332 25.7568 48.7131 25.8368 48.8732 25.9168C48.9531 25.9968 49.1131 26.1568 49.1931 26.3167C49.513 26.7966 49.753 27.3566 49.993 27.9965C50.0729 28.2365 50.1529 28.4764 50.2329 28.7164C50.3129 29.1163 50.4729 29.5963 50.5529 29.9962C50.6328 30.2362 50.8728 30.3962 51.0328 30.3162C51.2728 30.2362 51.3528 29.9962 51.3528 29.8363C51.0328 29.0364 50.8728 28.2365 50.6328 27.5166ZM1.99972 37.6751C1.75975 36.7952 1.51979 35.8354 1.35981 34.9555C1.27982 34.5556 1.19983 34.1556 1.03985 33.7557C0.959865 33.5157 0.959865 33.2758 0.879875 33.1158C0.879875 32.9558 0.799884 32.8758 0.799884 32.7159C0.799884 32.4759 0.559922 32.3958 0.399944 32.3958H0.319955C0.239966 32.3958 0.159978 32.4759 0.0799884 32.5558C1.78506e-08 32.7159 0 32.7958 0 32.8758C0 33.0358 1.78506e-08 33.1158 0.0799884 33.2758C0.0799884 33.5157 0.159978 33.7557 0.239966 33.9956C0.319955 34.3956 0.399944 34.7955 0.559922 35.1955C0.799884 36.0753 0.959865 37.0352 1.19983 37.9151C1.27982 38.155 1.51979 38.315 1.75975 38.2351C1.91973 38.2351 2.07971 37.9151 1.99972 37.6751ZM12.0783 13.1986C12.1583 13.5186 12.2383 13.7585 12.3982 13.9985C12.4782 14.2384 12.7982 14.3184 13.0382 14.1584C13.1182 14.0785 13.1981 13.9985 13.2781 13.9185C13.2781 13.7585 13.2781 13.6785 13.2781 13.5985V13.5186C13.1981 13.3585 13.1182 13.1986 13.1182 12.9586C13.0382 12.7986 13.0382 12.6386 13.0382 12.4787C13.0382 12.1587 13.0382 11.8387 13.1182 11.5188C13.1981 11.2788 13.1981 11.0389 13.2781 10.7989C13.3581 10.5589 13.4381 10.319 13.5181 10.0791C13.6781 9.6791 13.9181 9.3591 14.078 9.03917C14.3179 8.71924 14.478 8.39923 14.7179 8.0793L14.7979 7.99928C14.7979 7.99928 14.7179 7.99928 14.7179 8.0793C14.7979 7.99928 14.8779 7.91932 14.8779 7.83933C14.8779 7.75934 14.8779 7.59936 14.8779 7.51937C14.7979 7.35939 14.638 7.27941 14.478 7.27941C14.398 7.27941 14.3179 7.27941 14.3179 7.3594C14.238 7.43938 14.158 7.51937 14.078 7.59936C13.998 7.67935 13.9181 7.75934 13.8381 7.83933C13.6781 7.99928 13.5181 8.15925 13.4381 8.39923C13.1182 8.8792 12.8782 9.27915 12.6382 9.83907C12.5583 10.079 12.4782 10.319 12.3183 10.5589C12.2383 10.7989 12.1583 11.0389 12.1583 11.2788C12.0783 11.6788 11.9983 12.1587 12.0783 12.5587C11.9983 12.7986 11.9983 12.9586 12.0783 13.1986ZM50.3129 46.4739C50.2329 46.4739 50.2329 46.4739 50.1529 46.4739C49.993 46.4739 49.753 46.6339 49.753 46.7938C49.593 47.1938 49.4331 47.5937 49.273 47.9937C49.273 48.0737 49.1931 48.1536 49.1931 48.1536C49.1131 48.3136 49.0331 48.4736 48.8732 48.6336C48.7931 48.7135 48.7131 48.7936 48.6332 48.8736C48.5531 48.9535 48.3932 49.0336 48.3132 49.0336C47.9932 49.1135 47.7532 49.1935 47.4333 49.2735C47.1134 49.3535 46.7934 49.3535 46.5535 49.3535C46.0735 49.3535 45.6735 49.4335 45.1937 49.4335C44.9537 49.4335 44.7137 49.4335 44.3938 49.4335C44.2338 49.4335 43.9938 49.4335 43.8338 49.4335C43.5939 49.4335 43.4339 49.5935 43.4339 49.8335C43.4339 50.0734 43.5939 50.2333 43.8338 50.2333C43.9938 50.2333 44.2338 50.3133 44.3938 50.3133C44.7137 50.3133 45.0337 50.3133 45.3536 50.3133C45.9936 50.3133 46.6334 50.2333 47.1933 50.1534C47.5133 50.1534 47.8333 50.0734 48.1532 49.9934C48.2332 49.9934 48.3132 49.9934 48.3132 49.9134C48.4732 49.9134 48.5531 49.8335 48.7131 49.7534C48.8731 49.6734 49.0331 49.5935 49.1131 49.5134C49.2731 49.4335 49.4331 49.2735 49.593 49.1135C49.913 48.7936 50.0729 48.3136 50.3129 47.9137C50.4729 47.5937 50.5529 47.1938 50.7129 46.8738C50.7129 46.7938 50.5529 46.5539 50.3129 46.4739Z" fill="black"/>
<path d="M46.3134 47.6733C46.8733 47.6733 47.5932 47.7532 48.0732 47.4333C48.473 47.1933 48.5531 46.7134 48.713 46.3934C48.793 45.9936 48.873 45.5936 48.873 45.1937C48.953 44.3938 48.953 43.6739 48.953 42.874C48.953 41.9141 49.033 40.9543 48.873 39.9944C48.873 39.8344 48.713 39.6744 48.6331 39.5144C48.5531 39.3544 48.3931 39.1945 48.2331 39.1945C48.0732 39.1145 47.9131 39.0345 47.7532 39.0345C47.5932 39.0345 47.4332 39.0345 47.2733 39.0345C46.8733 39.0345 46.4734 39.1145 46.0734 39.1145C45.8334 39.1145 45.5934 39.1145 45.2735 39.1945C45.2735 38.8746 45.1936 38.4746 45.1936 38.1546C45.1135 37.7546 45.0335 37.3548 44.7936 36.9548C44.7936 36.9548 44.7936 36.9548 44.7936 36.8748C45.1135 36.8748 45.4335 36.7948 45.7535 36.7948C46.1534 36.7148 46.5533 36.7148 47.0333 36.6348C47.1932 36.6348 47.3532 36.5549 47.5132 36.5549C47.6732 36.5549 47.9131 36.4749 48.0732 36.3949C48.3931 36.3149 48.6331 36.1549 48.873 36.0749C49.193 35.9149 49.353 35.515 49.433 35.1951C49.5129 35.0351 49.5129 34.8751 49.5129 34.7151C49.5129 34.6351 49.5129 34.5551 49.5129 34.3952C49.5129 33.9952 49.5129 33.6753 49.5129 33.2753C49.5129 32.4754 49.433 31.6755 49.353 30.7957C49.353 30.3957 49.2729 29.9158 49.193 29.5158C49.193 29.4359 49.113 29.3559 49.113 29.1959C49.033 29.0359 49.033 28.876 48.953 28.7959C48.953 28.716 48.873 28.636 48.793 28.556C48.713 28.476 48.6331 28.316 48.5531 28.236C48.4731 28.236 48.4731 28.156 48.3931 28.156C48.2331 28.0761 48.1531 27.996 47.9931 27.9161C47.7532 27.5961 47.5132 27.5961 47.1932 27.5161H47.1133C46.8733 27.5161 46.7133 27.5161 46.4734 27.5961C46.3134 27.5961 46.1534 27.5961 45.9934 27.6761C45.5135 27.6761 45.1135 27.7561 44.6336 27.8361C43.8338 27.9161 43.0339 27.996 42.234 28.0761C41.594 28.156 40.9542 28.236 40.3142 28.316C40.3142 28.316 40.3942 28.316 40.3942 28.236C40.5542 28.0761 40.6342 27.9161 40.6342 27.7561C40.5542 26.9562 40.4742 26.2363 40.3942 25.4365C40.3142 25.0365 40.3142 24.7165 40.2342 24.3165C40.2342 24.0766 40.1543 23.9166 40.1543 23.6767C40.1543 23.5967 40.1543 23.5167 40.1543 23.4367C40.1543 23.1967 40.0742 22.9567 39.9943 22.7968C39.8343 22.5569 39.6743 22.3169 39.4344 22.2368C39.1944 22.0769 38.9544 22.0769 38.6345 22.0769C38.4745 22.0769 38.3145 22.0769 38.0746 22.0769C37.9145 22.0769 37.6746 22.0769 37.5147 22.0769C36.7148 22.0769 35.9149 22.1569 35.115 22.2368C34.3151 22.3169 33.5152 22.3968 32.6353 22.3968C31.7555 22.4768 30.9556 22.5569 30.0756 22.5569C29.2757 22.5569 28.5559 22.5569 27.756 22.6368C27.756 22.5569 27.756 22.4768 27.756 22.4768C27.676 21.757 27.596 21.037 27.596 20.3171C27.596 19.9972 27.5161 19.5972 27.5161 19.2773C27.5161 19.1173 27.436 18.8774 27.436 18.7174C27.436 18.5574 27.356 18.4774 27.2761 18.3174V18.2374C27.2761 18.2374 27.2761 18.1574 27.1961 18.1574C27.5161 18.1574 27.836 18.1574 28.1559 18.1574C28.9558 18.1574 29.7557 18.0775 30.6356 17.9974C31.2755 17.9175 31.9154 17.8375 32.5553 17.6775C33.1952 17.5975 33.7551 17.4375 34.3151 17.2776C34.6351 17.1975 34.955 17.1176 35.2749 16.9576C35.5949 16.8776 35.9149 16.7176 36.2348 16.5577C36.9547 16.2377 37.5946 15.7578 38.1545 15.2778C38.4745 14.9579 38.7144 14.638 39.0344 14.3179C39.2743 13.998 39.5143 13.5981 39.6743 13.1981C39.8343 12.8782 39.9143 12.4782 39.9943 12.1583C40.0742 11.7584 40.1543 11.3584 40.1543 10.8784C40.1543 10.4785 40.1543 9.9986 40.0742 9.59865C39.9943 9.27872 39.9943 8.95871 39.8343 8.63878C39.7543 8.31885 39.5943 7.99885 39.5143 7.67892C39.3544 7.35896 39.2743 7.11899 39.1144 6.79904C38.8744 6.3991 38.5545 5.91917 38.1545 5.59922C37.9145 5.35925 37.6746 5.19927 37.4346 5.03929C37.1946 4.87931 36.8747 4.79932 36.6347 4.71933C36.3148 4.63935 35.9948 4.55936 35.7549 4.55936C35.6749 4.55936 35.6749 4.55936 35.5949 4.55936C35.5149 4.55936 35.5149 4.55936 35.4349 4.55936C35.2749 4.39938 35.2749 4.31939 35.195 4.2394C35.115 3.99944 34.955 3.75947 34.795 3.5995C34.475 3.11956 34.0751 2.71961 33.6752 2.31967C33.4352 2.07971 33.2752 1.91973 33.0353 1.75975C32.9552 1.67977 32.8753 1.59978 32.7153 1.51979C32.5553 1.4398 32.4753 1.27982 32.3154 1.19983C32.0754 1.03985 31.8354 0.879875 31.5954 0.799884C31.1155 0.479932 30.5556 0.319955 29.9157 0.159978C29.5958 0.0799884 29.3558 0.0799884 29.0358 0C28.8759 0 28.7959 0 28.6359 0C28.3959 0 28.2359 0 27.996 0C27.356 0.0799884 26.7162 0.239966 26.1562 0.479932C25.5963 0.719898 25.1164 0.959865 24.6365 1.35981C24.3965 1.51979 24.1565 1.75975 23.9165 1.99972C23.7565 2.1597 23.5966 2.39966 23.4366 2.63963C23.2767 2.7996 23.1966 3.03957 23.1167 3.19955C23.0367 3.19955 23.0367 3.11956 22.9566 3.11956C22.7967 3.03957 22.6367 3.03957 22.4767 2.95958C22.3168 2.95958 22.1567 2.87959 21.9968 2.87959C21.8368 2.7996 21.5968 2.7996 21.3569 2.7996C21.197 2.7996 21.1169 2.7996 20.957 2.7996C20.797 2.7996 20.637 2.7996 20.477 2.7996C20.317 2.7996 20.237 2.87959 20.077 2.87959C19.6771 2.95958 19.3572 3.11956 18.9572 3.27954C18.3973 3.51951 17.9974 3.83946 17.5974 4.31939C17.1975 4.79932 16.9575 5.35925 16.7975 5.91917C16.5576 6.55908 16.4776 7.19898 16.5576 7.8389C16.5576 8.15889 16.6375 8.3988 16.7176 8.7188C16.7176 8.79875 16.7975 8.87877 16.7975 8.95871C16.3976 9.03873 16.0776 9.1987 15.7577 9.35866C15.4377 9.51862 15.1978 9.75861 14.9578 10.0786C14.7178 10.3185 14.5578 10.6385 14.3979 10.9585C14.3179 11.1184 14.3179 11.3584 14.2379 11.5184C14.2379 11.6783 14.2379 11.9183 14.1579 12.0783C14.1579 12.2383 14.1579 12.4782 14.2379 12.6382C14.2379 12.8782 14.3979 13.1981 14.4778 13.4381C14.6379 13.6781 14.7178 13.9181 14.8778 14.078C15.0378 14.238 15.1978 14.398 15.3577 14.638C15.7577 15.0379 16.1576 15.3578 16.6375 15.6778C17.0375 15.9978 17.5175 16.2377 17.9974 16.3977C18.1573 16.4777 18.3173 16.5577 18.5573 16.6376C18.7172 16.7176 18.9572 16.7977 19.1972 16.8776C19.4372 16.9576 19.5972 17.0376 19.8371 17.0376C20.077 17.1176 20.317 17.1975 20.557 17.1975C20.957 17.2776 21.3569 17.3576 21.7569 17.4375C22.1567 17.5175 22.6367 17.5975 23.0367 17.6775C23.4366 17.7575 23.9165 17.7575 24.3165 17.8375C24.7964 17.9175 25.2763 17.9175 25.7563 17.9175C25.9963 17.9175 26.2362 17.9175 26.5562 17.9175L26.4762 17.9974V18.0775C26.3962 18.2374 26.3962 18.3974 26.3962 18.5574C26.3962 18.7174 26.3962 18.8774 26.3162 19.0373C26.3162 19.4373 26.3162 19.7572 26.3162 20.1572C26.3162 20.877 26.3961 21.6769 26.5562 22.3968C26.0762 22.3968 25.5163 22.3968 25.0363 22.3968C23.4366 22.3968 21.8368 22.3968 20.237 22.4768C19.4372 22.4768 18.5573 22.4768 17.7574 22.5569C16.9575 22.5569 16.1576 22.6368 15.3577 22.6368C14.5578 22.6368 13.7579 22.7168 12.958 22.7968C12.7981 22.7968 12.5581 22.7968 12.3981 22.8768C12.1582 22.8768 11.9982 22.9567 11.7583 23.0368C11.5982 23.1168 11.4383 23.1967 11.3583 23.2767C11.2783 23.3567 11.1984 23.5167 11.1183 23.5967C11.0383 23.7566 11.0383 23.9166 10.9584 24.0766C10.9584 24.3165 10.9584 24.5565 10.9584 24.7965C11.0383 25.5164 11.1183 26.2363 11.2783 26.8762C11.3583 27.1961 11.4383 27.5961 11.4383 27.9161C11.4383 27.996 11.5183 28.156 11.5183 28.236C11.1984 28.236 10.9584 28.236 10.6384 28.316C9.83855 28.316 9.03865 28.316 8.23875 28.396C7.8388 28.396 7.35886 28.476 6.95892 28.476C6.63897 28.476 6.31901 28.556 5.91907 28.556C5.7591 28.556 5.59912 28.7159 5.51913 28.876C5.11918 28.876 4.79923 28.9559 4.39928 28.9559C4.23931 28.9559 4.07933 29.0359 3.91935 29.0359C3.83937 29.0359 3.83936 29.0359 3.75938 29.0359C3.5994 29.1159 3.51941 29.1159 3.35943 29.1959C3.27944 29.1959 3.19945 29.2759 3.19945 29.3559C3.11946 29.4359 3.03947 29.5158 2.95948 29.5958C2.87949 29.6759 2.79951 29.8358 2.79951 29.9158C2.71952 30.0757 2.71952 30.1558 2.71952 30.3157C2.63953 30.7957 2.71952 31.2756 2.79951 31.7556C2.79951 32.1555 2.87949 32.5555 2.87949 32.9553C2.95948 33.7552 3.03947 34.6351 3.19945 35.435C3.27944 35.8349 3.35943 36.3149 3.51941 36.7148C3.67939 37.1148 3.83937 37.5147 4.23931 37.7546C4.39928 37.9147 4.55926 37.9946 4.71924 38.0747C4.9592 38.1546 5.27916 38.2346 5.51913 38.2346H5.59912V38.3146C5.59912 38.3946 5.59912 38.5545 5.51913 38.6346C5.51913 38.7145 5.51913 38.8746 5.51913 38.9545C5.51913 39.4345 5.59912 39.8344 5.67911 40.3143C5.67911 40.3143 5.67911 40.3143 5.67911 40.3943C5.35915 40.4743 5.11918 40.4743 4.79923 40.5543C4.71924 40.5543 4.63925 40.5543 4.55926 40.5543C4.47927 40.5543 4.39928 40.5543 4.3193 40.5543C3.99934 40.7943 3.83937 40.9543 3.91935 41.1942C3.83937 41.1942 3.75938 41.1942 3.67939 41.1942C3.51941 41.1942 3.35943 41.2742 3.19945 41.2742C3.03947 41.2742 2.8795 41.3542 2.63953 41.3542C2.47955 41.3542 2.39956 41.4341 2.23959 41.5142C2.07961 41.5142 1.99962 41.5941 1.91963 41.6741C1.59968 41.9141 1.4397 42.234 1.4397 42.634C1.4397 42.874 1.4397 43.114 1.51969 43.2739C1.59968 43.6739 1.59968 44.1538 1.67967 44.5537C1.83965 45.3536 2.07961 46.1535 2.31958 46.8734C2.47955 47.2733 2.63953 47.6733 2.79951 48.0733C2.87949 48.2332 3.03947 48.3932 3.11946 48.5531C3.27944 48.7131 3.43942 48.8731 3.5994 49.0331C3.67939 49.0331 3.75938 49.1131 3.75938 49.1131C3.91935 49.1931 3.99934 49.1931 4.15932 49.273C4.39928 49.353 4.63925 49.4331 4.87921 49.4331C5.27916 49.513 5.67911 49.513 6.07905 49.513C6.47899 49.513 6.87893 49.513 7.27887 49.513C8.15872 49.513 8.95863 49.513 9.83855 49.4331C10.6384 49.4331 11.4383 49.4331 12.3182 49.353C14.078 49.273 15.8376 49.273 17.6774 49.1931C18.0774 49.1931 18.4773 49.1931 18.7973 49.1131C19.1172 49.1131 19.4372 49.0331 19.6771 48.9531C20.1571 48.8732 20.557 48.6332 20.8769 48.3132C21.1969 47.9133 21.2769 47.4333 21.3569 47.0334C21.4369 46.6334 21.4369 46.1535 21.5169 45.7536C21.5968 44.9537 21.5968 44.1538 21.5968 43.3539C21.5968 42.9539 21.5968 42.554 21.5968 42.1541C21.5968 41.8341 21.5968 41.5941 21.5169 41.2742C21.5169 41.0342 21.4369 40.7943 21.3569 40.6342C21.2769 40.5543 21.2769 40.3943 21.1969 40.3143C21.1169 40.2344 21.0369 40.1543 20.957 40.0743C20.8769 40.0743 20.8769 39.9944 20.797 39.9944C20.717 39.9144 20.557 39.9144 20.3971 39.8344C20.317 39.8344 20.237 39.8344 20.237 39.8344C20.1571 39.8344 19.9971 39.8344 19.9171 39.8344C19.7571 39.8344 19.5972 39.8344 19.3572 39.8344C19.1972 39.8344 19.1172 39.8344 18.9572 39.8344C18.6373 39.8344 18.3173 39.8344 18.0774 39.8344C17.9974 39.8344 17.8374 39.8344 17.7574 39.8344C17.8374 39.7544 17.9174 39.6744 17.9174 39.5144C17.9174 39.4345 17.9174 39.2745 17.9174 39.1945C17.9174 38.8746 17.8374 38.6346 17.7574 38.3146C17.7574 38.1546 17.6774 37.9946 17.5974 37.7546C17.5974 37.7546 17.5974 37.7546 17.5974 37.6747C17.5974 37.5947 17.5974 37.5947 17.5175 37.5947C17.5974 37.5947 17.5974 37.5947 17.6774 37.5947C18.4773 37.4347 19.2772 37.3548 20.077 37.1148C20.317 37.0348 20.477 37.0348 20.717 36.8748C20.797 36.8748 20.8769 36.7948 20.8769 36.7948C20.957 36.7148 21.0369 36.6348 21.1169 36.5549C21.2769 36.4749 21.3569 36.2349 21.3569 36.0749C21.3569 35.995 21.3569 35.995 21.4369 35.9149C21.4369 35.755 21.4369 35.675 21.5169 35.515C21.5169 35.355 21.5169 35.1951 21.5169 34.9551C21.5169 34.7151 21.5169 34.4752 21.5169 34.2352C21.5169 33.4353 21.4369 32.6354 21.3569 31.9155C21.2769 31.0356 21.197 30.1558 20.957 29.2759C20.957 29.1959 20.957 29.1959 20.8769 29.1159C20.8769 29.0359 20.797 28.876 20.717 28.7959C20.637 28.716 20.637 28.636 20.557 28.556C20.477 28.476 20.3971 28.316 20.237 28.236C20.1571 28.236 20.1571 28.156 20.077 28.156C19.9171 28.0761 19.8371 27.996 19.6771 27.996C19.4372 27.9161 19.1972 27.9161 18.9572 27.9161C18.8773 27.9161 18.8773 27.9161 18.7973 27.9161C18.6373 27.9161 18.5573 27.9161 18.3973 27.9161C18.1573 27.9161 17.9174 27.9161 17.6774 27.9161C16.7975 27.996 15.9977 27.996 15.1178 28.0761C14.1579 28.156 13.198 28.156 12.2382 28.236C12.2382 28.0761 12.2382 27.9161 12.2382 27.7561C12.2382 27.3562 12.1582 27.0362 12.0782 26.6362C11.9982 25.9163 11.9982 25.1164 11.9982 24.3966V24.3165C12.0782 24.3165 12.0782 24.2366 12.1582 24.2366C12.8781 23.9166 13.678 23.8367 14.4778 23.6767C14.8778 23.5967 15.3577 23.5967 15.7577 23.5167C16.1576 23.5167 16.6375 23.4367 17.0375 23.4367C17.9174 23.4367 18.7973 23.3567 19.6771 23.3567C21.3569 23.3567 23.0367 23.3567 24.7164 23.2767C26.4762 23.2767 28.1559 23.1967 29.9157 23.1967C30.7956 23.1967 31.5954 23.1967 32.4753 23.1967C33.2752 23.1967 34.1551 23.1967 34.955 23.1967C35.4349 23.1967 35.9149 23.1967 36.3947 23.1967C36.8747 23.1967 37.3546 23.1967 37.8346 23.2767C37.9945 23.2767 38.0746 23.3567 38.2345 23.3567C38.2345 23.4367 38.3145 23.4367 38.3145 23.5167C38.4745 23.8367 38.4745 24.2366 38.5545 24.6366C38.6345 25.0365 38.6345 25.5164 38.6345 25.9163C38.6345 26.4763 38.6345 26.9562 38.6345 27.5161C38.6345 27.8361 38.7944 28.0761 39.0344 28.156C38.1545 28.236 37.3546 28.316 36.4748 28.476C35.9948 28.556 35.5949 28.556 35.115 28.716C34.875 28.7959 34.6351 28.7959 34.3951 28.876C34.2351 28.876 34.1551 28.876 34.0751 28.9559H33.9951C33.5952 28.9559 33.1952 29.0359 32.8753 29.1159C32.7953 29.1159 32.7153 29.1159 32.6353 29.1959C32.5553 29.1959 32.4753 29.2759 32.3154 29.2759C32.1553 29.3559 32.0754 29.3559 31.9154 29.4359C31.8354 29.4359 31.7555 29.5158 31.7555 29.5158C31.6754 29.5958 31.5954 29.6759 31.4355 29.7558C31.3555 29.8358 31.2755 29.9158 31.1955 30.0757C31.1155 30.1558 31.1155 30.3157 31.1155 30.3957C31.0355 30.7157 31.1155 31.0356 31.1955 31.3556C31.1955 31.5156 31.2755 31.7556 31.2755 31.9155C31.3555 32.3155 31.4355 32.7154 31.5155 33.0353C31.7555 33.9152 31.9954 34.7151 32.3953 35.435C32.5553 35.675 32.7153 35.8349 32.8753 35.995C33.0353 36.1549 33.2752 36.3149 33.4352 36.3949C33.5152 36.3949 33.5952 36.4749 33.6752 36.4749C33.8352 36.5549 33.9951 36.5549 34.0751 36.6348C34.1551 36.6348 34.2351 36.7148 34.3951 36.7148C34.555 36.7948 34.795 36.7948 34.955 36.7948H35.0349C35.0349 36.8748 34.955 36.8748 34.955 36.9548V37.0348C34.795 37.5147 34.795 37.9946 34.875 38.4746C34.875 38.8746 35.195 39.1145 35.5149 39.1145C35.6749 39.1145 35.8348 39.0345 35.9948 38.9545C36.0748 38.8746 36.1548 38.7945 36.1548 38.6346C36.1548 38.5545 36.1548 38.3946 36.1548 38.3146C36.0748 37.8347 35.9948 37.3548 35.7549 36.9548C35.7549 36.9548 35.7549 36.8748 35.6749 36.8748C36.4748 36.9548 37.1946 36.9548 37.9945 36.9548C38.8744 36.9548 39.7543 36.8748 40.5542 36.7948C41.594 36.7148 42.5539 36.6348 43.5938 36.5549V36.6348C43.5938 36.7148 43.5938 36.7148 43.5137 36.7948C43.5137 36.9548 43.4338 37.1148 43.4338 37.1947C43.4338 37.4347 43.4338 37.5947 43.4338 37.8347C43.4338 38.1546 43.5137 38.5545 43.5137 38.8746C42.5539 38.9545 41.594 39.0345 40.6342 39.1145C39.5143 39.1945 38.3945 39.1945 37.2747 39.2745C36.7148 39.2745 36.0748 39.2745 35.5149 39.3545C35.0349 39.3545 34.555 39.4345 34.0751 39.4345C34.0751 39.4345 34.0751 39.4345 34.1551 39.4345C33.9151 39.4345 33.7551 39.5144 33.6752 39.6744C33.4352 39.6744 33.1952 39.6744 32.9552 39.6744C32.5553 39.6744 32.2354 39.6744 31.8354 39.7544C31.5954 39.7544 31.3555 39.8344 31.1955 39.8344C31.0355 39.8344 30.8755 39.9944 30.7156 40.0743C30.6356 40.0743 30.6356 40.1543 30.5556 40.1543C30.4756 40.2344 30.3957 40.3143 30.3957 40.3943C30.3156 40.4743 30.3156 40.6342 30.3156 40.7143C30.3156 40.7943 30.3156 40.9542 30.3156 41.0342C30.3156 41.1142 30.3156 41.2742 30.3156 41.4341C30.3156 41.5142 30.3156 41.5941 30.3156 41.6741C30.3156 41.9141 30.3957 42.0741 30.3957 42.3141C30.4756 42.714 30.5556 43.114 30.6356 43.5138C30.7956 44.2338 30.9556 44.9537 31.2755 45.6735C31.3555 45.9135 31.5155 46.1535 31.5954 46.3934C31.5954 46.4734 31.6754 46.4734 31.6754 46.5535C31.7555 46.7134 31.9154 46.7934 31.9954 46.9534C32.3154 47.2733 32.7953 47.3533 33.1952 47.4333C33.6752 47.4333 34.1551 47.4333 34.6351 47.5133C35.5149 47.5133 36.3148 47.5133 37.1946 47.5133C38.7944 47.5133 40.4742 47.5133 42.074 47.5933C42.9538 47.5933 43.7537 47.5933 44.6336 47.6733C45.5135 47.5933 45.9134 47.6733 46.3134 47.6733ZM25.3563 16.9576C25.5163 16.7977 25.6763 16.7176 25.8362 16.5577C26.0762 16.3977 26.3162 16.1577 26.5562 15.9177C26.7162 15.7578 26.7162 15.4379 26.5562 15.2778C26.4762 15.1979 26.3162 15.1178 26.2362 15.1178C26.1562 15.1178 25.9963 15.1979 25.9163 15.1979C25.5963 15.5178 25.1964 15.7578 24.7964 16.0777C24.6365 16.2377 24.3965 16.3177 24.2365 16.4777C24.1565 16.5577 24.0765 16.6376 23.9965 16.7176L23.9165 16.7977C23.5166 16.7977 23.1167 16.7176 22.6367 16.7176C22.4767 16.7176 22.2368 16.6376 22.0768 16.6376C22.1567 16.5577 22.3168 16.4777 22.3967 16.3977C22.7167 16.1577 23.0367 15.8378 23.3566 15.5978C23.5166 15.4379 23.5166 15.1178 23.3566 14.9579C23.2766 14.8779 23.1966 14.7979 23.0367 14.7979C22.9566 14.7979 22.7967 14.8779 22.7167 14.8779C22.3967 15.1178 22.0768 15.4379 21.7569 15.6778C21.5968 15.8378 21.4369 15.9978 21.2769 16.1577C21.1969 16.2377 21.1169 16.3177 21.0369 16.3177C21.0369 16.3177 21.0369 16.3177 20.957 16.3977C21.0369 16.3977 20.8769 16.3977 20.797 16.3977C20.477 16.3177 20.237 16.2377 19.9171 16.1577C20.077 16.0777 20.237 15.9177 20.317 15.7578C20.637 15.4379 20.957 15.1979 21.2769 14.8779C21.4369 14.7179 21.4369 14.398 21.2769 14.238C21.1969 14.158 21.0369 14.078 20.957 14.078C20.8769 14.078 20.717 14.158 20.637 14.158C20.317 14.478 19.9971 14.7179 19.6771 15.0379C19.5171 15.1979 19.3572 15.3578 19.1972 15.5178C19.1972 15.5978 19.1972 15.6778 19.1172 15.6778L19.0372 15.7578C18.9572 15.7578 18.8773 15.6778 18.8773 15.6778H18.9572C18.9572 15.6778 18.8773 15.6778 18.8773 15.5978C18.6373 15.5178 18.4773 15.4379 18.2373 15.2778C18.0774 15.1979 17.9174 15.1178 17.7574 15.0379C17.9174 14.8779 18.0774 14.7179 18.3173 14.5579C18.6373 14.238 18.9572 13.9181 19.2772 13.6781C19.4372 13.5181 19.4372 13.1981 19.2772 13.0382C19.1972 12.9582 19.0372 12.8782 18.9572 12.8782C18.8773 12.8782 18.7172 12.9582 18.6373 13.0382C18.3173 13.2781 17.9974 13.5981 17.7574 13.9181C17.5974 14.078 17.5175 14.158 17.3574 14.3179C17.2775 14.398 17.1975 14.478 17.0375 14.5579C16.9575 14.478 16.8775 14.478 16.7975 14.398C16.6375 14.238 16.4776 14.158 16.3176 13.998C16.1576 13.8381 16.0776 13.758 15.9977 13.5981C15.9977 13.5981 15.9977 13.5981 15.9977 13.5181L16.0776 13.4381C16.2376 13.3581 16.3176 13.1981 16.4776 13.0382C16.7975 12.7182 17.0375 12.4782 17.3574 12.1583C17.5175 11.9983 17.5175 11.6783 17.3574 11.5184C17.2775 11.4384 17.1175 11.3584 17.0375 11.3584C16.9575 11.3584 16.7975 11.3584 16.7176 11.4384C16.3976 11.7584 16.1576 11.9983 15.8376 12.3183C15.7577 12.3982 15.5977 12.5583 15.5177 12.6382C15.4377 12.4782 15.4377 12.3183 15.3577 12.1583C15.3577 11.9983 15.3577 11.8383 15.3577 11.6783C15.3577 11.4384 15.4377 11.2784 15.5177 11.1184C15.5977 10.9585 15.6777 10.7985 15.8376 10.6385C15.9177 10.4785 16.0776 10.3985 16.2376 10.2386C16.3976 10.1586 16.5576 10.0786 16.7176 9.91857C16.8775 9.83863 17.1175 9.83863 17.2775 9.75861C17.3574 9.75861 17.4374 9.75861 17.5175 9.75861C17.7574 9.75861 17.9174 9.75861 18.1573 9.75861C18.2373 9.75861 18.3973 9.83863 18.4773 9.83863C18.5573 9.83863 18.7172 9.91857 18.7973 9.9986C18.9572 10.0786 19.1972 10.1586 19.3572 10.2386C19.3572 10.2386 19.3572 10.3185 19.4372 10.3185C19.5972 10.4785 19.7571 10.5585 19.9971 10.4785C20.1571 10.3985 20.2371 10.0786 20.1571 9.91857C20.077 9.83863 20.077 9.75861 19.9971 9.75861C19.9971 9.67867 19.9171 9.67867 19.9171 9.59865C19.8371 9.51862 19.7571 9.35866 19.6771 9.27872C19.5972 9.1987 19.5171 9.1987 19.4372 9.11875C19.3572 9.03873 19.1972 8.95871 19.0372 8.87877C18.7172 8.7188 18.3973 8.7188 18.0774 8.63878C17.9974 8.63878 17.9974 8.63878 17.9174 8.63878C17.9174 8.47882 17.8374 8.23883 17.8374 8.07887C17.8374 7.91889 17.8374 7.75891 17.8374 7.67892C17.8374 7.43895 17.8374 7.19898 17.8374 6.95902C17.9174 6.63906 17.9974 6.23912 18.1573 5.91917C18.3173 5.6792 18.3973 5.35925 18.6373 5.11928C18.7973 4.87931 18.9572 4.71933 19.1972 4.55936C19.4372 4.39938 19.5972 4.31939 19.8371 4.15941C19.9971 4.07943 20.1571 4.07943 20.317 3.99944C20.477 3.91945 20.717 3.91945 20.8769 3.91945C21.0369 3.91945 21.197 3.91945 21.3569 3.91945C21.5169 3.91945 21.7569 3.91945 21.9168 3.91945C22.2368 3.99944 22.4768 3.99944 22.7167 4.07943C22.6367 4.15941 22.6367 4.31939 22.5567 4.39938C22.3967 4.71933 22.3967 4.87931 22.3168 5.03929C22.2368 5.27925 22.1567 5.51923 22.1567 5.75919C22.0768 6.07914 22.2368 6.3991 22.5567 6.47909C22.8767 6.55908 23.2766 6.3991 23.3566 6.07915C23.4366 5.75919 23.5166 5.51923 23.5966 5.19927C23.6766 4.9593 23.7565 4.79932 23.8366 4.55936C23.9965 4.31939 24.0765 4.07943 24.2365 3.83946C24.3965 3.5995 24.5564 3.43952 24.6365 3.19955C24.9564 2.87959 25.2763 2.55964 25.5963 2.23968C25.9163 1.99972 26.3162 1.75975 26.6361 1.59978C26.8761 1.51979 27.1161 1.4398 27.356 1.35981C27.596 1.27982 27.756 1.27982 27.996 1.19983C28.2359 1.19983 28.4759 1.19983 28.7158 1.11984C28.9558 1.11984 29.1158 1.11984 29.3558 1.11984C29.8357 1.19983 30.2356 1.27982 30.6356 1.4398C30.9556 1.59978 31.1955 1.67977 31.4355 1.83974C31.6754 1.99972 31.9154 2.1597 32.1553 2.31967C32.3953 2.47965 32.6353 2.71961 32.8753 2.87959C33.1152 3.03957 33.2752 3.27954 33.5152 3.51951C33.6752 3.67948 33.9151 3.91945 34.0751 4.15941C34.1551 4.2394 34.3151 4.39938 34.3951 4.47937C33.7551 4.63934 33.1952 4.87931 32.7153 5.19927C32.4753 5.35925 32.3953 5.6792 32.4753 5.99916C32.6353 6.23912 32.9552 6.31911 33.2752 6.23912C33.4352 6.15913 33.6752 5.99916 33.9151 5.91917C34.2351 5.75919 34.6351 5.6792 35.0349 5.59922C35.2749 5.59922 35.5949 5.59922 35.8348 5.59922C36.0748 5.6792 36.3148 5.6792 36.5548 5.83918C36.7947 5.91917 37.0347 6.07915 37.1946 6.23912C37.4346 6.47909 37.6746 6.71905 37.9145 6.95902C38.0746 7.11899 38.1545 7.35896 38.3145 7.51894C38.3945 7.67892 38.4745 7.91889 38.6345 8.07887C38.7144 8.23883 38.7144 8.31885 38.7944 8.47882C38.8744 8.63878 38.8744 8.7188 38.9544 8.87877C39.0344 9.11875 39.1144 9.43868 39.1144 9.67867C39.1144 9.91857 39.1944 10.1586 39.1944 10.3985C39.1944 10.6385 39.1944 10.8784 39.1944 11.1184C39.1944 11.3584 39.1144 11.5984 39.0344 11.8383C38.9544 12.0783 38.8744 12.2383 38.7944 12.4782C38.7144 12.6382 38.6345 12.7982 38.5545 12.9582C38.3945 13.1981 38.2345 13.4381 38.0746 13.6781C37.9945 13.758 37.9145 13.9181 37.7546 13.998C37.5946 14.238 37.3546 14.398 37.1147 14.638C36.7947 14.8779 36.4748 15.1178 36.0748 15.2778C36.3148 15.0379 36.4748 14.7979 36.7148 14.478C36.7947 14.398 36.7947 14.238 36.7947 14.158C36.7947 14.078 36.7148 13.9181 36.6347 13.9181C36.3148 13.998 36.2348 13.998 36.1548 13.998H36.0748C35.9149 13.998 35.8348 14.078 35.8348 14.158C35.6749 14.398 35.5149 14.5579 35.2749 14.7979L35.3549 14.7179C35.0349 15.1178 34.715 15.5178 34.3951 15.9177L34.3151 15.9978C34.3151 15.9978 34.3151 16.0777 34.2351 16.1577C34.0751 16.2377 33.8352 16.3177 33.6752 16.3177C33.3552 16.3977 33.0353 16.4777 32.7153 16.5577C32.6353 16.5577 32.5553 16.5577 32.4753 16.6376C32.5553 16.5577 32.5553 16.5577 32.6353 16.4777C32.9552 16.0777 33.2752 15.7578 33.5952 15.3578C33.6752 15.2778 33.7551 15.1979 33.7551 15.0379C33.7551 14.9579 33.7551 14.7979 33.6752 14.7179C33.5952 14.638 33.4352 14.5579 33.3552 14.5579C33.2752 14.5579 33.1152 14.5579 33.0353 14.7179C32.7153 15.1178 32.3953 15.4379 31.9954 15.8378C31.8354 15.9978 31.6754 16.1577 31.5954 16.3177C31.5155 16.3977 31.4355 16.4777 31.3555 16.5577L31.2755 16.6376C31.2755 16.6376 31.2755 16.7176 31.1955 16.7176C30.5556 16.7977 29.9157 16.8776 29.2757 16.8776C29.3558 16.7977 29.3558 16.7977 29.4358 16.7176C29.6757 16.3977 29.9957 16.0777 30.2356 15.7578C30.3957 15.5978 30.3156 15.2778 30.0756 15.1178C29.9957 15.0379 29.9157 15.0379 29.8357 15.0379H29.7557C29.5958 15.0379 29.5958 15.1178 29.5157 15.1979C29.2757 15.5178 29.0358 15.8378 28.7158 16.1577C28.5559 16.3177 28.4759 16.4777 28.3959 16.6376C28.3959 16.7176 28.3159 16.7977 28.3159 16.7977C28.1559 16.7977 27.996 16.7977 27.756 16.7977C26.7961 17.0376 26.0762 16.9576 25.3563 16.9576ZM19.6771 47.5933C19.6771 47.6733 19.6771 47.6733 19.6771 47.5933V47.5933ZM19.6771 47.5933L19.7571 47.5133C19.7571 47.5933 19.7571 47.5933 19.6771 47.5933ZM19.8371 41.2742C19.9171 41.2742 19.9971 41.3542 20.1571 41.3542C20.1571 41.3542 20.1571 41.3542 20.237 41.3542C20.237 41.3542 20.237 41.4341 20.317 41.4341C20.3971 41.5941 20.3971 41.6741 20.3971 41.8341C20.477 42.9539 20.3971 44.0738 20.317 45.1937C20.317 45.4336 20.237 45.6735 20.237 45.9135C20.237 45.9936 20.237 45.9936 20.237 46.0735C20.237 46.1535 20.237 46.1535 20.237 46.2335V46.3135C20.237 46.2335 20.237 46.1535 20.237 46.1535C20.1571 46.5535 20.077 46.9534 19.9971 47.3533C19.9971 47.4333 19.9171 47.4333 19.9171 47.5133L19.8371 47.5933C19.7571 47.6733 19.6771 47.6733 19.5972 47.6733C19.4372 47.7532 19.2771 47.7532 19.1972 47.8333C19.1972 47.8333 19.1972 47.8333 19.2772 47.7532C19.3572 47.6733 19.4372 47.5933 19.4372 47.4333C19.4372 47.3533 19.4372 47.1933 19.3572 47.1134C19.2772 47.0334 19.1972 46.9534 19.0372 46.9534C18.9572 46.9534 18.7973 46.9534 18.7172 47.0334C18.5573 47.2733 18.3973 47.4333 18.1573 47.6733C18.0774 47.7532 18.0774 47.8333 18.0774 47.9133C17.6774 47.9133 17.3574 47.9932 16.9575 47.9932C17.0375 47.9133 17.1175 47.8333 17.1975 47.7532C17.2775 47.6733 17.2775 47.5133 17.2775 47.4333C17.2775 47.3533 17.1975 47.1933 17.1175 47.1134C17.0375 47.0334 16.9576 47.0334 16.8775 47.0334H16.7975C16.6375 47.0334 16.6375 47.1134 16.5576 47.1933C16.3976 47.4333 16.2376 47.5933 16.0776 47.8333C16.0776 47.9133 15.9977 47.9932 15.9977 47.9932C15.3577 47.9932 14.7978 48.0733 14.1579 48.0733C14.3179 47.9133 14.3979 47.8333 14.5578 47.6733C14.7178 47.5133 14.7178 47.1933 14.5578 47.0334C14.4778 46.9534 14.3179 46.8734 14.2379 46.8734C14.1579 46.8734 13.9979 46.8734 13.9179 47.0334C13.598 47.3533 13.198 47.7532 12.8781 48.0733C12.5581 48.0733 12.1582 48.0733 11.8382 48.0733C11.5982 48.0733 11.4383 48.0733 11.1984 48.0733C11.3583 47.9133 11.4383 47.8333 11.5982 47.6733C11.7583 47.5133 11.7583 47.1933 11.5982 47.0334C11.5183 46.9534 11.3583 46.8734 11.2783 46.8734C11.1984 46.8734 11.0383 46.9534 10.9584 47.0334C10.7184 47.2733 10.4784 47.4333 10.3184 47.6733C10.1585 47.8333 10.0785 47.9133 9.91849 48.0733C9.27863 48.0733 8.55868 48.0733 7.91879 47.9932C7.99876 47.9133 8.07878 47.8333 8.15872 47.7532C8.47873 47.4333 8.71864 47.1134 9.03865 46.7934C9.19861 46.6334 9.19861 46.3135 9.03865 46.1535C8.95863 46.0735 8.79866 45.9936 8.71864 45.9936C8.6387 45.9936 8.47873 45.9936 8.39871 46.1535C7.91879 46.7134 7.35886 47.2733 6.95892 47.8333L7.03891 47.7532C6.95892 47.8333 6.95892 47.9133 6.87893 47.9133C6.47899 47.9133 6.07905 47.8333 5.67911 47.8333C5.59912 47.8333 5.51913 47.8333 5.51913 47.8333C5.59912 47.6733 5.7591 47.5933 5.83908 47.4333C6.15904 47.0334 6.399 46.7134 6.71896 46.3135C6.399 46.3935 6.31901 46.0735 6.07905 45.9936C5.99906 45.9135 5.91907 45.9135 5.83908 45.9135C5.67911 45.9135 5.51913 45.9936 5.43914 46.1535C5.11918 46.5535 4.87921 46.9534 4.55926 47.3533C4.47927 47.5133 4.3193 47.6733 4.23931 47.8333C4.15932 47.7532 4.07933 47.6733 3.99934 47.5933C3.83937 47.3533 3.67939 47.0334 3.51941 46.7934C3.67939 46.6334 3.75938 46.5535 3.91935 46.3934C4.15932 46.1535 4.39928 45.8335 4.55926 45.5936C4.71924 45.4336 4.63925 45.1136 4.39928 44.9537C4.3193 44.8736 4.23931 44.8736 4.15932 44.8736C3.99934 44.8736 3.83936 44.9537 3.75938 45.1136C3.5994 45.3536 3.35943 45.5936 3.11946 45.9135C3.11946 45.8335 3.11946 45.8335 3.11946 45.7536C3.03947 45.4336 2.95948 45.1136 2.95948 44.7137C3.19945 44.4737 3.27944 44.3938 3.35943 44.2338C3.43942 44.1538 3.51941 44.0738 3.51941 43.9138C3.51941 43.8338 3.51941 43.6739 3.43942 43.5939C3.35943 43.5138 3.27944 43.4339 3.11946 43.4339C3.03947 43.4339 3.03947 43.5138 2.95948 43.5138C2.95948 43.2739 2.87949 43.0339 2.95948 42.794C3.03947 42.714 3.11946 42.714 3.19945 42.634C3.91935 42.394 4.71924 42.234 5.51913 42.1541C6.31901 42.0741 7.03891 41.9941 7.8388 41.9941C8.15873 41.9941 8.47873 41.7541 8.47873 41.3542V41.2742C9.83855 41.1942 11.1183 41.1142 12.4782 41.1142C13.7579 41.1142 15.0378 41.0342 16.3176 41.1142C16.9575 41.1142 17.5974 41.1142 18.2373 41.1942C18.6373 41.1942 19.2771 41.1942 19.8371 41.2742ZM16.7975 37.8347C16.7975 37.9147 16.7176 37.9147 16.7176 37.9946C16.6375 38.1546 16.6375 38.2346 16.6375 38.3946C16.6375 38.7145 16.6375 39.0345 16.6375 39.3545C16.6375 39.5144 16.7176 39.6744 16.7975 39.8344C16.7975 39.8344 16.8775 39.8344 16.8775 39.9144C16.3976 39.9144 15.9977 39.9144 15.5177 39.9944C13.678 40.0743 11.8382 40.1543 9.99851 40.2344C9.11859 40.3143 8.15872 40.3143 7.27887 40.3943C7.1189 40.3943 7.03891 40.3943 6.87893 40.3943C6.87893 40.3143 6.87893 40.2344 6.87893 40.1543C6.79894 39.7544 6.71896 39.3544 6.63897 38.9545C6.55898 38.7945 6.55898 38.5545 6.47899 38.3946C6.87893 38.3946 7.27887 38.3946 7.67882 38.3946C9.35858 38.3946 10.9584 38.2346 12.6381 38.1546C13.518 38.0747 14.3179 38.0747 15.1978 37.9946C15.6777 37.9147 16.2376 37.8347 16.7975 37.8347ZM20.077 35.675L20.1571 35.595C20.1571 35.675 20.077 35.675 20.077 35.675ZM15.8376 29.3559C16.8775 29.3559 17.9974 29.3559 19.0372 29.4359C19.1972 29.4359 19.2771 29.4359 19.4372 29.5158H19.5171C19.5171 29.5158 19.5972 29.5158 19.5972 29.5958C19.5972 29.5158 19.5171 29.5158 19.5171 29.4359C19.5972 29.5158 19.5972 29.5958 19.6771 29.6758C19.7571 29.7558 19.7571 29.8358 19.8371 29.9158C19.9971 30.3157 20.077 30.7957 20.1571 31.1956C20.2371 31.9155 20.317 32.6354 20.317 33.3553C20.317 34.0752 20.317 34.7951 20.237 35.515C20.237 35.595 20.237 35.595 20.237 35.675V35.755C20.1571 35.8349 20.077 35.8349 19.9971 35.9149C19.9171 35.995 19.7571 35.995 19.6771 35.995C19.6771 35.8349 19.6771 35.755 19.5972 35.675C19.5171 35.595 19.3572 35.515 19.2772 35.515C19.1972 35.515 19.0372 35.515 18.9572 35.675C18.7973 35.9149 18.5573 36.0749 18.3973 36.3149L18.3173 36.3949C17.8374 36.4749 17.3574 36.5549 16.8775 36.6348C16.9576 36.5549 17.0375 36.4749 17.1175 36.3949C17.1975 36.3149 17.2775 36.2349 17.2775 36.0749C17.2775 35.995 17.2775 35.8349 17.1175 35.755C17.0375 35.675 16.8775 35.595 16.7975 35.595C16.7176 35.595 16.5576 35.595 16.4776 35.755C16.2376 35.995 15.9977 36.2349 15.8376 36.4749L15.7577 36.5549C15.6777 36.5549 15.6777 36.6348 15.6777 36.7148C15.0378 36.7948 14.3179 36.8748 13.678 36.8748C13.9979 36.6348 14.3179 36.3149 14.5578 35.995C14.7178 35.8349 14.7178 35.595 14.5578 35.355C14.4778 35.275 14.3179 35.1951 14.2379 35.1951C14.1579 35.1951 13.9979 35.1951 13.9179 35.275C13.598 35.595 13.2781 35.9149 12.958 36.1549C12.7981 36.3149 12.6381 36.4749 12.4782 36.6348C12.3981 36.7148 12.3182 36.7948 12.2382 36.8748C11.8382 36.8748 11.5183 36.8748 11.1183 36.8748C11.0383 36.8748 10.8784 36.8748 10.7984 36.8748C11.1183 36.5549 11.4383 36.2349 11.7583 35.9149C11.9182 35.755 11.9182 35.435 11.7583 35.275C11.6783 35.1951 11.5183 35.115 11.4383 35.115C11.3583 35.115 11.1984 35.115 11.1183 35.1951C10.7984 35.515 10.5584 35.755 10.2385 36.0749C9.99851 36.3149 9.75853 36.5549 9.51854 36.7948C9.11859 36.7948 8.6387 36.7948 8.23875 36.7948C8.15873 36.7948 8.15873 36.7948 8.07878 36.7948C8.39871 36.4749 8.6387 36.1549 8.95863 35.9149C9.11859 35.755 9.11859 35.435 8.95863 35.275C8.87868 35.1951 8.71864 35.115 8.6387 35.115C8.55868 35.115 8.39871 35.115 8.31877 35.1951C7.99876 35.515 7.75881 35.8349 7.43885 36.1549C7.27887 36.3149 7.1189 36.5549 6.87893 36.7148C6.47899 36.7148 6.07905 36.7148 5.59912 36.6348C5.51913 36.6348 5.51913 36.6348 5.43914 36.6348C5.59912 36.4749 5.7591 36.3149 5.91907 36.1549C6.31901 35.755 6.63897 35.435 7.03891 35.0351C7.19889 34.8751 7.19889 34.6351 7.03891 34.3952C6.95892 34.3151 6.79894 34.2352 6.71896 34.2352C6.63897 34.2352 6.47899 34.2352 6.399 34.3151C6.07905 34.6351 5.7591 34.9551 5.43914 35.275C5.19917 35.515 4.9592 35.755 4.79923 35.995C4.71924 35.9149 4.71924 35.8349 4.63925 35.755C4.55926 35.515 4.47927 35.1951 4.39928 34.8751H4.47927C4.47927 34.8751 4.47927 34.7951 4.55926 34.7951C4.71924 34.6351 4.79923 34.5551 4.87921 34.3952C5.19917 33.9952 5.51913 33.5953 5.83908 33.2753C5.91907 33.1953 5.91907 33.0353 5.91907 32.9553C5.91907 32.8754 5.83908 32.7154 5.7591 32.7154C5.67911 32.6354 5.59912 32.6354 5.51913 32.6354H5.43914C5.27916 32.6354 5.27916 32.7154 5.19917 32.7954C4.9592 33.1154 4.71924 33.4353 4.39928 33.7552L4.3193 33.8352C3.99934 33.6753 3.99934 33.1953 3.91935 32.6354C4.15932 32.3954 4.3193 32.1555 4.55926 31.9955C4.71924 31.8355 4.71924 31.5956 4.55926 31.3556C4.47927 31.2756 4.3193 31.1956 4.23931 31.1956C4.15932 31.1956 3.99934 31.1956 3.91935 31.2756C3.91935 31.0356 3.91935 30.8756 3.91935 30.6356V30.5557C3.99934 30.5557 3.99934 30.4757 4.07933 30.4757C4.3193 30.3957 4.63925 30.3157 4.9592 30.2358C5.43914 30.1558 5.83908 30.1558 6.31901 30.1558C6.87893 30.1558 7.51885 30.1558 8.07878 30.1558C8.39871 30.1558 8.71864 29.9158 8.71864 29.5158C8.79866 29.5158 8.87868 29.5158 9.03865 29.5158C9.99851 29.5158 10.8784 29.5158 11.8382 29.4359C11.9182 29.5158 12.0782 29.5958 12.2382 29.5158C12.3182 29.5158 12.3182 29.4359 12.3981 29.3559C12.4782 29.3559 12.4782 29.3559 12.5581 29.3559C13.598 29.4359 14.7178 29.3559 15.8376 29.3559ZM12.2382 24.5565C12.2382 24.4766 12.2382 24.4766 12.2382 24.5565V24.5565ZM40.8741 35.8349C40.6342 35.8349 40.3942 35.8349 40.1543 35.8349C40.3142 35.675 40.4742 35.515 40.6342 35.355C40.7142 35.275 40.7941 35.1951 40.7941 35.0351C40.7941 34.8751 40.7941 34.7951 40.6342 34.7151C40.5542 34.6351 40.3942 34.5551 40.3142 34.5551C40.2342 34.5551 40.0742 34.5551 39.9943 34.7151C39.6743 35.0351 39.3544 35.435 39.0344 35.8349C39.0344 35.8349 39.0344 35.8349 39.0344 35.9149C38.4745 35.9149 37.9145 35.9149 37.4346 35.8349C37.4346 35.8349 37.4346 35.755 37.5147 35.755C37.6746 35.515 37.9145 35.1951 38.0746 34.9551C38.2345 34.7951 38.1545 34.4752 37.9145 34.3151C37.8346 34.2352 37.7546 34.2352 37.6746 34.2352C37.5147 34.2352 37.3546 34.3151 37.2747 34.4752C37.0347 34.8751 36.7947 35.275 36.4748 35.675V35.755C36.3148 35.755 36.1548 35.755 35.9948 35.755C35.8348 35.755 35.6749 35.675 35.5149 35.675C35.3549 35.675 35.2749 35.595 35.115 35.595C35.5149 35.115 35.9149 34.6351 36.2348 34.1552C36.3947 33.9952 36.3148 33.6753 36.0748 33.5153C35.9948 33.4353 35.9149 33.4353 35.8348 33.4353C35.6749 33.4353 35.5149 33.5153 35.4349 33.6753C35.195 33.9952 34.875 34.3952 34.6351 34.7151C34.475 34.8751 34.3951 35.0351 34.2351 35.275L34.1551 35.1951C34.0751 35.115 33.9151 34.9551 33.8352 34.8751C33.7551 34.7151 33.6752 34.5551 33.5952 34.3952C33.5952 34.3952 33.5952 34.3151 33.5152 34.3151C33.5152 34.3151 33.5952 34.3151 33.5952 34.2352C33.5952 34.2352 33.5952 34.3151 33.5152 34.3151C33.5952 34.1552 33.7551 33.9952 33.9151 33.8352C34.1551 33.5153 34.3951 33.2753 34.555 32.9553C34.715 32.7954 34.6351 32.4754 34.3951 32.3155C34.3151 32.2354 34.2351 32.2354 34.1551 32.2354H34.0751C33.9151 32.2354 33.9151 32.3155 33.8352 32.3954C33.5952 32.6354 33.4352 32.9553 33.1952 33.2753C33.1952 33.1953 33.1152 33.1154 33.1152 33.1154C33.0353 32.7954 32.9552 32.3954 32.9552 32.0755C32.8753 31.6755 32.8753 31.2756 32.8753 30.7957V30.7157C32.8753 30.7157 32.8753 30.7157 32.9552 30.6356C33.0353 30.6356 33.1152 30.5557 33.1952 30.5557C33.4352 30.4757 33.5952 30.3957 33.8352 30.3957C34.1551 30.3157 34.475 30.3157 34.795 30.2358C34.875 30.2358 34.955 30.1558 35.0349 30.0757C35.115 29.9958 35.195 29.9158 35.195 29.7558C35.5949 29.7558 35.9948 29.6758 36.3947 29.6758C36.8747 29.5958 37.3546 29.5958 37.8346 29.5158C38.8744 29.3559 39.9943 29.2759 41.0341 29.1959C42.074 29.1159 43.0339 29.0359 44.0737 28.9559C44.5536 28.9559 45.0335 28.9559 45.5135 28.876C46.0734 28.876 46.6333 28.876 47.1932 28.9559C47.2733 28.9559 47.4332 29.0359 47.5132 29.0359C47.5132 29.0359 47.5932 29.0359 47.5932 29.1159L47.6732 29.1959C47.7532 29.2759 47.7532 29.3559 47.8332 29.4359C47.9131 29.6758 47.9931 29.8358 47.9931 30.0757C47.9931 30.1558 47.9931 30.2358 48.0732 30.3157C48.1531 30.9557 48.1531 31.6755 48.2331 32.3155C48.2331 32.9553 48.2331 33.5953 48.1531 34.2352C48.1531 34.3952 48.0732 34.4752 48.0732 34.6351C48.0732 34.6351 48.0732 34.6351 48.0732 34.7151L47.9931 34.7951C47.9131 34.8751 47.8332 34.8751 47.7532 34.9551C47.2733 35.1951 46.7134 35.275 46.1534 35.355C46.3933 35.115 46.5533 34.8751 46.7933 34.5551C46.8733 34.4752 46.8733 34.3151 46.8733 34.2352C46.8733 34.1552 46.7933 33.9952 46.6333 33.9152C46.5533 33.8352 46.4734 33.8352 46.3933 33.8352H46.3134C46.1534 33.8352 46.0734 33.9152 45.9934 34.0752C45.8334 34.3151 45.5934 34.6351 45.4335 34.8751C45.3535 35.0351 45.2735 35.115 45.1936 35.275C45.1135 35.355 45.1135 35.435 45.0335 35.515C44.3937 35.595 43.8338 35.595 43.1938 35.675C43.3538 35.515 43.4338 35.435 43.5938 35.275C43.7537 35.115 43.7537 34.7951 43.5938 34.6351C43.5137 34.5551 43.3538 34.4752 43.2738 34.4752C43.1938 34.4752 43.0339 34.4752 42.9538 34.6351C42.7138 34.8751 42.4739 35.115 42.1539 35.435C42.074 35.515 41.994 35.595 41.834 35.755L41.754 35.8349C41.5141 35.755 41.1941 35.8349 40.8741 35.8349ZM39.8343 46.4734C39.9943 46.3135 40.0742 46.2335 40.2342 46.0735C40.3942 45.9135 40.3942 45.6735 40.2342 45.4336C40.1543 45.3536 39.9943 45.2736 39.9143 45.2736C39.8343 45.2736 39.6743 45.2736 39.5943 45.3536C39.3544 45.5936 39.1944 45.7536 38.9544 45.9936C38.8744 46.0735 38.7944 46.1535 38.7944 46.2335C38.7144 46.3135 38.7144 46.3135 38.6345 46.3934C38.1545 46.3934 37.6746 46.3934 37.1946 46.3934C37.0347 46.3934 36.8747 46.3934 36.7148 46.3934C36.8747 46.2335 37.0347 46.0735 37.1946 45.9135C37.3546 45.7536 37.3546 45.5136 37.1946 45.2736C37.1147 45.1937 36.9547 45.1136 36.8747 45.1136C36.7947 45.1136 36.6347 45.1136 36.5548 45.1937C36.2348 45.5136 35.9149 45.9135 35.5949 46.2335C35.5949 46.2335 35.5949 46.2335 35.6749 46.1535C35.6749 46.1535 35.6749 46.1535 35.5949 46.2335C35.115 46.2335 34.555 46.1535 34.0751 46.0735C34.3151 45.7536 34.555 45.4336 34.795 45.1937C34.955 45.0337 34.875 44.7137 34.6351 44.5537C34.555 44.4737 34.475 44.4737 34.3951 44.4737H34.3151C34.1551 44.4737 34.1551 44.5537 34.0751 44.6337C33.9151 44.8736 33.6752 45.1136 33.5152 45.3536C33.4352 45.4336 33.3552 45.5936 33.2752 45.6735C33.1952 45.5936 33.1952 45.5936 33.1152 45.5136C33.0353 45.3536 32.9552 45.2736 32.8753 45.1136C32.8753 45.0337 32.7953 44.9537 32.7953 44.8736C32.7153 44.7137 32.7153 44.6337 32.7153 44.4737C32.7953 44.3938 32.8753 44.3938 32.8753 44.3137C32.9552 44.2338 33.0353 44.1538 33.0353 43.9938C33.1952 43.8338 33.2752 43.5939 33.4352 43.4339C33.5952 43.2739 33.5152 42.9539 33.2752 42.874C33.1952 42.794 33.1152 42.794 33.0353 42.794C32.8753 42.794 32.7153 42.874 32.6353 42.9539C32.5553 43.114 32.4753 43.2739 32.3154 43.4339C32.3154 43.2739 32.2354 43.1939 32.2354 43.0339C32.2354 42.714 32.1553 42.394 32.1553 42.0741C32.1553 41.7542 32.0754 41.4341 32.1553 41.1142C32.2354 41.1142 32.3953 41.0342 32.4753 41.0342C32.5553 41.0342 32.5553 41.0342 32.6353 41.0342C33.8352 40.8742 35.115 40.8742 36.3148 40.8742C36.6347 40.8742 36.8747 40.6342 36.9547 40.3143C37.1147 40.3143 37.2747 40.3143 37.4346 40.3143C38.5545 40.3143 39.6743 40.2344 40.8741 40.2344C41.994 40.2344 43.1138 40.1543 44.2337 40.1543C44.7936 40.1543 45.2735 40.1543 45.8334 40.1543C46.3933 40.1543 46.8733 40.1543 47.4332 40.2344V40.3143C47.5132 40.4743 47.5132 40.5543 47.5132 40.7143C47.5132 40.7943 47.5132 40.8742 47.5132 40.9543V40.8742C47.5932 41.5142 47.5132 42.0741 47.5132 42.714C47.5132 43.2739 47.4332 43.8338 47.3532 44.3938C47.2733 44.9537 47.1932 45.5136 46.9533 46.0735C46.7933 46.1535 46.5533 46.1535 46.3933 46.2335C45.8334 46.3135 45.2735 46.3135 44.6336 46.3135C44.7136 46.1535 44.7936 45.9135 44.6336 45.7536C44.5536 45.6735 44.3937 45.5936 44.3136 45.5936C44.2337 45.5936 44.0737 45.5936 43.9937 45.7536C43.8338 45.9135 43.7537 46.0735 43.5938 46.2335C43.5938 46.2335 43.5938 46.2335 43.5137 46.3135V46.3934C43.1938 46.3934 42.9538 46.3934 42.6339 46.3934C42.7939 46.2335 42.7939 45.9936 42.6339 45.8335C42.5539 45.7536 42.3939 45.6735 42.314 45.6735C42.234 45.6735 42.074 45.6735 41.994 45.7536C41.834 45.9135 41.754 45.9936 41.594 46.1535C41.5141 46.2335 41.5141 46.3135 41.4341 46.3135C41.0341 46.3135 40.7142 46.3135 40.3142 46.3135C40.2342 46.4734 39.9943 46.4734 39.8343 46.4734Z" fill="black"/>
<path d="M43.5138 32.3957C43.5138 32.4756 43.5138 32.5557 43.5138 32.6357C43.5138 32.7156 43.5938 32.7956 43.5938 32.9556C43.6738 33.0356 43.6738 33.1156 43.7537 33.1956C43.9137 33.3556 44.0738 33.4355 44.2337 33.5155C44.3937 33.5955 44.4736 33.5955 44.6337 33.5955C44.7936 33.5955 44.9536 33.5955 45.1936 33.5955C45.2735 33.5955 45.4335 33.5955 45.5135 33.5155C45.5935 33.5155 45.6735 33.4355 45.8334 33.4355C45.9135 33.3556 45.9935 33.3556 46.0734 33.2755C46.1535 33.1956 46.2334 33.1156 46.3134 33.0356C46.3934 32.9556 46.4734 32.8756 46.4734 32.7156C46.5534 32.6357 46.5534 32.5557 46.5534 32.4756C46.6333 32.2357 46.5534 31.9957 46.4734 31.6758C46.3934 31.4358 46.3134 31.2759 46.1535 31.1159C46.0734 31.0359 46.0734 30.9559 45.9935 30.8759C45.9135 30.7959 45.8334 30.7959 45.8334 30.716C45.6735 30.6359 45.5135 30.5559 45.3535 30.5559C45.2735 30.5559 45.2735 30.5559 45.1936 30.5559H45.1136C44.9536 30.5559 44.8736 30.6359 44.7136 30.6359C44.3937 30.7959 44.0738 30.9559 43.8338 31.1958C43.7537 31.2759 43.6738 31.3558 43.5938 31.5158C43.5138 31.5958 43.4338 31.6758 43.4338 31.7558C43.1938 31.9957 43.2739 32.2357 43.5138 32.3957ZM45.3535 31.5158C45.2735 31.5158 45.2735 31.5158 45.3535 31.5158V31.5158ZM44.6337 31.7558C44.7936 31.6758 44.8736 31.5958 45.0336 31.5158C45.1136 31.5158 45.1136 31.5158 45.1936 31.5158H45.2735C45.2735 31.5158 45.2735 31.5158 45.3535 31.5158H45.4335L45.5135 31.5958C45.5935 31.6758 45.6735 31.8358 45.6735 31.9157C45.6735 31.9957 45.7535 32.0758 45.7535 32.1557C45.7535 32.1557 45.7535 32.1557 45.7535 32.2357C45.7535 32.3157 45.7535 32.3957 45.6735 32.3957C45.6735 32.3957 45.6735 32.3957 45.5935 32.4756L45.5135 32.5557C45.4335 32.5557 45.3535 32.6357 45.2735 32.6357C45.1936 32.6357 45.1936 32.6357 45.1136 32.6357C45.0336 32.6357 44.9536 32.6357 44.8736 32.6357C44.7936 32.6357 44.7136 32.6357 44.6337 32.5557L44.5537 32.4756C44.5537 32.4756 44.5537 32.4756 44.4736 32.4756C44.4736 32.4756 44.4736 32.4756 44.4736 32.3957C44.4736 32.3157 44.4736 32.1557 44.4736 32.0757C44.4736 31.9957 44.4736 31.9157 44.3937 31.8358C44.4736 31.8358 44.5537 31.8358 44.6337 31.7558ZM42.6339 43.2741C42.6339 43.3542 42.6339 43.4341 42.5539 43.4341C42.5539 43.5941 42.5539 43.6741 42.5539 43.834C42.5539 43.9141 42.5539 44.074 42.6339 44.1541C42.6339 44.234 42.7139 44.314 42.7939 44.474C42.8739 44.6339 43.1139 44.7939 43.2739 44.8739C43.4338 44.9539 43.6738 45.0339 43.8338 45.0339C43.9137 45.0339 44.0738 45.0339 44.1537 45.0339C44.2337 45.0339 44.3137 44.9539 44.4736 44.9539C44.5537 44.8739 44.6337 44.8739 44.7136 44.7939C44.7936 44.714 44.9536 44.6339 45.0336 44.474C45.1936 44.314 45.2735 44.074 45.3535 43.9141C45.3535 43.834 45.4335 43.6741 45.4335 43.5941C45.4335 43.4341 45.4335 43.2741 45.4335 43.1942C45.4335 43.0341 45.3535 42.8742 45.2735 42.6343C45.1936 42.4742 45.1136 42.3143 44.9536 42.0743C44.8736 41.9943 44.7936 41.9143 44.7136 41.9143C44.6337 41.8344 44.5537 41.8344 44.4736 41.7544C44.3137 41.6744 44.1537 41.6744 44.0738 41.6744C43.9937 41.6744 43.9937 41.6744 43.9137 41.6744C43.7538 41.6744 43.6738 41.6744 43.5138 41.7544C43.4338 41.7544 43.2739 41.8344 43.1938 41.9143C43.1139 41.9943 43.0339 41.9943 42.8739 42.0743C42.7939 42.0743 42.7139 42.1543 42.7139 42.2343C42.5539 42.3943 42.3939 42.5543 42.234 42.7142C42.074 42.8742 42.154 43.1942 42.3939 43.2741C42.474 43.2741 42.5539 43.3542 42.6339 43.2741ZM44.0738 42.5543C44.0738 42.6343 44.0738 42.6343 44.0738 42.5543V42.5543ZM43.3538 42.8742C43.5138 42.7942 43.6738 42.7142 43.8338 42.6343C43.9137 42.6343 43.9937 42.6343 43.9937 42.5543H44.0738H44.1537C44.1537 42.5543 44.1537 42.5543 44.2337 42.5543C44.3137 42.5543 44.3137 42.6343 44.3937 42.7142C44.3937 42.7942 44.4736 42.7942 44.4736 42.8742C44.4736 42.9542 44.5537 43.0341 44.5537 43.1142C44.5537 43.1942 44.5537 43.2741 44.5537 43.4341C44.5537 43.5141 44.4736 43.6741 44.4736 43.7541C44.4736 43.834 44.3937 43.834 44.3937 43.9141C44.3137 43.994 44.3137 44.074 44.2337 44.074C44.2337 44.074 44.1537 44.074 44.1537 44.1541H44.0738C43.9937 44.1541 43.9137 44.1541 43.8338 44.1541H43.7537C43.7537 44.1541 43.6738 44.1541 43.6738 44.074L43.5938 43.994C43.5938 43.994 43.5938 43.9141 43.5138 43.9141C43.5138 43.834 43.5138 43.834 43.5138 43.7541C43.5138 43.5941 43.5138 43.4341 43.5938 43.2741C43.5938 43.1142 43.5138 42.9542 43.3538 42.8742C43.2739 42.9542 43.2739 42.8742 43.3538 42.8742Z" fill="black"/>
<path d="M14.8779 33.9953C14.9579 34.1553 15.0379 34.3153 15.1178 34.4752C15.1979 34.5552 15.2778 34.6352 15.2778 34.6352C15.3578 34.7152 15.4378 34.7152 15.5178 34.7952C15.5978 34.8752 15.6778 34.8752 15.7578 34.8752C15.8378 34.8752 15.8378 34.8752 15.9177 34.8752C15.9978 34.8752 16.0777 34.8752 16.2377 34.8752C16.3177 34.8752 16.3977 34.7952 16.5577 34.7952C16.6376 34.7152 16.7977 34.7152 16.8776 34.6352C17.0376 34.5552 17.1975 34.3953 17.3576 34.2352C17.4375 34.1553 17.5175 33.9953 17.5975 33.9153C17.6775 33.8354 17.6775 33.6753 17.7575 33.5954C17.8375 33.4354 17.8375 33.3554 17.8375 33.1954C17.8375 33.0355 17.8375 32.8755 17.8375 32.6355C17.8375 32.2356 17.6775 31.8356 17.3576 31.6757C17.2776 31.5956 17.1975 31.5956 17.1176 31.5157C17.0376 31.4357 16.9576 31.4357 16.8776 31.4357C16.7977 31.4357 16.7176 31.4357 16.7176 31.4357C16.5577 31.4357 16.3977 31.4357 16.2377 31.5157C16.0777 31.5956 15.8378 31.6757 15.6778 31.8356C15.5978 31.9156 15.4378 31.9956 15.3578 32.0756C15.2778 32.1555 15.1979 32.2356 15.1178 32.3155C15.0379 32.3955 14.9579 32.4756 14.8779 32.6355C14.7979 32.7955 14.8779 32.9554 15.0379 33.1154C14.8779 33.1954 14.7979 33.3554 14.7979 33.5154C14.7979 33.6753 14.7979 33.7553 14.7979 33.9153C14.7979 33.7553 14.7979 33.8354 14.8779 33.9953ZM16.7176 32.1555H16.6376C16.6376 32.1555 16.6376 32.1555 16.7176 32.1555ZM15.6778 32.7155C15.6778 32.7955 15.5978 32.7955 15.5978 32.7955C15.6778 32.7955 15.6778 32.7155 15.6778 32.7155ZM15.5978 32.7955C15.6778 32.7155 15.7578 32.6355 15.9177 32.5555C15.9177 32.5555 15.8378 32.5555 15.8378 32.6355L15.9177 32.5555C16.0777 32.4756 16.2377 32.3155 16.4777 32.2356C16.5577 32.2356 16.5577 32.2356 16.6376 32.1555H16.7176C16.7176 32.1555 16.7176 32.1555 16.7977 32.1555C16.7977 32.1555 16.7977 32.1555 16.8776 32.1555L16.9576 32.2356C16.9576 32.2356 16.9576 32.3155 17.0376 32.3155C17.0376 32.3955 17.0376 32.3955 17.0376 32.4756C17.0376 32.5555 17.0376 32.6355 17.0376 32.7155C17.0376 32.7955 17.0376 32.7955 17.0376 32.8755C17.0376 32.9554 16.9576 33.1154 16.9576 33.1954C16.8776 33.2754 16.8776 33.3554 16.7977 33.4354C16.7176 33.5154 16.6376 33.5954 16.5577 33.6753C16.4777 33.6753 16.4777 33.7553 16.3977 33.7553C16.3177 33.7553 16.3177 33.7553 16.2377 33.7553H16.1577H16.0777C16.0777 33.7553 16.0777 33.7553 15.9978 33.7553C15.9978 33.7553 15.9978 33.6753 15.9177 33.6753C15.9177 33.6753 15.9177 33.5954 15.8378 33.5954C15.8378 33.5154 15.8378 33.4354 15.8378 33.4354C15.8378 33.3554 15.8378 33.3554 15.8378 33.2754C15.8378 33.1154 15.7578 32.9554 15.5978 32.7955C15.5978 32.8755 15.5978 32.8755 15.5978 32.7955Z" fill="black"/>
<path d="M15.2787 43.034C15.1988 43.114 15.1188 43.274 15.1188 43.354C15.0388 43.514 15.1188 43.7539 15.3588 43.8339C15.2787 43.9938 15.1988 44.1538 15.1188 44.3139C15.0388 44.4738 15.0388 44.6338 15.0388 44.7937C15.0388 44.9537 15.0388 45.0337 15.0388 45.1937C15.0388 45.2737 15.0388 45.4337 15.1188 45.5136C15.1188 45.5936 15.1988 45.6736 15.2787 45.8336C15.3588 45.9136 15.3588 45.9936 15.4387 46.0735C15.4387 46.0735 15.5187 46.1536 15.5987 46.1536C15.6787 46.2336 15.7587 46.2336 15.8387 46.3135C15.9986 46.3935 16.1587 46.3936 16.3986 46.4735C16.4786 46.4735 16.5585 46.4735 16.6386 46.4735C16.7186 46.4735 16.7186 46.4735 16.7985 46.3935C16.8785 46.3935 16.9585 46.3135 17.0385 46.2336C17.1185 46.1536 17.1985 46.1536 17.2785 46.0735C17.3584 45.9936 17.4385 45.9136 17.5184 45.8336C17.5984 45.7536 17.6784 45.5936 17.7584 45.5136C17.8384 45.3537 17.9183 45.1937 17.9984 45.0337C18.0784 44.7937 18.1583 44.4738 18.1583 44.2338C18.1583 43.9938 18.1583 43.7539 18.0784 43.514C18.0784 43.4339 17.9984 43.3539 17.9183 43.274C17.8384 43.1939 17.8384 43.114 17.7584 43.034C17.6784 42.954 17.5984 42.874 17.5184 42.874C17.4385 42.794 17.2785 42.7141 17.1185 42.634C17.0385 42.634 16.9585 42.5541 16.8785 42.5541C16.7985 42.5541 16.7186 42.5541 16.6386 42.5541H16.5585C16.3186 42.5541 16.0786 42.634 15.8387 42.794C15.5187 42.794 15.3588 42.954 15.2787 43.034ZM16.2386 45.5136H16.3186C16.3186 45.5136 16.3186 45.5136 16.2386 45.5136ZM16.3186 45.5136C16.3186 45.4337 16.3186 45.4337 16.3186 45.5136V45.5136ZM16.3186 45.4337C16.3986 45.4337 16.3986 45.4337 16.3186 45.4337V45.4337ZM16.6386 43.4339C16.5585 43.4339 16.5585 43.4339 16.6386 43.4339V43.4339ZM16.1587 43.4339C16.2386 43.4339 16.2386 43.4339 16.3186 43.4339C16.3986 43.4339 16.4786 43.4339 16.5585 43.4339H16.6386L16.7186 43.514L16.7985 43.5939C16.7985 43.6739 16.8785 43.6739 16.8785 43.7539C16.8785 43.8339 16.9585 43.9139 16.9585 43.9938C16.9585 44.1538 16.9585 44.2338 16.9585 44.3938V44.4738C16.9585 44.6338 16.8785 44.7137 16.7985 44.7937C16.7186 44.8738 16.6386 45.0337 16.5585 45.1137L16.4786 45.1937C16.3986 45.2737 16.3986 45.2737 16.3186 45.3537C16.3186 45.3537 16.2386 45.3537 16.2386 45.4337H16.1587H16.0786C15.9986 45.4337 15.9986 45.4337 15.9187 45.3537L15.8387 45.2737C15.8387 45.2737 15.8387 45.2737 15.7587 45.1937C15.7587 45.1937 15.7587 45.1137 15.6787 45.1137C15.6787 45.0337 15.6787 45.0337 15.6787 44.9537C15.6787 44.8738 15.6787 44.8738 15.6787 44.7937C15.6787 44.6338 15.6787 44.5538 15.7587 44.4738C15.7587 44.3938 15.8387 44.3139 15.8387 44.2338V44.1538C15.8387 44.1538 15.8387 44.1538 15.8387 44.2338C15.8387 44.2338 15.8387 44.1538 15.9187 44.1538C15.9986 44.0739 15.9986 43.9139 15.9986 43.8339C15.9986 43.7539 15.9187 43.5939 15.8387 43.5939C15.8387 43.5939 15.8387 43.5939 15.7587 43.5939C15.7587 43.5939 15.8387 43.5939 15.8387 43.514C15.9986 43.514 16.0786 43.514 16.1587 43.4339ZM4.80023 34.7152C4.72024 34.7152 4.72024 34.7152 4.80023 34.7152V34.7152Z" fill="black"/>
</g>
<defs>
<clipPath id="clip0_9_354">
<rect width="51.9105" height="50.3132" fill="white"/>
</clipPath>
</defs>
</svg>
