<svg width="40" height="51" viewBox="0 0 40 51" fill="none" xmlns="http://www.w3.org/2000/svg">
<g clip-path="url(#clip0_9_329)">
<path d="M30.8016 21.6528C30.7229 21.7316 30.7229 21.7316 30.6441 21.8103C30.5654 21.889 30.4079 22.0465 30.3292 22.1252C30.1717 22.2039 30.0142 22.3614 29.8567 22.4402C29.6993 22.5189 29.6205 22.5189 29.463 22.5977C28.5969 22.9126 27.6521 23.0701 26.786 23.1488C26.3923 23.1488 26.0773 23.2275 25.6837 23.2275C25.5262 23.2275 25.29 23.2275 25.1325 23.2275C25.0538 23.2275 24.975 23.2275 24.8963 23.2275C24.8175 23.2275 24.8175 23.2275 24.7389 23.2275C24.5026 23.2275 24.3451 23.385 24.3451 23.6213C24.3451 23.8574 24.5026 24.0149 24.7389 24.0149H24.8175C25.4475 24.1724 25.9986 24.1724 26.6286 24.0936C27.3372 24.0149 27.967 23.9362 28.6757 23.7787C29.3056 23.6213 29.8567 23.4638 30.4079 23.2275C30.5654 23.1488 30.8016 22.9913 30.9591 22.9126C31.1166 22.7552 31.2741 22.6764 31.4315 22.5189C31.589 22.3614 31.6677 22.2039 31.7464 22.0465C31.8252 21.889 31.9039 21.8103 31.9827 21.6528C32.0614 21.4953 32.1402 21.4166 32.1402 21.2591C32.2189 21.0229 32.2976 20.708 32.3763 20.4717C32.4551 20.2355 32.2976 19.9993 32.1402 19.9206H32.0614C31.9039 19.9206 31.7465 19.9993 31.6677 20.2355C31.589 20.5505 31.4315 20.9442 31.2741 21.2591C31.0378 21.2591 30.9591 21.4953 30.8016 21.6528ZM0.408948 8.66114C0.64516 8.66114 0.802632 8.50365 0.802632 8.26742C0.802632 7.63753 0.802632 6.9289 0.802632 6.29899C0.802632 5.98405 0.881376 5.6691 0.881376 5.43289C0.881376 5.11793 0.960112 4.88172 0.960112 4.56677C1.03885 4.01561 1.19632 3.54319 1.35379 3.07076V2.99202C1.35379 2.99202 1.35379 2.99202 1.35379 3.07076C1.51127 2.91329 1.51127 2.83455 1.59001 2.75581C1.66875 2.67707 1.66875 2.67707 1.74748 2.59833C1.82622 2.5196 1.90496 2.5196 1.9837 2.44086C2.53486 2.20465 3.16476 2.04717 3.79466 1.8897C4.34582 1.73222 4.89698 1.57475 5.44815 1.41728C5.99931 1.2598 6.55047 1.10232 7.10163 0.94485C7.33784 0.866114 7.65279 0.787374 7.889 0.708637C8.12519 0.629899 8.28267 0.629899 8.51891 0.551162C8.75514 0.472424 8.83389 0.31495 8.83389 0.0787375C8.6764 0.157475 8.51891 0 8.36142 0H8.28267C8.20393 0 8.04644 0.0787375 7.96775 0.0787375C7.81027 0.157475 7.57406 0.157475 7.41658 0.236213C7.10163 0.31495 6.70794 0.393687 6.39299 0.472424C5.60562 0.708637 4.81824 0.866114 4.03087 1.10232C3.63718 1.18106 3.32223 1.2598 2.92855 1.33854C2.77107 1.41728 2.6136 1.41728 2.45612 1.49601C2.21991 1.57475 1.9837 1.57475 1.74748 1.73222C1.66875 1.73222 1.59001 1.81096 1.51127 1.81096C1.35379 1.81096 1.27506 1.8897 1.19632 1.96844C1.11758 2.04717 1.03885 2.12591 0.960112 2.12591C0.881376 2.20465 0.802632 2.36213 0.802632 2.44086C0.723897 2.5196 0.64516 2.67707 0.566422 2.83455C0.566422 2.91329 0.487685 3.07076 0.487685 3.22823C0.408948 3.54319 0.330211 3.93687 0.251473 4.33056C0.0152606 5.59036 0.0152605 6.9289 0.0152605 8.26742C0.0152605 8.50365 0.172736 8.66114 0.408948 8.66114ZM21.1169 50.3132C21.0382 50.3132 21.0382 50.3132 21.1169 50.3132V50.3132ZM24.975 48.1086C24.4239 48.4235 23.794 48.6598 23.164 48.8959C22.8492 48.9747 22.5342 49.1321 22.1405 49.2109C21.7468 49.2896 21.3531 49.3684 20.9595 49.4471C20.5657 49.4471 20.172 49.5259 19.6996 49.5259C19.3059 49.5259 18.9123 49.4471 18.5185 49.3684C18.1249 49.2896 17.7312 49.2109 17.3375 49.0534C17.0226 48.9747 16.7076 48.8172 16.3926 48.6598C16.0777 48.5023 15.7627 48.3448 15.4478 48.1873C15.2903 48.1086 15.2116 48.0298 15.0541 47.9511C14.9754 47.8724 14.8966 47.8724 14.8179 47.7937C14.7391 47.7937 14.6604 47.7149 14.5817 47.7149H14.503C14.4242 47.7149 14.3455 47.7937 14.2668 47.8724C14.188 48.0298 14.188 48.266 14.3455 48.4235C14.503 48.5023 14.5817 48.581 14.6604 48.6598C14.8179 48.7385 14.9754 48.896 15.1329 48.9747C15.4478 49.2109 15.8415 49.3684 16.1565 49.5259C16.9438 49.9195 17.7312 50.077 18.5973 50.2345C18.991 50.3132 19.3059 50.3132 19.6996 50.3132C19.9359 50.3132 20.0933 50.3132 20.3295 50.3132C20.5657 50.3132 20.7232 50.3132 20.9595 50.2345C20.9595 50.2345 20.9595 50.2345 21.0382 50.2345C21.7468 50.1557 22.3767 49.9982 23.0066 49.7621C23.794 49.5259 24.5814 49.1321 25.29 48.7385C25.5262 48.6598 25.5262 48.3448 25.4475 48.1873C25.4475 48.1086 25.2112 48.0298 24.975 48.1086ZM16.9438 26.9282C17.0226 26.9282 17.1013 26.9282 17.1801 26.8495C17.6524 26.7707 18.1249 26.7707 18.5973 26.7707C19.1485 26.7707 19.6209 26.7707 20.172 26.8495C20.6445 26.9282 21.0382 27.0069 21.5106 27.0857C21.983 27.1644 22.3767 27.3219 22.8492 27.4794C23.479 27.7156 24.0302 28.0305 24.5814 28.3455C25.2112 28.6604 25.7624 29.0541 26.3923 29.2904C26.7072 29.4478 27.1009 29.6053 27.4159 29.684C27.8096 29.8415 28.2033 29.8415 28.5969 29.9202C29.3056 29.999 30.0142 29.9202 30.7229 29.8415C31.4315 29.7628 32.2189 29.7627 32.9275 29.684C33.6362 29.6053 34.3448 29.6053 35.0534 29.6053C35.6833 29.6053 36.392 29.6053 37.0218 29.6053C37.6518 29.6053 38.3604 29.6053 38.9903 29.6053C39.384 29.6053 39.6202 29.2904 39.6202 28.9754C39.6202 28.5817 39.3053 28.3455 38.9903 28.3455C38.5966 28.3455 38.1242 28.3455 37.7305 28.3455C37.3368 28.3455 36.9431 28.3455 36.5494 28.3455C35.6833 28.3455 34.7385 28.3455 33.8724 28.4242C33.3999 28.4242 32.9275 28.5029 32.5338 28.5029C32.0614 28.5029 31.589 28.5817 31.1166 28.6604C30.7229 28.7392 30.2505 28.7392 29.8567 28.8179C29.3844 28.8179 28.9906 28.8179 28.5183 28.8179C28.282 28.7392 28.0458 28.7392 27.8096 28.6604C27.5733 28.5817 27.3372 28.5029 27.1797 28.4242C26.8647 28.2668 26.4711 28.1093 26.1561 27.8731C25.8411 27.7156 25.605 27.5581 25.29 27.4007C24.6601 27.0857 23.9514 26.692 23.2428 26.4558C21.8256 25.9046 20.3295 25.6684 18.9123 25.6684C18.8335 25.6684 18.7548 25.6684 18.7548 25.6684C18.0462 25.6684 17.3375 25.7471 16.6288 25.9046C16.3926 25.9833 16.1565 26.0621 15.9202 26.1408C15.5265 26.0621 15.1329 26.0621 14.8179 26.0621C14.6604 26.0621 14.503 26.0621 14.2668 26.0621C13.7155 26.0621 13.1644 26.1408 12.692 26.1408H12.7707C12.692 26.1408 12.6133 26.1408 12.5345 26.1408H12.6133C12.5345 26.1408 12.5345 26.1408 12.4558 26.1408C11.196 26.2983 10.0149 26.692 8.83389 27.0069C7.65279 27.3219 6.39299 27.6368 5.21193 27.8731C4.5033 27.9518 3.79466 28.0305 3.08602 28.0305C2.37738 28.0305 1.66875 28.0305 0.960112 28.1093C0.566422 28.1093 0.33021 28.4242 0.33021 28.7392C0.33021 29.0541 0.64516 29.4478 0.960112 29.369C1.90496 29.2904 2.84981 29.2904 3.79466 29.2904C4.34582 29.2904 4.89698 29.2116 5.44815 29.1329C5.99931 29.0541 6.55047 28.9754 7.10163 28.8179C7.96775 28.5817 8.91263 28.3455 9.77874 28.1093C10.2511 27.9518 10.7236 27.7943 11.196 27.7156C11.6684 27.5581 12.2196 27.4794 12.692 27.4007C13.0857 27.3219 13.4006 27.3219 13.7943 27.3219C13.5581 27.4794 13.3219 27.7156 13.0857 27.8731C12.8494 28.1093 12.6133 28.4242 12.3771 28.6604C12.2196 28.8966 12.0621 29.2116 11.9046 29.4478C11.8258 29.684 11.7471 29.9202 11.7471 30.1565C11.7471 30.3139 11.6684 30.5501 11.7471 30.7076C11.7471 30.8651 11.7471 31.0226 11.8258 31.1801C11.8258 31.3375 11.9046 31.4162 11.9833 31.5737C12.0621 31.7312 12.1408 31.8887 12.2196 32.0462C12.2983 32.1249 12.3771 32.2823 12.4558 32.3611C12.6133 32.5186 12.8494 32.676 13.0069 32.7548C13.1644 32.8335 13.2432 32.9123 13.4006 32.9123C13.5581 32.991 13.6368 32.991 13.7943 33.0698C14.0305 33.1484 14.3455 33.2272 14.5817 33.2272C15.1329 33.3059 15.684 33.2272 16.2352 33.1484C17.2588 32.991 18.3611 32.676 19.3846 32.5186C19.7784 32.4398 20.0933 32.4398 20.487 32.4398C20.802 32.4398 21.1956 32.4398 21.5106 32.5186C21.7468 32.5973 21.983 32.5973 22.2192 32.676C22.4554 32.7548 22.6917 32.8335 22.9278 32.9123C23.1641 32.991 23.4003 33.1484 23.6365 33.2272C23.8727 33.3847 24.1089 33.5422 24.4239 33.6996C25.5262 34.5657 26.5498 35.5893 27.4947 36.5342C28.0458 37.0853 28.5969 37.6365 29.0694 38.2664C29.5418 38.7388 30.0142 39.29 30.5654 39.7624C30.8016 39.9199 31.0378 40.0774 31.2741 40.3136C31.1953 40.3136 31.1166 40.3923 31.0378 40.4711C30.9591 40.5498 30.9591 40.6285 30.8803 40.7072C30.6441 40.9435 30.4079 41.101 30.2505 41.3372C30.0142 41.5733 29.8567 41.8096 29.6205 41.9671C29.1481 42.4394 28.6757 42.8332 28.2033 43.2269C27.1009 44.093 25.9199 44.8016 24.5814 45.4315C24.2664 45.589 23.9514 45.6677 23.6365 45.8252C23.4003 45.9039 23.1641 45.9827 22.9278 45.9827C22.9278 45.7465 23.0066 45.589 23.0066 45.3527C23.0066 45.1953 23.0066 45.0378 23.0066 44.8804C23.0066 44.7229 22.9278 44.5654 22.8492 44.4079C22.7704 44.2505 22.6917 44.1717 22.5342 44.093C22.3767 44.0143 22.2979 43.9355 22.1405 43.8568C21.983 43.778 21.8256 43.778 21.5893 43.778C21.3531 43.778 21.1169 43.8568 20.8807 43.9355C20.3295 44.093 19.8571 44.3291 19.3059 44.5654C19.3846 44.5654 19.3846 44.4866 19.4634 44.4866C19.3846 44.5654 19.2272 44.5654 19.1485 44.6441C19.3059 44.093 19.4634 43.5418 19.3059 43.0694C19.2272 42.9119 19.1485 42.6757 18.991 42.5969C18.8335 42.4394 18.676 42.3608 18.4398 42.282C18.2036 42.2033 17.9674 42.2033 17.8099 42.282C17.6524 42.282 17.5737 42.3608 17.4949 42.3608C17.1801 42.4394 16.8651 42.5969 16.6288 42.7544C16.7076 42.5969 16.7076 42.5182 16.7863 42.3608C16.8651 42.0458 16.9438 41.6521 16.9438 41.3372C16.9438 40.9435 16.8651 40.5497 16.6288 40.2348C16.5501 40.1561 16.4714 40.0774 16.3926 39.9986C16.2352 39.9199 16.1565 39.8411 15.999 39.7624C15.7627 39.6836 15.4478 39.6836 15.1329 39.6836C14.9754 39.6836 14.8179 39.7624 14.6604 39.8411C14.4242 39.9199 14.2668 39.9986 14.0305 40.0774C13.873 40.1561 13.7155 40.2349 13.5581 40.3136C13.5581 40.1561 13.5581 40.0774 13.5581 39.9199C13.5581 39.6836 13.5581 39.5262 13.4794 39.29C13.4794 39.1325 13.4006 38.975 13.4006 38.8175C13.2432 38.3451 13.0069 37.9514 12.6133 37.6365C12.5345 37.5578 12.3771 37.479 12.2196 37.4003C12.0621 37.3216 11.9046 37.3216 11.6684 37.3216C11.6684 37.3216 11.6684 37.3216 11.5897 37.3216C11.4322 37.3216 11.3535 37.3216 11.196 37.4003C11.1172 37.4003 11.0385 37.479 10.881 37.479C10.8022 37.479 10.6448 37.5578 10.5661 37.6365C10.4874 37.7152 10.3299 37.7939 10.2511 37.8727C10.1724 37.9514 10.0149 38.0302 9.93614 38.1089C9.77874 38.1877 9.69999 38.3451 9.5425 38.5026C9.38501 38.6601 9.30627 38.8175 9.22753 38.975C9.14878 39.0538 9.14878 39.1325 9.07004 39.29C8.6764 39.0538 8.20393 38.8175 7.81027 38.5814C6.70794 38.1089 5.44815 37.7939 4.18834 37.6365C3.87339 37.6365 3.55845 37.5578 3.16476 37.5578C2.92855 37.5578 2.69233 37.5578 2.45612 37.5578C1.82622 37.5578 1.11758 37.7152 0.487685 37.8727C0.172736 37.9514 -0.063477 38.3451 0.0152605 38.66C0.0939979 38.8175 0.172735 38.975 0.33021 39.0538C0.487685 39.1325 0.64516 39.1325 0.802632 39.1325C1.27506 39.0538 1.74748 38.8963 2.21991 38.8963C3.08602 38.8175 3.87339 38.8963 4.73951 38.975C5.21193 39.0538 5.68436 39.1325 6.15678 39.29C6.62921 39.4475 7.10163 39.6049 7.57406 39.7624C8.59765 40.2348 9.46376 40.786 10.4086 41.4159C11.196 41.9671 11.9833 42.5182 12.7707 43.1481L12.692 43.0694C13.2432 43.5418 13.873 44.0143 14.503 44.4079C15.1329 44.8804 15.684 45.274 16.3139 45.6677C16.9438 46.0614 17.6524 46.3763 18.3611 46.6913C18.991 46.9275 19.6209 47.1637 20.3295 47.2424C20.6445 47.3212 20.9595 47.3212 21.3531 47.3212C21.6681 47.3212 22.0617 47.3212 22.3767 47.3212C23.1641 47.2424 23.8727 47.0063 24.5026 46.7701C25.9199 46.2188 27.1797 45.3527 28.4395 44.4866C29.0694 44.0143 29.6993 43.463 30.2505 42.8332C30.5654 42.5182 30.8016 42.2033 31.0378 41.8096C31.1166 41.6521 31.2741 41.4946 31.2741 41.3372C31.3527 41.2584 31.3527 41.1797 31.4315 41.101C31.5102 41.0222 31.5102 40.9435 31.589 40.9435C31.6677 40.8647 31.6677 40.786 31.589 40.7072C31.8252 40.8647 32.0614 41.0222 32.3763 41.101C32.8488 41.3372 33.3999 41.4159 33.8724 41.4159C34.266 41.4159 34.581 41.4159 34.9747 41.3372C35.3684 41.3372 35.6833 41.2584 36.077 41.1797C36.392 41.101 36.7857 41.101 37.1006 41.0222C37.4156 40.9435 37.8093 40.8647 38.1242 40.786C38.4391 40.7072 38.754 40.6285 38.9903 40.4711C39.069 40.4711 39.069 40.4711 39.1478 40.4711C39.384 40.4711 39.5415 40.3136 39.5415 40.0774C39.5415 39.8411 39.384 39.6836 39.1478 39.6836C39.069 39.6836 38.9903 39.6836 38.8328 39.7624C38.4391 39.7624 38.0454 39.7624 37.573 39.7624C37.1006 39.8411 36.6282 39.8411 36.2345 39.9199C35.3684 39.9986 34.4235 40.1561 33.4787 40.0774C33.3212 40.0774 33.1638 39.9986 33.0063 39.9986C32.8488 39.9199 32.77 39.9199 32.6126 39.8411C32.3763 39.7624 32.1402 39.6049 31.9039 39.4475C31.7464 39.3687 31.589 39.2113 31.4315 39.1325C30.8803 38.7388 30.4079 38.2664 29.9355 37.7939C29.3844 37.2428 28.8332 36.6129 28.2033 36.0617C27.1009 34.9594 26.0773 33.7784 24.8175 32.8335C24.5026 32.5973 24.1876 32.3611 23.8727 32.2036C23.479 31.9674 23.0853 31.8099 22.6917 31.6525C22.2979 31.495 21.983 31.495 21.5893 31.4162C21.1169 31.3375 20.7232 31.3375 20.2508 31.3375C19.4634 31.3375 18.5973 31.495 17.8099 31.5737C17.1013 31.7312 16.3926 31.8887 15.684 31.9674C15.2116 32.0462 14.8179 32.0462 14.3455 31.9674C14.188 31.9674 14.1093 31.8887 13.9518 31.8887C13.7943 31.8887 13.6368 31.8099 13.5581 31.7312C13.4006 31.6525 13.3219 31.5737 13.1644 31.495C13.0857 31.4162 13.0069 31.3375 12.9282 31.2587C12.8494 31.1801 12.7707 31.0226 12.7707 30.9438C12.692 30.8651 12.692 30.7076 12.692 30.6289C12.692 30.4714 12.692 30.3926 12.692 30.2352C12.692 30.0777 12.7707 29.999 12.7707 29.8415C12.8494 29.6053 13.0069 29.369 13.1644 29.1329C13.3219 28.9754 13.4006 28.8179 13.5581 28.7392C13.7155 28.5817 13.7943 28.5029 13.9518 28.3455C14.188 28.1093 14.503 27.9518 14.8179 27.7156C15.1329 27.5581 15.3691 27.4007 15.684 27.2432C15.9202 27.1644 16.1565 27.0857 16.4714 27.0069C16.5501 27.0069 16.7076 26.9282 16.7863 26.9282C16.8651 26.9282 16.8651 26.9282 16.9438 26.9282ZM17.7312 43.3843H17.6524C17.6524 43.3056 17.6524 43.3056 17.7312 43.3843ZM14.2668 40.9435C14.503 40.8647 14.7391 40.786 14.9754 40.786H15.0541C15.0541 40.786 15.0541 40.786 15.0541 40.8647C15.0541 40.9435 15.1329 41.0222 15.1329 41.101C15.1329 41.2584 15.1329 41.3372 15.1329 41.4946C15.1329 41.6521 15.0541 41.8096 14.9754 42.0458C14.8179 42.3608 14.7391 42.5969 14.503 42.8332C14.503 42.9119 14.4242 42.9119 14.4242 42.9907C14.2668 42.9119 14.1093 42.7544 13.9518 42.6757C13.5581 42.4394 13.2432 42.1245 12.8494 41.8883C13.4006 41.4946 13.7943 41.1797 14.2668 40.9435ZM9.69999 39.5262C9.93614 39.3687 10.1724 39.1325 10.4086 38.975C10.6448 38.8175 10.881 38.6601 11.1172 38.5814C11.196 38.5814 11.2747 38.5026 11.3535 38.5026H11.4322H11.5109C11.5109 38.5026 11.5897 38.5026 11.5897 38.5814C11.6684 38.6601 11.6684 38.6601 11.7471 38.7388C11.8258 38.8175 11.8258 38.8963 11.9046 38.975C11.9833 39.1325 11.9833 39.29 12.0621 39.4475C12.0621 39.6836 12.0621 39.8411 12.0621 40.0774C12.0621 40.3136 11.9833 40.4711 11.9046 40.7072C11.9046 40.786 11.8258 40.8647 11.7471 40.9435C11.5897 40.786 11.3535 40.6285 11.196 40.4711C10.6448 40.0774 10.1724 39.7624 9.69999 39.5262ZM16.0777 44.093C15.999 44.093 15.999 44.0143 15.9202 43.9355C16.0777 43.8568 16.1565 43.778 16.3139 43.778C16.7863 43.6205 17.18 43.463 17.6524 43.3056H17.7312C17.7312 43.3843 17.7312 43.3843 17.7312 43.463C17.6524 43.6993 17.5737 43.9355 17.4949 44.1717C17.4162 44.3291 17.3375 44.5654 17.2588 44.7229C16.8651 44.5654 16.4714 44.3291 16.0777 44.093ZM20.487 45.904C20.4082 45.904 20.3295 45.904 20.3295 45.904C20.3295 45.904 20.3295 45.904 20.487 45.904C20.0933 45.8252 19.7784 45.7465 19.3846 45.6677C19.3059 45.6677 19.2272 45.589 19.1485 45.589C19.3846 45.5102 19.5421 45.4315 19.7784 45.3527C20.2508 45.1953 20.7232 45.0378 21.1956 44.9591C21.2743 44.9591 21.2743 44.9591 21.3531 44.9591C21.3531 45.1953 21.3531 45.4315 21.3531 45.6677C21.3531 45.7465 21.3531 45.8252 21.3531 45.904C21.3531 45.9827 21.3531 45.9827 21.3531 46.0614C20.9595 45.9827 20.7232 45.9827 20.487 45.904ZM7.57406 4.56677C6.94415 4.56677 6.23552 4.56677 5.68436 4.96046C5.1332 5.35415 4.89698 6.06278 4.66077 6.61395C4.58203 7.00763 4.5033 7.40132 4.42456 7.71627C4.18834 9.21227 4.03087 10.6296 3.95214 12.1256C3.87339 13.2279 3.87339 14.3302 3.79466 15.4325C3.79466 15.9837 3.71592 16.5348 3.71592 17.0861C3.71592 17.5584 3.71592 18.1096 3.71592 18.582C3.71592 18.8183 3.71592 19.0545 3.79466 19.2906C3.79466 19.3694 3.87339 19.4481 3.87339 19.5269C3.87339 19.6056 3.95214 19.6056 3.95214 19.6844C4.03087 19.7631 4.10961 19.7631 4.18834 19.8419C4.42456 19.9993 4.66077 19.9993 4.89698 19.9993C5.21193 19.9993 5.44815 19.9206 5.76309 19.9206C6.07805 19.8419 6.31425 19.8419 6.62921 19.7631C7.18037 19.6844 7.65279 19.5269 8.20393 19.3694C8.6764 19.2119 9.14878 19.1332 9.69999 19.0545H9.62125C9.69999 19.0545 9.77874 19.0545 9.85748 19.0545C9.85748 19.0545 9.85748 19.0545 9.77874 19.0545H9.85748H9.93614C9.77874 19.2906 9.62125 19.6056 9.5425 19.8419C9.38501 20.1568 9.30627 20.4717 9.14878 20.708C8.83388 21.3378 8.59765 21.9677 8.36142 22.5977C8.28268 22.9126 8.12519 23.1488 8.04644 23.4638C7.96775 23.7787 7.81027 24.0149 7.73153 24.3299C7.65279 24.5661 7.73153 24.881 7.889 25.1172C7.96775 25.2747 8.04644 25.3535 8.20393 25.4322C8.28268 25.4322 8.28268 25.511 8.36142 25.511C8.44016 25.511 8.59765 25.511 8.6764 25.511C8.75514 25.511 8.75514 25.511 8.83389 25.511C8.99129 25.511 9.07004 25.4322 9.22753 25.4322C9.38501 25.3535 9.5425 25.2747 9.69999 25.2747C9.85748 25.196 10.0936 25.1172 10.2511 25.0385C10.881 24.7235 11.4322 24.4086 11.9833 24.0149C12.6133 23.6213 13.1644 23.1488 13.7943 22.7552C14.3455 22.3614 14.8966 21.889 15.4478 21.4166C15.684 21.2591 15.9202 21.0229 16.1565 20.7867C16.2352 20.708 16.3926 20.5505 16.4714 20.4717C16.5501 20.393 16.7076 20.3142 16.7863 20.3142C17.0226 20.2355 17.1801 20.1568 17.4162 20.1568C17.6524 20.078 17.9674 20.078 18.2036 19.9993C18.9123 19.9206 19.6209 19.8419 20.3295 19.8419C21.1169 19.8419 21.9043 19.8419 22.6129 19.9206C23.4003 19.9206 24.1089 19.9993 24.8963 19.9993C25.605 19.9993 26.3923 19.9993 27.1009 19.9206C27.4159 19.9206 27.8096 19.8419 28.1245 19.8419C28.282 19.8419 28.4395 19.8419 28.5969 19.8419C28.6757 19.8419 28.8332 19.8419 28.9119 19.7631C28.9906 19.7631 29.0694 19.7631 29.1481 19.6844C29.2269 19.6844 29.3056 19.6056 29.3844 19.5269C29.8567 19.2119 30.0142 18.5033 30.093 17.9522C30.1717 17.5584 30.1717 17.1648 30.2505 16.7711C30.4079 15.2751 30.6441 13.7003 30.8016 12.2043C30.9591 10.7083 31.1166 9.21227 31.2741 7.71627C31.2741 7.40132 31.3527 7.08637 31.3527 6.77142C31.4315 6.37774 31.5102 5.90531 31.2741 5.51162C31.2741 5.43289 31.1953 5.43289 31.1953 5.35415C31.1166 5.27541 31.0378 5.19667 30.9591 5.11793C30.8016 5.0392 30.6441 4.96046 30.4866 4.96046C30.0142 4.88172 29.5418 4.88172 29.0694 4.88172C28.5969 4.88172 28.1245 4.88172 27.7308 4.80298C26.0773 4.72424 24.4239 4.72424 22.8492 4.64551C21.3531 4.56677 19.7784 4.56677 18.2823 4.48804C15.1329 4.4093 11.9046 4.33056 8.75514 4.33056C8.51891 4.33056 8.28268 4.33056 8.04644 4.33056C7.96775 4.56677 7.73153 4.56677 7.57406 4.56677ZM9.22753 5.90531C10.0149 5.90531 10.881 5.90531 11.7471 5.90531C13.3219 5.90531 14.8179 5.90531 16.3926 5.90531C19.6209 5.98405 22.8492 5.98405 26.0773 6.14152C26.6286 6.14152 27.1797 6.22026 27.6521 6.22026C28.4395 6.29899 29.3056 6.29899 30.093 6.37774C30.093 6.37774 30.093 6.37774 30.1717 6.37774C30.1717 6.61395 30.1717 6.85016 30.1717 7.08637C30.1717 7.48006 30.1717 7.795 30.093 8.18868C30.0142 8.97604 30.0142 9.84215 30.0142 10.6296C29.9355 12.2043 29.778 13.779 29.6205 15.3538C29.463 16.2987 29.3844 17.3222 28.9906 18.2671C28.9906 18.2671 28.9906 18.2671 28.9906 18.3458C28.9906 18.4245 28.9119 18.5033 28.8332 18.582C28.6757 18.6608 28.4395 18.6608 28.282 18.7395C27.5734 18.8183 26.9435 18.897 26.3923 18.897C26.4711 18.8183 26.6286 18.7395 26.7072 18.6608C27.0222 18.4245 27.3372 18.1096 27.5733 17.7947C27.7308 17.6372 27.7308 17.4009 27.5733 17.2435C27.4947 17.1648 27.4159 17.0861 27.2584 17.0861C27.1797 17.0861 27.0222 17.0861 27.0222 17.1648C26.7072 17.4797 26.3923 17.7947 26.0773 18.0309C25.8411 18.2671 25.605 18.5033 25.3687 18.6608C25.3687 18.6608 25.29 18.7395 25.29 18.8183C24.8175 18.8183 24.4239 18.8183 23.9514 18.8183C23.7153 18.8183 23.479 18.8183 23.2428 18.8183C23.5578 18.582 23.8727 18.2671 24.1876 18.0309C24.3451 17.8734 24.3451 17.6372 24.1876 17.4797C24.1089 17.4009 24.0302 17.3222 23.8727 17.3222C23.794 17.3222 23.6365 17.3222 23.5578 17.4009C23.2428 17.6372 22.9278 17.9522 22.6129 18.1883C22.4554 18.2671 22.3767 18.4245 22.2192 18.5033C22.1405 18.582 22.1405 18.582 22.0617 18.6608L21.983 18.7395C21.4318 18.7395 20.9595 18.7395 20.4082 18.7395C20.5657 18.582 20.7232 18.4245 20.9595 18.2671C21.1169 18.1096 21.1169 17.8734 20.9595 17.7159C20.8807 17.6372 20.802 17.5584 20.6445 17.5584C20.5657 17.5584 20.4082 17.5584 20.3295 17.6372C20.0933 17.7947 19.9359 18.0309 19.6996 18.1883C19.6209 18.2671 19.5421 18.3458 19.4634 18.4245L19.3846 18.5033C19.3846 18.5033 19.3846 18.582 19.3059 18.6608C19.3059 18.6608 19.3059 18.6608 19.2272 18.6608C18.8335 18.6608 18.4398 18.7395 18.1249 18.7395C18.2036 18.6608 18.2823 18.582 18.2823 18.5033C18.3611 18.3458 18.5185 18.2671 18.5973 18.1096C18.676 18.0309 18.7548 17.9522 18.7548 17.7947C18.7548 17.7159 18.7548 17.5584 18.676 17.4797C18.5973 17.4009 18.5185 17.3222 18.3611 17.3222C18.2823 17.3222 18.1249 17.3222 18.0462 17.4009C17.8099 17.7159 17.5737 17.9522 17.3375 18.2671C17.2588 18.4245 17.18 18.5033 17.1013 18.6608C16.7076 18.7395 16.2352 18.7395 15.8415 18.897C15.6052 18.9758 15.3691 19.2119 15.2116 19.3694C14.8179 19.6844 14.503 20.078 14.1093 20.393C14.1093 20.3142 14.1093 20.2355 14.0305 20.1568C13.9518 20.078 13.873 19.9993 13.7155 19.9993C13.6368 19.9993 13.5581 19.9993 13.4794 20.078C12.9282 20.6292 12.4558 21.1804 11.9833 21.8103C11.7471 22.0465 11.5109 22.3614 11.2747 22.6764C11.196 22.7552 11.196 22.7552 11.196 22.8338C11.1172 22.8338 11.1172 22.9126 11.0385 22.9126C10.6448 23.1488 10.2511 23.385 9.77874 23.5425C9.69999 23.6213 9.5425 23.6213 9.46376 23.7C9.38501 23.7 9.30627 23.7787 9.22753 23.7787C9.22753 23.7 9.22753 23.7 9.30627 23.6213C9.38501 23.6213 9.46376 23.5425 9.5425 23.4638C9.5425 23.385 9.62125 23.385 9.62125 23.385L9.5425 23.4638C10.0149 22.9913 10.4086 22.5189 10.881 22.0465C11.0385 21.889 11.0385 21.6528 10.881 21.4953C10.8022 21.4166 10.7236 21.3378 10.5661 21.3378C10.4874 21.3378 10.3299 21.3378 10.3299 21.4166C10.1724 21.5741 10.0149 21.8103 9.85748 21.9677C9.93614 21.8103 9.93614 21.6528 10.0149 21.4953C10.1724 21.0229 10.3299 20.5505 10.4874 20.1568C10.5661 20.1568 10.7236 20.1568 10.8023 20.078C10.881 19.9206 11.0385 19.8419 11.196 19.7631C11.3535 19.6056 11.5109 19.4481 11.6684 19.2906C11.8258 19.1332 11.8258 18.897 11.6684 18.7395C11.5897 18.6608 11.5109 18.582 11.3535 18.582C11.2747 18.582 11.1172 18.582 11.1172 18.6608C11.0385 18.7395 10.9597 18.8183 10.881 18.897C10.881 18.897 10.881 18.897 10.881 18.8183C10.881 18.7395 10.9597 18.6608 10.9597 18.582C10.9597 18.5033 10.9597 18.4245 10.9597 18.4245C11.0385 18.3458 11.1172 18.2671 11.1172 18.1883C11.196 18.0309 11.196 17.8734 11.196 17.7159C11.1172 17.5584 11.0385 17.4009 10.881 17.3222C10.7236 17.2435 10.5661 17.2435 10.3299 17.2435C10.2511 17.2435 10.1724 17.2435 10.0936 17.2435C10.1724 17.1648 10.2511 17.0861 10.3299 17.0073C10.4874 16.8498 10.4874 16.6136 10.3299 16.4561C10.2511 16.3774 10.1724 16.2987 10.0149 16.2987C9.93614 16.2987 9.77874 16.2986 9.69999 16.3774C9.5425 16.5348 9.30627 16.6923 9.14878 16.9286C8.99129 17.0861 8.91263 17.2435 8.75514 17.3222V17.4009C8.51891 17.4797 8.28268 17.4797 8.04644 17.5584C7.73153 17.6372 7.49532 17.7159 7.18037 17.7947C7.33784 17.6372 7.49532 17.4009 7.65279 17.2435C7.73153 17.1648 7.81027 17.0861 7.81027 17.0073C7.81027 16.9286 7.81027 16.7711 7.73153 16.6923C7.65279 16.6136 7.57406 16.5348 7.49532 16.5348C7.41658 16.5348 7.2591 16.5348 7.2591 16.6136C7.0229 16.8498 6.86542 17.0861 6.62921 17.4009L6.55047 17.4797C6.47173 17.5584 6.47173 17.6372 6.39299 17.7159C6.39299 17.7947 6.47173 17.8734 6.47173 17.8734C6.31425 17.8734 6.07805 17.9522 5.92057 17.9522C5.76309 17.9522 5.68436 17.9522 5.52688 17.9522C5.60562 17.8734 5.68436 17.7947 5.76309 17.7159C5.99931 17.4009 6.31425 17.0861 6.55047 16.7711C6.62921 16.6923 6.62921 16.5348 6.62921 16.4561C6.62921 16.3774 6.55047 16.2199 6.47173 16.2199C6.39299 16.1412 6.31425 16.1412 6.23552 16.1412H6.15678C6.07805 16.1412 5.99931 16.2199 5.92057 16.2987C5.68436 16.5348 5.52688 16.7711 5.29067 17.0861C5.29067 16.6923 5.29067 16.2199 5.29067 15.8262V15.7475C5.3694 15.59 5.52688 15.4325 5.60562 15.2751C5.76309 15.0389 5.92057 14.7239 6.15678 14.4877C6.31425 14.3302 6.23552 14.0153 5.99931 13.9365C5.92057 13.8578 5.84183 13.8578 5.76309 13.8578C5.60562 13.8578 5.52688 13.9365 5.44815 14.0153C5.3694 14.094 5.29067 14.1728 5.29067 14.3302C5.29067 14.0153 5.29067 13.7003 5.29067 13.3854C5.29067 12.9917 5.29067 12.6767 5.29067 12.2831C5.29067 12.2043 5.3694 12.2043 5.3694 12.1256C5.52688 11.8893 5.68436 11.6531 5.84183 11.4957C5.99931 11.3382 5.92057 11.0232 5.68436 10.9445C5.60562 10.8657 5.52688 10.8657 5.44815 10.8657C5.3694 10.8657 5.29067 10.8657 5.29067 10.9445C5.3694 10.0784 5.44815 9.21227 5.52688 8.34617C5.60562 7.5588 5.76309 6.85015 6.07805 6.06278C6.15678 5.90531 6.23552 5.74783 6.31425 5.59036C6.15678 6.29899 6.23552 6.22026 6.31425 6.14152C6.31425 6.14152 6.39299 6.14152 6.39299 6.06278C6.55047 5.98405 6.62921 5.98405 6.78668 5.98405C7.57406 5.90531 8.44016 5.98405 9.22753 5.90531Z" fill="black"/>
<path d="M9.62087 13.3067C9.69961 13.4642 9.77836 13.6217 9.8571 13.7004C9.93584 13.7792 10.0145 13.9367 10.0933 14.0153C10.172 14.0941 10.3295 14.1728 10.4082 14.2516C10.487 14.3303 10.6445 14.4091 10.802 14.4091C10.9594 14.4878 11.1168 14.4878 11.2743 14.5665C11.4318 14.5665 11.5106 14.5665 11.6681 14.5665C11.9042 14.5665 12.2192 14.4091 12.4554 14.3303C12.6129 14.2516 12.6917 14.1728 12.7704 14.0941C12.9278 13.9367 13.0853 13.8579 13.2428 13.7004C13.4003 13.543 13.479 13.3855 13.6365 13.228C13.7939 13.0705 13.8727 12.9131 13.9514 12.6768C14.0301 12.5194 14.1089 12.3619 14.1089 12.1256C14.1089 11.9682 14.1089 11.8107 14.1876 11.732C14.1876 11.5745 14.1876 11.4958 14.1089 11.3383C14.1089 11.2595 14.0301 11.1809 14.0301 11.1021C13.9514 10.9446 13.9514 10.8659 13.8727 10.7871C13.7939 10.7084 13.7152 10.5509 13.6365 10.4722C13.5578 10.3147 13.4003 10.236 13.2428 10.1573C13.164 10.0785 13.0065 9.99978 12.9278 9.92104C12.7704 9.8423 12.6917 9.8423 12.5342 9.76355C12.3767 9.68481 12.1404 9.68481 11.983 9.60606C11.9042 9.60606 11.8255 9.60606 11.6681 9.60606C11.5893 9.60606 11.5893 9.60606 11.5106 9.60606C11.3531 9.60606 11.2743 9.60606 11.1168 9.68481C11.0381 9.68481 10.9594 9.76355 10.8807 9.76355C10.802 9.76355 10.7232 9.8423 10.6445 9.92104C10.5657 9.92104 10.4082 9.99978 10.4082 9.99978C10.3295 10.0785 10.2507 10.1573 10.2507 10.236C10.2507 10.3147 10.2507 10.4722 10.2507 10.5509C10.3295 10.7084 10.5657 10.7871 10.802 10.7084H10.8807C10.9594 10.7084 10.9594 10.7084 11.0381 10.7084C10.9594 10.7084 10.9594 10.7084 10.9594 10.7084C11.1168 10.7084 11.2743 10.7871 11.4318 10.7871C11.6681 10.7871 11.9042 10.8659 12.1404 10.9446C12.2979 11.0234 12.3767 11.1021 12.4554 11.1809C12.5342 11.2595 12.6129 11.3383 12.6917 11.417C12.7704 11.4958 12.7704 11.5745 12.8491 11.6533C12.8491 11.732 12.9278 11.8107 12.9278 11.8895C12.9278 11.9682 12.9278 12.047 12.9278 12.1256C12.9278 12.2044 12.8491 12.2831 12.8491 12.3619C12.7704 12.5194 12.6917 12.6768 12.6129 12.7556C12.5342 12.9131 12.3767 12.9918 12.2192 13.0705C12.1404 13.1492 11.983 13.228 11.9042 13.3067C11.8255 13.3067 11.7468 13.3855 11.6681 13.3855C11.5893 13.3855 11.5893 13.3855 11.5106 13.3855C11.4318 13.3855 11.3531 13.3855 11.2743 13.3067C11.1956 13.228 11.1168 13.228 11.0381 13.1492C10.9594 13.0705 10.9594 13.0705 10.8807 12.9918C10.802 12.9131 10.802 12.8343 10.7232 12.7556C10.7232 12.6768 10.6445 12.5981 10.6445 12.5194C10.6445 12.4406 10.6445 12.3619 10.6445 12.2831C10.6445 12.2044 10.6445 12.2044 10.6445 12.1256C10.6445 12.047 10.7232 11.9682 10.7232 11.8895C10.7232 11.8107 10.802 11.732 10.8807 11.6533C11.0381 11.417 10.9594 11.0234 10.6445 10.8659C10.4082 10.7084 10.0146 10.7871 9.8571 11.1021C9.77836 11.2595 9.62087 11.4958 9.54212 11.6533C9.54212 11.8107 9.46338 11.9682 9.46338 12.1256C9.46338 12.2831 9.46338 12.4406 9.46338 12.5194C9.46338 12.6768 9.46338 12.8343 9.54212 12.9131C9.54212 13.0705 9.54212 13.228 9.62087 13.3067ZM10.7232 10.6297C10.802 10.6297 10.802 10.6297 10.7232 10.6297V10.6297ZM12.9278 11.8895V11.8107C12.9278 11.8895 12.9278 11.8895 12.9278 11.8895ZM10.8807 13.0705C10.9594 13.0705 10.9594 13.0705 10.8807 13.0705V13.0705Z" fill="black"/>
<path d="M15.527 13.5424C15.6057 13.6212 15.6057 13.7786 15.6844 13.8573C15.7632 13.936 15.8419 14.0935 15.9206 14.1723C15.9994 14.251 16.0781 14.3298 16.1569 14.4085C16.2356 14.4873 16.3931 14.566 16.4719 14.6447C16.708 14.7234 16.9442 14.8022 17.1805 14.8022C17.338 14.8022 17.4167 14.8022 17.5741 14.7234C17.7316 14.7234 17.8891 14.6447 18.0466 14.566C18.3616 14.4873 18.5977 14.3298 18.8339 14.0935C18.9127 14.0148 19.0702 13.936 19.1489 13.8573C19.2277 13.7786 19.3063 13.6212 19.3851 13.5424C19.4638 13.4637 19.5426 13.3062 19.5426 13.2274C19.6213 13.0699 19.6213 12.9125 19.7 12.755C19.7 12.5976 19.7 12.5188 19.7 12.3613C19.7 12.2038 19.7 12.1251 19.6213 11.9676C19.6213 11.8102 19.5426 11.7315 19.5426 11.574C19.4638 11.4165 19.3851 11.259 19.3063 11.1802C19.2277 11.1015 19.1489 10.944 19.0702 10.8653C18.9914 10.7866 18.8339 10.7079 18.7552 10.6291C18.6765 10.5504 18.519 10.4716 18.4402 10.4716C18.2828 10.3929 18.2041 10.3929 18.0466 10.3929C17.9678 10.3929 17.8891 10.3929 17.8891 10.3929C17.8103 10.3929 17.6529 10.3929 17.5741 10.4716C17.4954 10.4716 17.4167 10.4716 17.338 10.4716C17.1805 10.5504 17.023 10.7079 17.1017 10.8653C17.023 10.7866 16.8655 10.7079 16.708 10.7079C16.5505 10.7079 16.3931 10.7866 16.3144 10.8653C16.1569 11.0228 16.0781 11.1802 15.9206 11.3377C15.8419 11.4952 15.7632 11.7315 15.6844 11.8889C15.6844 11.9676 15.6057 12.0463 15.6057 12.2038C15.6057 12.3613 15.527 12.5188 15.527 12.6763C15.527 12.8337 15.527 12.9912 15.527 13.1487C15.4483 13.3062 15.527 13.4637 15.527 13.5424ZM16.7867 13.3849C16.8655 13.3849 16.8655 13.3849 16.7867 13.3849V13.3849ZM17.1805 11.574C17.2592 11.4165 17.2592 11.259 17.2592 11.1015C17.338 11.1802 17.4167 11.1802 17.4954 11.1802C17.6529 11.3377 17.8891 11.4165 18.0466 11.574C18.0466 11.574 18.1253 11.574 18.1253 11.6527C18.2041 11.7315 18.2828 11.8102 18.3616 11.8889C18.3616 11.9676 18.4402 11.9676 18.4402 12.0463C18.4402 12.1251 18.519 12.2038 18.519 12.2826C18.519 12.3613 18.519 12.4401 18.519 12.5188C18.519 12.5976 18.4402 12.6763 18.4402 12.755C18.4402 12.8337 18.3616 12.8337 18.3616 12.9125C18.2828 12.9912 18.2041 13.0699 18.1253 13.1487C18.0466 13.2274 17.9678 13.3062 17.8103 13.3062C17.7316 13.3062 17.7316 13.3062 17.6529 13.3849C17.5741 13.3849 17.4167 13.4637 17.338 13.4637C17.2592 13.4637 17.1805 13.4637 17.1017 13.4637C17.023 13.4637 17.023 13.4637 16.9442 13.3849C16.9442 13.3849 16.8655 13.3849 16.8655 13.3062L16.7867 13.2274C16.7867 13.1487 16.708 13.1487 16.708 13.0699C16.708 12.9912 16.6293 12.9125 16.6293 12.755C16.6293 12.5976 16.6293 12.5188 16.6293 12.3613C16.6293 12.2826 16.708 12.1251 16.708 12.0463C16.8655 12.0463 17.023 11.8102 17.1805 11.574ZM21.826 13.936C21.9047 14.0148 21.9835 14.1723 22.0622 14.251C22.2984 14.4873 22.5346 14.6447 22.7708 14.8022C22.9283 14.8809 23.0071 14.8809 23.1645 14.9596C23.322 15.0384 23.4007 15.0384 23.5582 15.0384C23.7157 15.0384 23.8732 15.0384 24.0306 15.0384C24.1093 15.0384 24.1093 15.0384 24.1881 15.0384C24.3456 15.0384 24.503 14.9596 24.6605 14.8809C24.8967 14.8022 25.1329 14.6447 25.3691 14.4085C25.4479 14.3298 25.5266 14.1723 25.6054 14.0935C25.6841 13.9361 25.8415 13.7786 25.9203 13.6212C25.999 13.4637 25.999 13.3849 26.0778 13.2274C26.1565 13.0699 26.1565 12.9912 26.1565 12.8337C26.1565 12.6763 26.2353 12.5188 26.1565 12.2826C26.1565 12.2038 26.1565 12.2038 26.1565 12.1251C26.1565 11.9676 26.0778 11.8102 26.0778 11.6527C25.999 11.4952 25.999 11.4165 25.9203 11.259C25.8415 11.1802 25.7629 11.0228 25.6841 10.944C25.6054 10.7866 25.4479 10.7079 25.3691 10.6291C25.2117 10.4716 24.9754 10.3929 24.818 10.3141C24.7393 10.2354 24.5818 10.2354 24.4243 10.1566C24.2668 10.1566 24.1881 10.1566 24.0306 10.0779C23.8732 10.0779 23.7944 10.0779 23.6369 10.0779C23.5582 10.0779 23.4794 10.0779 23.4007 10.1566C23.322 10.1566 23.2432 10.2354 23.1645 10.2354C23.1645 10.2354 23.2432 10.2354 23.2432 10.1566C23.0857 10.1566 22.9283 10.2354 22.8496 10.3141C22.7708 10.3929 22.7708 10.3929 22.7708 10.4716C22.6133 10.4716 22.5346 10.5504 22.4559 10.6291C22.1409 10.944 21.9047 11.259 21.6685 11.6527C21.3535 12.2038 21.2748 12.8337 21.511 13.3849C21.6685 13.6999 21.7472 13.7786 21.826 13.936ZM22.6921 12.5976C22.6921 12.5188 22.6921 12.4401 22.7708 12.3613C22.8496 12.1251 23.0071 11.9676 23.0857 11.8102C23.1645 11.7315 23.2432 11.6527 23.322 11.574C23.4007 11.4952 23.4794 11.3377 23.4794 11.1802C23.4794 11.1015 23.4794 11.1015 23.4794 11.0228C23.7157 11.1015 23.9519 11.1802 24.1881 11.259C24.1881 11.259 24.2668 11.259 24.2668 11.3377C24.4243 11.4165 24.503 11.4952 24.5818 11.574C24.6605 11.6527 24.7393 11.7315 24.818 11.8102C24.8967 11.8889 24.8968 11.9676 24.9754 12.0463C24.9754 12.1251 25.0542 12.2826 25.0542 12.3613C25.0542 12.5188 25.0542 12.5976 25.0542 12.755C25.0542 12.9125 24.9754 12.9912 24.9754 13.0699C24.8968 13.1487 24.818 13.3062 24.7393 13.3849C24.6605 13.4637 24.5818 13.5424 24.503 13.6212C24.4243 13.6212 24.4243 13.6999 24.3456 13.6999C24.2668 13.6999 24.1881 13.7786 24.0306 13.7786C23.9519 13.7786 23.7944 13.7786 23.7157 13.7786C23.6369 13.7786 23.4794 13.6999 23.4007 13.6999C23.2432 13.6212 23.1645 13.5424 23.0857 13.4637C23.0071 13.3849 22.9283 13.3062 22.8496 13.2274C22.7708 13.1487 22.7708 13.0699 22.6921 12.9912C22.6921 12.9125 22.6921 12.8337 22.6133 12.8337C22.6921 12.755 22.6921 12.6763 22.6921 12.5976ZM22.6921 12.9125V12.9912C22.6921 12.9912 22.6921 12.9912 22.6921 12.9125Z" fill="black"/>
</g>
<defs>
<clipPath id="clip0_9_329">
<rect width="39.9311" height="50.3132" fill="white"/>
</clipPath>
</defs>
</svg>
