<svg width="14" height="14" viewBox="0 0 14 14" fill="none" xmlns="http://www.w3.org/2000/svg">
<path d="M6.94483 1.16037C3.74219 1.16037 1.14294 3.75962 1.14294 6.96226C1.14294 10.1649 3.74219 12.7641 6.94483 12.7641C10.1475 12.7641 12.7467 10.1649 12.7467 6.96226C12.7467 3.75962 10.1533 1.16037 6.94483 1.16037ZM8.6854 8.25608L7.00285 9.22499C6.79398 9.34683 6.56191 9.40485 6.33563 9.40485C6.10356 9.40485 5.87728 9.34683 5.66842 9.22499C5.25068 8.98131 5.0012 8.55197 5.0012 8.06462V6.12098C5.0012 5.63943 5.25068 5.20429 5.66842 4.96061C6.08615 4.71693 6.58511 4.71693 7.00865 4.96061L8.6912 5.92952C9.10893 6.1732 9.35842 6.60254 9.35842 7.0899C9.35842 7.57726 9.10893 8.0124 8.6854 8.25608Z" fill="#292D32"/>
</svg>
