<svg width="205" height="204" viewBox="0 0 205 204" fill="none" xmlns="http://www.w3.org/2000/svg">
<mask id="mask0_2_52" style="mask-type:alpha" maskUnits="userSpaceOnUse" x="-51" y="-25" width="256" height="229">
<path fill-rule="evenodd" clip-rule="evenodd" d="M89.604 203.754C72.6151 206.026 58.1451 191.879 41.233 189.093C12.9292 184.43 -23.9598 203.31 -43.0503 181.9C-60.4696 162.364 -45.5739 128.52 -33.4703 105.312C-23.0949 85.418 0.0769653 77.194 18.3486 64.1728C29.7104 56.0758 44.5199 53.6535 53.7261 43.1708C69.3951 25.3304 68.763 -5.58102 89.604 -16.9583C110.131 -28.1641 139.813 -28.0836 158.505 -14.0289C177.516 0.265575 173.097 29.9866 181.588 52.2051C188.571 70.4781 209.343 86.463 204.111 105.312C198.538 125.388 171.041 129.148 156.177 143.748C146.076 153.669 141.557 167.603 131.04 177.082C118.628 188.271 106.167 201.539 89.604 203.754Z" fill="#C4C4C4"/>
</mask>
<g mask="url(#mask0_2_52)">
<path fill-rule="evenodd" clip-rule="evenodd" d="M73.8891 188.057C56.8981 190.328 42.4258 176.185 25.5115 173.399C-2.79614 168.737 -39.6902 187.613 -58.7833 166.208C-76.2049 146.677 -61.3072 112.841 -49.202 89.639C-38.8252 69.7497 -15.6501 61.5277 2.62396 48.5095C13.9874 40.4144 28.7988 37.9928 38.0068 27.5126C53.6781 9.67658 53.0451 -21.2273 73.8891 -32.6018C94.4181 -43.8048 124.105 -43.7243 142.8 -29.6731C161.813 -15.3821 157.393 14.3317 165.885 36.5447C172.869 54.8133 193.644 70.7942 188.411 89.639C182.838 109.71 155.337 113.469 140.471 128.065C130.369 137.983 125.849 151.915 115.331 161.391C102.917 172.577 90.4551 185.842 73.8891 188.057Z" stroke="#F9F9F9" stroke-width="4.30886"/>
<path fill-rule="evenodd" clip-rule="evenodd" d="M55.6821 152.766C40.8908 154.743 28.2925 142.431 13.5681 140.007C-11.0745 135.949 -43.1919 152.379 -59.8129 133.747C-74.9789 116.745 -62.01 87.292 -51.4721 67.0952C-42.4388 49.7824 -22.2643 42.6253 -6.35614 31.2933C3.53596 24.2467 16.4298 22.1387 24.4456 13.016C38.0875 -2.50987 37.5369 -29.4109 55.6821 -39.3122C73.5541 -49.0642 99.3971 -48.9941 115.671 -36.7629C132.223 -24.3228 128.375 1.54233 135.767 20.8782C141.847 36.7806 159.932 50.6915 155.377 67.0952C150.525 84.567 126.585 87.839 113.643 100.545C104.849 109.178 100.914 121.305 91.7591 129.554C80.9511 139.291 70.1031 150.838 55.6821 152.766Z" stroke="#F9F9F9" stroke-width="4.30886"/>
<path fill-rule="evenodd" clip-rule="evenodd" d="M31.5615 122.699C18.4202 124.46 7.22706 113.496 -5.85484 111.336C-27.7486 107.722 -56.2834 122.355 -71.0504 105.761C-84.5248 90.62 -73.0025 64.3889 -63.64 46.4019C-55.6144 30.9833 -37.6902 24.6093 -23.5565 14.517C-14.7679 8.24137 -3.31234 6.36407 3.80927 -1.76053C15.9296 -15.5878 15.4403 -39.5455 31.5615 -48.3635C47.4396 -57.0485 70.4001 -56.9861 84.8591 -46.0931C99.5641 -35.0142 96.1461 -11.9789 102.714 5.24147C108.115 19.404 124.183 31.793 120.136 46.4019C115.825 61.9619 94.5561 64.876 83.0571 76.192C75.2451 83.881 71.7481 94.681 63.6141 102.027C54.0121 110.699 44.3738 120.982 31.5615 122.699Z" stroke="#F9F9F9" stroke-width="4.30886"/>
</g>
</svg>
